<?xml version="1.0" standalone="no"?>
<!DOCTYPE svg PUBLIC "-//W3C//DTD SVG 1.1//EN" "http://www.w3.org/Graphics/SVG/1.1/DTD/svg11.dtd" >
<svg>
<metadata>
Created by FontForge 20090914 at Tue Apr 25 04:21:53 2017
 By www-data
Copyright (c) 2013 by Ekaluck Peanpanawate. All rights reserved. EXCLUSIVE LICENSE to PACE Development Corporation Public Company Limited 87/2 CRC Tower, All Seasons Place 45th Floor Unit 3, Wireless Road, Lumpini, Pathumwan, Bangkok 10330 Thailand
</metadata>
<defs>
<font id="KaLaTeXaDisplay" horiz-adv-x="0" >
  <font-face 
    font-family="KaLaTeXa Display"
    font-weight="400"
    font-stretch="normal"
    units-per-em="1000"
    panose-1="2 0 5 1 4 0 0 2 0 4"
    ascent="750"
    descent="-250"
    x-height="500"
    cap-height="684"
    bbox="-610 -519.001 4402 1015"
    underline-thickness="50"
    underline-position="0"
    unicode-range="U+000D-U+FB02"
  />
<missing-glyph horiz-adv-x="361" 
 />
    <glyph glyph-name="uni0E5A" unicode="&#xe2f;&#xe2f;" horiz-adv-x="578" 
d="M429 0v520h84v-520h-84zM104 0l0.000976562 75h58c41.333 0 72.166 11.667 92.499 35s30.5 62.333 30.5 117v167c-11.333 -14.667 -27.5 -27 -48.5 -37s-46.833 -15 -77.5 -15c-42 0 -75.167 10.5 -99.5 31.5s-36.5 51.5 -36.5 91.5v55h81v-55
c0 -18.667 4.16699 -32 12.5 -40s24.166 -12 47.499 -12c34.667 0 63.334 9 86.001 27s36.667 44.667 42 80h80v-293c0 -34 -3.16699 -65 -9.5 -93s-17.5 -51.833 -33.5 -71.5s-37.5 -35 -64.5 -46s-61.167 -16.5 -102.5 -16.5h-58z" />
    <glyph glyph-name="uni0E4F.liga" unicode="&#xe4f;&#x22;" horiz-adv-x="625" 
d="M360 558c-1.33301 16.667 -2.33301 33.667 -3 51c-0.666992 14.667 -1.16699 30.834 -1.5 48.501s-0.5 34.167 -0.5 49.5h74c0 -15.333 -0.5 -31.833 -1.5 -49.5s-2.16699 -33.834 -3.5 -48.501l-4 -51h-60zM200 558c-2 16.667 -3.66602 33.667 -4.99902 51
c-1.33301 14.667 -2.33301 30.834 -3 48.501s-1 34.167 -1 49.5h74c0 -15.333 -0.333008 -31.833 -1 -49.5s-1.33398 -33.834 -2.00098 -48.501l-2 -51h-60zM554.001 272c0 -34.667 -6.83301 -66.5 -20.5 -95.5s-31.667 -54 -54 -75s-48.166 -37.333 -77.499 -49
s-59.666 -17.5 -90.999 -17.5c-32.667 0 -63.834 5.83301 -93.501 17.5s-55.834 28 -78.501 49s-40.667 46 -54 75s-20 60.833 -20 95.5c0 36 6.66699 68.667 20 98s31.333 54.5 54 75.5s48.834 37.333 78.501 49s60.834 17.5 93.501 17.5
c31.333 0 61.666 -5.83301 90.999 -17.5s55.166 -28 77.499 -49s40.333 -46.167 54 -75.5s20.5 -62 20.5 -98zM434.001 276c0 -17.333 -3.16699 -33.333 -9.5 -48s-15 -27.5 -26 -38.5s-24 -19.5 -39 -25.5s-30.833 -9 -47.5 -9c-17.333 0 -33.5 3 -48.5 9
s-28 14.5 -39 25.5s-19.833 23.833 -26.5 38.5s-10 30.667 -10 48c0 16.667 3.33301 32.167 10 46.5s15.5 26.833 26.5 37.5s24 19.167 39 25.5s31.167 9.5 48.5 9.5c16.667 0 32.5 -3.16699 47.5 -9.5s28 -14.833 39 -25.5s19.667 -23.167 26 -37.5s9.5 -29.833 9.5 -46.5z
M485.001 273c0 24 -4.5 46.667 -13.5 68s-21.5 40 -37.5 56s-34.667 28.5 -56 37.5s-44.333 13.5 -69 13.5c-24 0 -46.667 -4.5 -68 -13.5s-40 -21.5 -56 -37.5s-28.5 -34.667 -37.5 -56s-13.5 -44 -13.5 -68c0 -24.667 4.5 -47.667 13.5 -69s21.5 -40 37.5 -56
s34.667 -28.5 56 -37.5s44 -13.5 68 -13.5c24.667 0 47.667 4.5 69 13.5s40 21.5 56 37.5s28.5 34.667 37.5 56s13.5 44.333 13.5 69zM359.001 274c0 14 -4.66699 25.5 -14 34.5s-20.666 13.5 -33.999 13.5c-14 0 -25.5 -4.5 -34.5 -13.5s-13.5 -20.5 -13.5 -34.5
c0 -13.333 4.5 -24.666 13.5 -33.999s20.5 -14 34.5 -14c13.333 0 24.666 4.66699 33.999 14s14 20.666 14 33.999z" />
    <glyph glyph-name="uni0E24.liga" unicode="&#xe24;&#xe32;" horiz-adv-x="862" 
d="M409 -195l0.000976562 522.996c0 42 -10.833 74.167 -32.5 96.5s-51.834 33.5 -90.501 33.5c-15.333 0 -29.833 -2 -43.5 -6s-26.334 -9 -38.001 -15s-21.5 -12.333 -29.5 -19s-14 -12.667 -18 -18l68 -36v-53c-5.33301 -1.33301 -10.833 -3.33301 -16.5 -6
s-11.167 -6.16699 -16.5 -10.5s-9.66602 -9.66602 -12.999 -15.999s-5 -14.166 -5 -23.499v-151c0 -11.333 2.66699 -20.666 8 -27.999s13.666 -11 24.999 -11h54v-65h-67c-37.333 0 -64.666 8.66699 -81.999 26s-26 43 -26 77v149c0 19.333 5 35.666 15 48.999
s22.667 24 38 32l-79 39v45c7.33301 9.33301 18 20.666 32 33.999s30.5 26 49.5 38s40.667 22.333 65 31s50.833 13 79.5 13c40 0 73.833 -6 101.5 -18s51.167 -31.667 70.5 -59c14 25.333 35 44.5 63 57.5s59.667 19.5 95 19.5c58.667 0 104.5 -15.833 137.5 -47.5
s49.5 -77.5 49.5 -137.5v-543h-88v543c0 36.667 -9 64.334 -27 83.001s-42 28 -72 28c-15.333 0 -30 -2.16699 -44 -6.5s-26.333 -10.666 -37 -18.999s-19.167 -18.666 -25.5 -30.999s-9.5 -26.5 -9.5 -42.5v-555h-91z" />
    <glyph glyph-name="uni0E26.liga" unicode="&#xe26;&#xe32;" horiz-adv-x="903" 
d="M450 328c0 42 -11.1689 74.167 -33.502 96.5s-52.833 33.5 -91.5 33.5c-15.333 0 -29.666 -2 -42.999 -6s-25.5 -9 -36.5 -15s-20.5 -12.333 -28.5 -19s-13.667 -12.667 -17 -18l68 -36v-53c-5.33301 -1.33301 -11 -3.33301 -17 -6s-11.5 -6.33398 -16.5 -11.001
s-9.33301 -10.334 -13 -17.001s-5.5 -14.667 -5.5 -24v-153c0 -66.667 -37.667 -100 -113 -100h-48v65h39c22 0 33 10.667 33 32v160c0 17.333 5.5 33 16.5 47s23.833 23.667 38.5 29l-79 39v45c7.33301 9.33301 17.666 20.666 30.999 33.999s29.5 26 48.5 38
s40.333 22.333 64 31s49.834 13 78.501 13c78.667 0 136.667 -25.667 174 -77c14.667 25.333 36 44.5 64 57.5s59.667 19.5 95 19.5c58 0 103.667 -15.833 137 -47.5s50 -77.5 50 -137.5v-543h-88v543c0 36.667 -9.16699 64.334 -27.5 83.001s-42.166 28 -71.499 28
c-15.333 0 -30 -2.16699 -44 -6.5s-26.333 -10.666 -37 -18.999s-19.167 -18.666 -25.5 -30.999s-9.5 -26.5 -9.5 -42.5v-555h-92v523z" />
    <glyph glyph-name="fi" unicode="fi" horiz-adv-x="508" 
d="M425 0l-81.998 -0.000976562v435h-174v-435h-83v435h-85v65h85v73c0 46.667 10.5 82 31.5 106s55.5 36 103.5 36c9.33301 0 17.666 -0.833008 24.999 -2.5s14.666 -3.16699 21.999 -4.5c4 0 9 -0.333008 15 -1s10.333 -1 13 -1v-72c-14 4 -27 7.5 -39 10.5
s-22.667 4.5 -32 4.5c-17.333 0 -31 -5.16699 -41 -15.5s-15 -28.166 -15 -53.499v-80h256v-500zM341.002 580.999v95h84v-95h-84z" />
    <glyph glyph-name="fl" unicode="fl" horiz-adv-x="537" 
d="M451 0h-86.999v555c0 28 -7.33301 50.333 -22 67s-36 25 -64 25c-30 0 -54.667 -8.16699 -74 -24.5s-29 -41.833 -29 -76.5v-46h110v-65h-110v-435h-85v435h-87v65h87v46c0 52 16.667 93.167 50 123.5s78.666 45.5 135.999 45.5c25.333 0 48.666 -3.83301 69.999 -11.5
s39.833 -18.5 55.5 -32.5s27.834 -30.833 36.501 -50.5s13 -41.5 13 -65.5v-555z" />
    <glyph glyph-name=".notdef" horiz-adv-x="361" 
 />
    <glyph glyph-name=".null" 
 />
    <glyph glyph-name=".null" 
 />
    <glyph glyph-name="nonmarkingreturn" unicode="&#xd;" horiz-adv-x="281" 
 />
    <glyph glyph-name="space" unicode=" " horiz-adv-x="268" 
 />
    <glyph glyph-name="exclam" unicode="!" horiz-adv-x="229" 
d="M68 0v97h98v-97h-98zM164 563c0 -8 -0.332031 -19.5 -0.999023 -34.5s-1.5 -32 -2.5 -51s-2.16699 -39.5 -3.5 -61.5l-4 -65l-11 -165h-50c-4.66699 59.333 -8.33398 114.333 -11.001 165l-4 65c-1.33301 22 -2.5 42.5 -3.5 61.5s-1.83301 36 -2.5 51s-1 26.5 -1 34.5
v121h94v-121z" />
    <glyph glyph-name="quotedbl" unicode="&#x22;" horiz-adv-x="396" 
d="M84 451l-8 70.001c-2 19.333 -3.83301 39.666 -5.5 60.999s-2.5 40 -2.5 56v65h83v-65c0 -16 -1 -34.667 -3 -56l-6 -61l-8 -70h-50zM263 451.001c-3.33301 24 -6.33301 47.334 -9 70.001c-2 19.333 -3.83301 39.666 -5.5 60.999s-2.5 40 -2.5 56v65h83v-65
c0 -16 -1 -34.667 -3 -56l-6 -61l-8 -70h-49z" />
    <glyph glyph-name="numbersign" unicode="#" horiz-adv-x="506" 
d="M140 0h-70l92 682h73zM367 682h72l-95 -682h-70zM45 435v65h436v-65h-436zM455 235v-65h-436v65h436z" />
    <glyph glyph-name="dollar" unicode="$" horiz-adv-x="565" 
d="M140 205c0 -46 9.33203 -80.166 27.999 -102.499s49 -35.166 91 -38.499v258c-24.667 8.66699 -49.167 18 -73.5 28s-46 22.167 -65 36.5s-34.333 31.666 -46 51.999s-17.5 45.166 -17.5 74.499c0 48 16.833 88 50.5 120s84.167 49.333 151.5 52v95h56v-96
c58 -6 103.167 -25.167 135.5 -57.5s48.5 -75.5 48.5 -129.5h-91c0 32 -8.16699 57.5 -24.5 76.5s-39.166 31.5 -68.499 37.5v-221c24.667 -8.66699 49.5 -18.167 74.5 -28.5s47.5 -23.166 67.5 -38.499s36.167 -34.333 48.5 -57s18.5 -50.334 18.5 -83.001
c0 -26 -4.83301 -50 -14.5 -72s-23.5 -41.333 -41.5 -58s-39.833 -30.167 -65.5 -40.5s-54.834 -16.833 -87.501 -19.5v-105h-56v105c-69.333 3.33301 -121.666 22 -156.999 56s-53 86 -53 156h91zM431.999 177.001c0 16.667 -2.99902 31.3301 -8.99902 43.9971
s-14.333 23.834 -25 33.501s-23.167 18.334 -37.5 26.001s-29.5 14.834 -45.5 21.501v-237c39.333 4.66699 68.666 16.5 87.999 35.5s29 44.5 29 76.5zM148 512.997c0 -14 2.83301 -26.167 8.5 -36.5s13.5 -19.5 23.5 -27.5s21.667 -15.333 35 -22s28 -13 44 -19v206
c-40 -3.33301 -68.5 -14 -85.5 -32s-25.5 -41 -25.5 -69z" />
    <glyph glyph-name="percent" unicode="%" horiz-adv-x="836" 
d="M208 419c22.667 0 40 7.5 52 22.5s18 35.833 18 62.5c0 28 -6 49.5 -18 64.5s-29.333 22.5 -52 22.5c-23.333 0 -40.833 -7.5 -52.5 -22.5s-17.5 -36.5 -17.5 -64.5c0 -26.667 5.83301 -47.5 17.5 -62.5s29.167 -22.5 52.5 -22.5zM183 -8l397 688h76l-399 -688h-74z
M208 339c-22.667 0 -43.667 3.66699 -63 11s-36.166 18.166 -50.499 32.499s-25.5 31.666 -33.5 51.999s-12 43.5 -12 69.5s4 49.167 12 69.5s19.167 37.5 33.5 51.5s31.166 24.833 50.499 32.5s40.333 11.5 63 11.5s43.667 -3.83301 63 -11.5s36.166 -18.5 50.499 -32.5
s25.5 -31.167 33.5 -51.5s12 -43.5 12 -69.5s-4 -49.167 -12 -69.5s-19.167 -37.666 -33.5 -51.999s-31.166 -25.166 -50.499 -32.499s-40.333 -11 -63 -11zM628 79c22.667 0 40 7.66699 52 23s18 36.333 18 63c0 28 -6 49.5 -18 64.5s-29.333 22.5 -52 22.5
c-23.333 0 -40.833 -7.5 -52.5 -22.5s-17.5 -36.5 -17.5 -64.5c0 -26.667 5.83301 -47.667 17.5 -63s29.167 -23 52.5 -23zM628 0c-22.667 0 -43.667 3.66699 -63 11s-36.166 18.166 -50.499 32.499s-25.5 31.666 -33.5 51.999s-12 43.5 -12 69.5s4 49.167 12 69.5
s19.167 37.5 33.5 51.5s31.166 24.833 50.499 32.5s40.333 11.5 63 11.5s43.667 -3.83301 63 -11.5s36 -18.5 50 -32.5s25 -31.167 33 -51.5s12 -43.5 12 -69.5s-4 -49.167 -12 -69.5s-19 -37.666 -33 -51.999s-30.667 -25.166 -50 -32.499s-40.333 -11 -63 -11z" />
    <glyph glyph-name="ampersand" unicode="&#x26;" horiz-adv-x="638" 
d="M225 547c0 -25.333 7.00293 -50.332 21.0029 -74.999l46 -85c18 -33.333 38.667 -68.833 62 -106.5s48.666 -72.834 75.999 -105.501s56.166 -59.667 86.499 -81s61.5 -32 93.5 -32v-71c-48 0 -89.667 9.5 -125 28.5s-67.333 44.5 -96 76.5s-55.834 68.833 -81.501 110.5
l-82.5 130.5c-12 18 -22.833 35.333 -32.5 52s-18.167 33.334 -25.5 50.001s-13 33.667 -17 51s-6 36 -6 56c0 22 4 41.833 12 59.5s18.833 33 32.5 46s29.667 23 48 30s38.166 10.5 59.499 10.5s40.833 -3.5 58.5 -10.5s33 -16.833 46 -29.5s23 -27.667 30 -45
s10.5 -36.333 10.5 -57c0 -34 -7.66699 -62.833 -23 -86.5s-34.5 -44.5 -57.5 -62.5s-47.833 -34.5 -74.5 -49.5s-51.5 -30.833 -74.5 -47.5s-42.167 -35.167 -57.5 -55.5s-23 -44.833 -23 -73.5c0 -36 11.167 -64.5 33.5 -85.5s53.833 -31.5 94.5 -31.5
c38.667 0 72.334 7 101.001 21s53 33 73 57s36 51.833 48 83.5s20.667 65.167 26 100.5l81 -15c-5.33301 -44 -16 -85 -32 -123s-37.833 -71.167 -65.5 -99.5s-61 -50.666 -100 -66.999s-83.5 -24.5 -133.5 -24.5c-34.667 0 -65 5.16699 -91 15.5s-47.667 24.166 -65 41.499
s-30.333 37.166 -39 59.499s-13 45.5 -13 69.5c0 37.333 7.66699 69 23 95s34.5 48.667 57.5 68s47.833 36.5 74.5 51.5s51.5 30.333 74.5 46s42.167 32.5 57.5 50.5s23 40 23 66c0 20 -6.16699 36.667 -18.5 50s-27.5 20 -45.5 20c-17.333 0 -33.333 -6 -48 -18
s-22 -31.667 -22 -59z" />
    <glyph glyph-name="quotesingle" unicode="'" horiz-adv-x="208" 
d="M79 451c-3.33301 24 -6.33301 47.334 -9 70.001c-2 19.333 -3.83301 39.666 -5.5 60.999s-2.5 40 -2.5 56v65h84v-65c0 -16 -1 -34.667 -3 -56l-6 -61l-8 -70h-50z" />
    <glyph glyph-name="parenleft" unicode="(" horiz-adv-x="360" 
d="M285 760c-46.667 -70 -79.3311 -139.164 -97.998 -207.497s-28 -139.5 -28 -213.5c0 -74.667 9.66699 -146.334 29 -215.001s51.666 -137.667 96.999 -207h-89c-20.667 32.667 -39 66.667 -55 102s-29.333 71.166 -40 107.499s-18.834 72.5 -24.501 108.5
s-8.5 70.667 -8.5 104s2.66699 67.833 8 103.5s13.5 71.667 24.5 108s24.333 72.166 40 107.499s34.167 69.333 55.5 102h89z" />
    <glyph glyph-name="parenright" unicode=")" horiz-adv-x="360" 
d="M164 760c20.667 -32.667 39.0029 -66.6699 55.0029 -102.003s29.5 -71.166 40.5 -107.499s19.167 -72.333 24.5 -108s8 -70.167 8 -103.5s-2.83301 -68 -8.5 -104s-13.834 -72.167 -24.501 -108.5s-24 -72.166 -40 -107.499s-34.333 -69.333 -55 -102h-89
c45.333 69.333 77.666 138.333 96.999 207s29 140.334 29 215.001c0 74 -9.33301 145.167 -28 213.5s-51.334 137.5 -98.001 207.5h89z" />
    <glyph glyph-name="asterisk" unicode="*" horiz-adv-x="573" 
d="M315 667l70.5 28l69.5 29l26 -75l-153 -37l98 -109l-72 -55l-69 129l-40 -65l-36 -62l-75 45l104 116l-80 16.5c-28 5.66699 -53.667 10.5 -77 14.5l27 79l143 -53c-2.66699 23.333 -5 48.333 -7 75s-4.33301 51.667 -7 75h89z" />
    <glyph glyph-name="plus" unicode="+" horiz-adv-x="681" 
d="M292 556h84v-227h234v-76h-234v-228h-84v228h-235v76h235v227z" />
    <glyph glyph-name="comma" unicode="," horiz-adv-x="286" 
d="M56 -152c11.333 18 21.667 35.667 31 53c8 15.333 15.5 31.833 22.5 49.5s11.5 34.167 13.5 49.5c-10 1.33301 -20 6 -30 14s-15 21.667 -15 41c0 16.667 5 30 15 40s24.333 15 43 15c42 0 63 -23.667 63 -71c0 -20.667 -2.66699 -40.667 -8 -60s-12 -37.5 -20 -54.5
s-16.167 -32 -24.5 -45s-15.5 -23.5 -21.5 -31.5h-69v0z" />
    <glyph glyph-name="hyphen" unicode="-" horiz-adv-x="446" 
d="M45 266v76h346v-76h-346z" />
    <glyph glyph-name="period" unicode="." horiz-adv-x="286" 
d="M205 56c0 -16.667 -6 -30.834 -18 -42.501s-27.667 -17.5 -47 -17.5c-18.667 0 -33.834 5.83301 -45.501 17.5s-17.5 25.834 -17.5 42.501c0 16 5.83301 30 17.5 42s26.834 18 45.501 18c19.333 0 35 -6 47 -18s18 -26 18 -42z" />
    <glyph glyph-name="slash" unicode="/" horiz-adv-x="300" 
d="M69 -49h-76l267 781h68z" />
    <glyph glyph-name="zero" unicode="0" horiz-adv-x="580" 
d="M290 62c104.667 0 157 91 157 273c0 98.667 -13.333 170.834 -40 216.501s-65.667 68.5 -117 68.5s-90.333 -22.833 -117 -68.5s-40 -117.834 -40 -216.501c0 -182 52.333 -273 157 -273zM290 -7c-84 0 -144.667 29.667 -182 89s-56 143.666 -56 252.999
c0 114.667 18.667 202.167 56 262.5s98 90.5 182 90.5s144.667 -30.167 182 -90.5s56 -147.833 56 -262.5c0 -109.333 -18.667 -193.666 -56 -252.999s-98 -89 -182 -89z" />
    <glyph glyph-name="one" unicode="1" horiz-adv-x="452" 
d="M73 0v68h125v529l-130 -30v65l166 53h47v-617h117v-68h-325z" />
    <glyph glyph-name="two" unicode="2" horiz-adv-x="525" 
d="M263 690c70.667 0 123.831 -17.8291 159.498 -53.4961s53.5 -82.834 53.5 -141.501c0 -22 -2.5 -42.833 -7.5 -62.5s-13.5 -39.834 -25.5 -60.501s-27.5 -42.334 -46.5 -65.001s-42.5 -48 -70.5 -76l-161 -160h311v-71h-425v62l189 193c29.333 30 53.833 56 73.5 78
s35.334 42.167 47.001 60.5s20 35.5 25 51.5s7.5 32.667 7.5 50c0 39.333 -11.5 70 -34.5 92s-54.833 33 -95.5 33c-19.333 0 -36.666 -3.33301 -51.999 -10s-28.333 -15.667 -39 -27s-19 -25 -25 -41s-9 -33 -9 -51h-89c0 27.333 4.83301 53.166 14.5 77.499
s23.834 45.5 42.501 63.5s41.167 32.167 67.5 42.5s56.166 15.5 89.499 15.5z" />
    <glyph glyph-name="three" unicode="3" horiz-adv-x="512" 
d="M452 506c0 -37.333 -8.16504 -67.8359 -24.498 -91.5029s-38.5 -42.167 -66.5 -55.5c36 -10 63.667 -28.167 83 -54.5s29 -66.166 29 -119.499c0 -60 -19.833 -107.167 -59.5 -141.5s-94.834 -51.5 -165.501 -51.5c-70 0 -122.333 17.5 -157 52.5s-52 82.167 -52 141.5
h86c0 -38.667 10.5 -69 31.5 -91s51.5 -33 91.5 -33c45.333 0 80.166 10.833 104.499 32.5s36.5 50.834 36.5 87.501c0 46 -10.5 80.667 -31.5 104s-56.5 35 -106.5 35h-92v70h92c35.333 0 64 10 86 30s33 47.667 33 83c0 38.667 -10 67.834 -30 87.501s-49 29.5 -87 29.5
c-34 0 -62.167 -10.333 -84.5 -31s-33.5 -47 -33.5 -79h-88c0 25.333 5 49 15 71s24 41.167 42 57.5s39.667 29.166 65 38.499s53.333 14 84 14c60 0 108.167 -16.167 144.5 -48.5s54.5 -78.166 54.5 -137.499z" />
    <glyph glyph-name="four" unicode="4" horiz-adv-x="511" 
d="M325 211v353l-216 -353h216zM13 200l299 484h96v-473h83v-72h-83v-139h-83v139h-312v61z" />
    <glyph glyph-name="five" unicode="5" horiz-adv-x="516" 
d="M494 227c0 -72 -18.668 -129.167 -56.001 -171.5s-92.666 -63.5 -165.999 -63.5c-36 0 -67.333 4.66699 -94 14s-48.834 22.166 -66.501 38.499s-30.667 35.5 -39 57.5s-12.5 45.667 -12.5 71h87c0 -30.667 10.667 -56.834 32 -78.501s52.333 -32.5 93 -32.5
c24 0 44.667 4.16699 62 12.5s31.5 19.833 42.5 34.5s19.167 32 24.5 52s8 41.333 8 64c0 46.667 -11.167 82.834 -33.5 108.501s-56.166 38.5 -101.499 38.5c-32.667 0 -59.334 -5.16699 -80.001 -15.5s-37.667 -26.166 -51 -47.499l-65 9l25 367h348v-70h-274l-13 -204
c11.333 9.33301 26.5 17 45.5 23s41.5 9 67.5 9c32.667 0 62.334 -4.83301 89.001 -14.5s49.5 -23.667 68.5 -42s33.667 -41 44 -68s15.5 -57.5 15.5 -91.5z" />
    <glyph glyph-name="six" unicode="6" horiz-adv-x="537" 
d="M308 617c-19.333 0 -38.3301 -4.83203 -56.9971 -14.499s-35.5 -24.834 -50.5 -45.501s-27.333 -47.334 -37 -80.001s-14.834 -71.667 -15.501 -117c4.66699 10.667 12.167 20.667 22.5 30s22 17.333 35 24s26.833 11.834 41.5 15.501s29.334 5.5 44.001 5.5
c36 0 67.167 -5.5 93.5 -16.5s48 -26.333 65 -46s29.667 -43.167 38 -70.5s12.5 -57.333 12.5 -90s-5.33301 -62.334 -16 -89.001s-25.5 -49.667 -44.5 -69s-41.333 -34.333 -67 -45s-53.5 -16 -83.5 -16c-71.333 0 -127 26.667 -167 80s-60 137.333 -60 252
c0 66 6.33301 122 19 168s30 83.5 52 112.5s48 50 78 63s62.333 19.5 97 19.5c31.333 0 58.666 -4.66699 81.999 -14s42.666 -22.333 57.999 -39s26.833 -36 34.5 -58s11.5 -45.667 11.5 -71h-90c0 32.667 -7.33301 59.334 -22 80.001s-39.334 31 -74.001 31z
M289.003 62.001c20.667 0 39 4.16699 55 12.5s29.333 19.5 40 33.5s18.834 30 24.501 48s8.5 36.667 8.5 56c0 22 -2.33301 42.333 -7 61s-12 34.834 -22 48.501s-23 24.334 -39 32.001s-35.333 11.5 -58 11.5c-23.333 0 -43.333 -3.83301 -60 -11.5
s-30.334 -18.334 -41.001 -32.001s-18.5 -29.834 -23.5 -48.501s-7.5 -39 -7.5 -61c0 -20.667 2.66699 -40 8 -58s13.333 -33.833 24 -47.5s24.167 -24.5 40.5 -32.5s35.5 -12 57.5 -12z" />
    <glyph glyph-name="seven" unicode="7" horiz-adv-x="448" 
d="M49 685h401v-49l-272 -636h-91l267 615h-305v70z" />
    <glyph glyph-name="eight" unicode="8" horiz-adv-x="525" 
d="M276 62c49.333 0 85.002 11.5 107.002 34.5s33 53.167 33 90.5c0 39.333 -10.833 68.833 -32.5 88.5s-57.5 33.167 -107.5 40.5c-50.667 -7.33301 -86.834 -20.833 -108.501 -40.5s-32.5 -49.167 -32.5 -88.5c0 -37.333 11.167 -67.5 33.5 -90.5
s58.166 -34.5 107.499 -34.5zM276.002 395c40.667 4.66699 71.168 16.5 91.501 35.5s30.5 47.5 30.5 85.5c0 30 -10.833 54.833 -32.5 74.5s-51.5 29.5 -89.5 29.5s-68 -9.83301 -90 -29.5s-33 -44.5 -33 -74.5c0 -38 10.167 -66.5 30.5 -85.5s51.166 -30.833 92.499 -35.5z
M276.003 -8c-33.333 0 -63.8301 4.66699 -91.4971 14s-51.334 22.5 -71.001 39.5s-35 37.5 -46 61.5s-16.5 50.667 -16.5 80c0 39.333 10.333 73.833 31 103.5s54 51.834 100 66.501c-38 12.667 -66 32.334 -84 59.001s-27 59 -27 97c0 26 5 49.833 15 71.5
s24 40.334 42 56.001s39.667 27.834 65 36.501s53 13 83 13s57.5 -4.33301 82.5 -13s46.5 -20.834 64.5 -36.501s32 -34.334 42 -56.001s15 -45.5 15 -71.5c0 -38 -9 -70.333 -27 -97s-46 -46.334 -84 -59.001c46 -14.667 79.333 -36.834 100 -66.501s31 -64.167 31 -103.5
c0 -29.333 -5.5 -56 -16.5 -80s-26.333 -44.5 -46 -61.5s-43.334 -30.167 -71.001 -39.5s-57.834 -14 -90.501 -14z" />
    <glyph glyph-name="nine" unicode="9" horiz-adv-x="549" 
d="M270 64c22.667 0 42.6699 4.66699 60.0029 14s32 24 44 44s21.167 46 27.5 78s9.5 71 9.5 117c-5.33301 -11.333 -13 -21.333 -23 -30s-21.667 -16 -35 -22s-27.5 -10.667 -42.5 -14s-29.833 -5 -44.5 -5c-36 0 -66.833 5.5 -92.5 16.5s-46.834 26.333 -63.501 46
s-28.834 43.167 -36.501 70.5s-11.5 57.333 -11.5 90s5.16699 62.334 15.5 89.001s24.666 49.667 42.999 69s40.166 34.333 65.499 45s53 16 83 16c41.333 0 76.5 -7.5 105.5 -22.5s52.5 -37 70.5 -66s31.167 -64.667 39.5 -107s12.5 -90.5 12.5 -144.5
c0 -64 -5.33301 -118.5 -16 -163.5s-25.834 -81.667 -45.501 -110s-43.5 -49 -71.5 -62s-59.333 -19.5 -94 -19.5c-31.333 0 -59.166 4.66699 -83.499 14s-44.833 22.333 -61.5 39s-29.167 36 -37.5 58s-12.5 45.667 -12.5 71h90c0 -32.667 8.83301 -59.334 26.5 -80.001
s43.834 -31 78.501 -31zM269.003 619c-20.667 0 -38.667 -4.16699 -54 -12.5s-28.166 -19.5 -38.499 -33.5s-18 -30 -23 -48s-7.5 -36.667 -7.5 -56c0 -22 2 -42.333 6 -61s10.667 -34.834 20 -48.501s21.666 -24.334 36.999 -32.001s34.333 -11.5 57 -11.5
c23.333 0 43.5 3.83301 60.5 11.5s31 18.334 42 32.001s19 29.834 24 48.501s7.5 39 7.5 61c0 20.667 -2.66699 40 -8 58s-13.5 33.833 -24.5 47.5s-24.667 24.5 -41 32.5s-35.5 12 -57.5 12z" />
    <glyph glyph-name="colon" unicode=":" horiz-adv-x="299" 
d="M212 81c0 -16.667 -6 -30.834 -18 -42.501s-27.667 -17.5 -47 -17.5s-34.833 5.83301 -46.5 17.5s-17.5 25.834 -17.5 42.501c0 16 5.83301 29.833 17.5 41.5s27.167 17.5 46.5 17.5s35 -5.83301 47 -17.5s18 -25.5 18 -41.5zM212 360c0 -16 -6 -30.167 -18 -42.5
s-27.667 -18.5 -47 -18.5s-34.833 6.16699 -46.5 18.5s-17.5 26.5 -17.5 42.5c0 15.333 5.83301 29.166 17.5 41.499s27.167 18.5 46.5 18.5s35 -6.16699 47 -18.5s18 -26.166 18 -41.499z" />
    <glyph glyph-name="semicolon" unicode=";" horiz-adv-x="300" 
d="M65 -152c11.333 18 21.667 35.667 31 53c8 15.333 15.667 31.833 23 49.5s12 34.167 14 49.5c-10.667 1.33301 -21 6 -31 14s-15 21.667 -15 41c0 16.667 5 30 15 40s24.667 15 44 15c42 0 63 -23.667 63 -71c0 -23.333 -2.66699 -45 -8 -65s-12 -38 -20 -54
s-16.333 -30 -25 -42l-22 -30h-69zM212.001 360c0 -16 -6.33301 -30.167 -19 -42.5s-28 -18.5 -46 -18.5c-19.333 0 -34.833 6.16699 -46.5 18.5s-17.5 26.5 -17.5 42.5c0 15.333 5.83301 29.166 17.5 41.499s27.167 18.5 46.5 18.5c18 0 33.333 -6.16699 46 -18.5
s19 -26.166 19 -41.499z" />
    <glyph glyph-name="less" unicode="&#x3c;" horiz-adv-x="650" 
d="M602 -13l-568 252v66l568 253v-80l-459 -205l459 -205v-81z" />
    <glyph glyph-name="equal" unicode="=" horiz-adv-x="516" 
d="M473 337h-441v74h441v-74zM473 135h-441v73h441v-73z" />
    <glyph glyph-name="greater" unicode="&#x3e;" horiz-adv-x="650" 
d="M34 68l460 205l-460 205v80l568 -253v-66l-568 -252v81z" />
    <glyph glyph-name="question" unicode="?" horiz-adv-x="441" 
d="M212 614c-32.667 0 -59.0029 -9.99805 -79.0029 -29.998s-30 -48 -30 -84h-90c0 26 4.5 50.667 13.5 74s22 43.666 39 60.999s37.833 31.166 62.5 41.499s52.667 15.5 84 15.5c60.667 0 108.334 -15.5 143.001 -46.5s52 -76.833 52 -137.5
c0 -25.333 -4.16699 -47 -12.5 -65s-18.666 -33.833 -30.999 -47.5s-25.833 -26 -40.5 -37s-28.167 -22.333 -40.5 -34s-22.666 -24.334 -30.999 -38.001s-12.5 -30.167 -12.5 -49.5v-36h-80v36c0 26 4 48.5 12 67.5s18 36 30 51s25.167 28.333 39.5 40
s27.5 23.167 39.5 34.5s22 23.333 30 36s12 27.334 12 44.001c0 33.333 -9.16699 59 -27.5 77s-45.833 27 -82.5 27zM254.997 55.002c0 -16.667 -5.16699 -30.667 -15.5 -42s-25.166 -17 -44.499 -17c-18 0 -32.333 5.66699 -43 17s-16 25.333 -16 42
c0 16 5.33301 29.667 16 41s25 17 43 17c19.333 0 34.166 -5.66699 44.499 -17s15.5 -25 15.5 -41z" />
    <glyph glyph-name="at" unicode="@" horiz-adv-x="863" 
d="M526 424c-9.33301 4.66699 -21.166 7.66797 -35.499 9.00098s-25.833 2 -34.5 2c-18 0 -34.833 -3 -50.5 -9s-29.334 -15.5 -41.001 -28.5s-21 -30 -28 -51s-10.5 -46.833 -10.5 -77.5c0 -50.667 7.16699 -86.334 21.5 -107.001s35.833 -31 64.5 -31
c15.333 0 30 3.16699 44 9.5s26.167 14.666 36.5 24.999s18.5 22.333 24.5 36s9 27.834 9 42.501v180zM666 -68.999c-18.667 -7.33301 -39.6729 -13.6631 -63.0059 -18.9961c-20 -5.33301 -44 -9.83301 -72 -13.5s-59 -5.5 -93 -5.5c-62.667 0 -118 9.16699 -166 27.5
s-88.333 44.166 -121 77.499s-57.334 73.833 -74.001 121.5s-25 100.5 -25 158.5c0 66 10.167 124.833 30.5 176.5s48.333 95.334 84 131.001s77.834 62.667 126.501 81s101 27.5 157 27.5c58 0 109.5 -9 154.5 -27s83 -42.833 114 -74.5s54.667 -68.667 71 -111
s24.5 -87.5 24.5 -135.5c0 -89.333 -14.833 -155 -44.5 -197s-70.5 -63 -122.5 -63c-28.667 0 -50.667 6 -66 18s-25.666 26.333 -30.999 43h-5c-9.33301 -25.333 -26.5 -45.5 -51.5 -60.5s-54.167 -22.5 -87.5 -22.5c-62.667 0 -107.167 18 -133.5 54
s-39.5 86.333 -39.5 151c0 35.333 5.66699 67.833 17 97.5s27 55.167 47 76.5s43.833 38 71.5 50s57.834 18 90.501 18c22 0 47 -3.5 75 -10.5s52.667 -16.167 74 -27.5v-262c0 -20.667 4.33301 -35 13 -43s19.334 -12 32.001 -12c11.333 0 22.166 3.33301 32.499 10
s19.333 17.5 27 32.5s13.834 34.667 18.501 59s7 54.166 7 89.499c0 40 -6.83301 77.167 -20.5 111.5s-33 64.166 -58 89.499s-55.167 45.166 -90.5 59.499s-74.666 21.5 -117.999 21.5c-48.667 0 -92.667 -8.83301 -132 -26.5s-73 -42 -101 -73s-49.667 -67.833 -65 -110.5
s-23 -89.334 -23 -140.001c0 -105.333 27.333 -184 82 -236s130.334 -78 227.001 -78c26.667 0 53.334 1.66699 80.001 5s51 7.33301 73 12c25.333 5.33301 50 11.333 74 18v-69z" />
    <glyph glyph-name="A" unicode="A" horiz-adv-x="604" 
d="M433 177h-265l-61 -177h-94l240 684h98l240 -684h-98zM194 252h213l-105 312z" />
    <glyph glyph-name="B" unicode="B" horiz-adv-x="598" 
d="M168 610l0.000976562 -228.999h143c33.333 0 60.666 10.667 81.999 32s32 49.666 32 84.999c0 30.667 -8.5 57 -25.5 79s-45.833 33 -86.5 33h-145zM168.001 311.001v-237h161c82 0 123 38.667 123 116c0 39.333 -10.833 69.333 -32.5 90s-57.167 31 -106.5 31h-145z
M516.001 498.001c0 -16 -2.5 -31.667 -7.5 -47s-11.667 -29.5 -20 -42.5s-18.333 -24.5 -30 -34.5s-24.167 -17.333 -37.5 -22c37.333 -7.33301 67.5 -24.333 90.5 -51s34.5 -64.667 34.5 -114c0 -29.333 -5.5 -55.5 -16.5 -78.5s-26.333 -42.5 -46 -58.5
s-42.667 -28.333 -69 -37s-54.833 -13 -85.5 -13h-251v684h235c36.667 0 67.834 -4.83301 93.501 -14.5s46.667 -23 63 -40s28.166 -36.667 35.499 -59s11 -46.5 11 -72.5z" />
    <glyph glyph-name="C" unicode="C" horiz-adv-x="598" 
d="M559 183c-6.66699 -64 -29.8311 -111.835 -69.498 -143.502s-94.5 -47.5 -164.5 -47.5c-45.333 0 -85 8.33301 -119 25s-62.5 40 -85.5 70s-40.167 66 -51.5 108s-17 88.333 -17 139c0 54 5.66699 102.833 17 146.5s28.333 80.834 51 111.501s51.167 54.334 85.5 71.001
s74.166 25 119.499 25c141.333 0 218 -62.667 230 -188h-94c-4.66699 32 -18 58.5 -40 79.5s-54 31.5 -96 31.5c-59.333 0 -104 -23.333 -134 -70s-45 -115.667 -45 -207c0 -82.667 15 -147.167 45 -193.5s74.667 -69.5 134 -69.5c43.333 0 76.166 10.333 98.499 31
s35.833 47.667 40.5 81h95z" />
    <glyph glyph-name="D" unicode="D" horiz-adv-x="630" 
d="M274 73c30 0 57.5 5.66504 82.5 16.998s46.5 28.333 64.5 51s32 50.334 42 83.001s15 70.667 15 114c0 46.667 -5 87.167 -15 121.5s-24 62.833 -42 85.5s-39.5 39.334 -64.5 50.001s-52.5 16 -82.5 16h-106v-538h106zM274 683.998c43.333 0 83.333 -7.5 120 -22.5
s68.167 -37.167 94.5 -66.5s46.833 -65.5 61.5 -108.5s22 -92.5 22 -148.5c0 -52.667 -7.33301 -100 -22 -142s-35.334 -77.5 -62.001 -106.5s-58.167 -51.167 -94.5 -66.5s-76.166 -23 -119.499 -23h-196v684h196z" />
    <glyph glyph-name="E" unicode="E" horiz-adv-x="513" 
d="M168 73h310v-73h-400v684h398v-73h-308v-222h273v-73h-273v-243z" />
    <glyph glyph-name="F" unicode="F" horiz-adv-x="513" 
d="M168 0h-90v684h404v-73h-314v-230h273v-73h-273v-308z" />
    <glyph glyph-name="G" unicode="G" horiz-adv-x="614" 
d="M465 0l0.00292969 60.9971c-5.33301 -8.66699 -13 -17.167 -23 -25.5s-21.5 -15.666 -34.5 -21.999s-27.167 -11.5 -42.5 -15.5s-31 -6 -47 -6c-43.333 0 -81.5 8.33301 -114.5 25s-60.667 40 -83 70s-39.333 66 -51 108s-17.5 88.333 -17.5 139c0 54 6 102.833 18 146.5
s29.667 80.834 53 111.501s52 54.334 86 71.001s72.667 25 116 25c70.667 0 125.167 -17.333 163.5 -52s60.5 -80 66.5 -136h-94c-4.66699 32 -18.334 58.5 -41.001 79.5s-54.334 31.5 -95.001 31.5c-59.333 0 -103.833 -23.333 -133.5 -70s-44.5 -115.667 -44.5 -207
c0 -82 13.667 -146.333 41 -193s70.666 -70 129.999 -70c48 0 84.5 12.667 109.5 38s37.5 58 37.5 98v85h-132v73h219v-365h-87z" />
    <glyph glyph-name="H" unicode="H" horiz-adv-x="640" 
d="M472 390v294h90v-684h-90v316h-304v-316h-90v684h90v-294h304z" />
    <glyph glyph-name="I" unicode="I" horiz-adv-x="300" 
d="M195 0h-90v684h90v-684z" />
    <glyph glyph-name="J" unicode="J" horiz-adv-x="521" 
d="M357 684l90 0.00195312v-516c0 -26 -3.83301 -49.833 -11.5 -71.5s-19.834 -40.334 -36.501 -56.001s-38 -27.834 -64 -36.501s-57.333 -13 -94 -13c-70.667 0 -122 17.833 -154 53.5s-48 83.5 -48 143.5h90c0 -39.333 8.66699 -69.833 26 -91.5s46 -32.5 86 -32.5
c22.667 0 41.334 2.66699 56.001 8s26.5 12.666 35.5 21.999s15.333 20.333 19 33s5.5 26.334 5.5 41.001v516z" />
    <glyph glyph-name="K" unicode="K" horiz-adv-x="597" 
d="M454 0l-194 317l-92 -67v-250h-90v684h90v-340l83 60l201 280h103l-227 -316l226 -368h-100z" />
    <glyph glyph-name="L" unicode="L" horiz-adv-x="494" 
d="M168 73h313v-73h-403v684h90v-611z" />
    <glyph glyph-name="M" unicode="M" horiz-adv-x="741" 
d="M579 684h84v-684h-90v500l-166 -310h-74l-165 310v-500h-90v684h86l205 -384z" />
    <glyph glyph-name="N" unicode="N" horiz-adv-x="650" 
d="M78 0v684h87l317 -519v519h90v-684h-87l-317 516v-516h-90z" />
    <glyph glyph-name="O" unicode="O" horiz-adv-x="647" 
d="M324 68c59.333 0 103.666 22.333 132.999 67s44 111 44 199c0 96.667 -14.667 167.167 -44 211.5s-73.666 66.5 -132.999 66.5c-60 0 -104.667 -22.167 -134 -66.5s-44 -114.833 -44 -211.5c0 -88 14.667 -154.333 44 -199s74 -67 134 -67zM324 -8
c-88.667 0 -156.167 29.668 -202.5 89.001s-69.5 143.666 -69.5 252.999c0 112 22 199 66 261s112.667 93 206 93c92.667 0 161 -31 205 -93s66 -149 66 -261c0 -110 -23 -194.5 -69 -253.5s-113.333 -88.5 -202 -88.5z" />
    <glyph glyph-name="P" unicode="P" horiz-adv-x="584" 
d="M168 611v-293.999h109c64 0 110 11.667 138 35s42 59.666 42 108.999c0 52 -12.5 90 -37.5 114s-67.833 36 -128.5 36h-123zM168 244.001v-244.001h-90v684h213c91.333 0 157.166 -19.5 197.499 -58.5s60.5 -93.833 60.5 -164.5c0 -32 -5 -61.167 -15 -87.5
s-25.833 -49.166 -47.5 -68.499s-49.667 -34.333 -84 -45s-76.166 -16 -125.499 -16h-109z" />
    <glyph glyph-name="Q" unicode="Q" horiz-adv-x="643" 
d="M300 -7c-81.333 5.33301 -142.999 37.332 -184.999 95.999s-63 140.334 -63 245.001c0 112 22 199 66 261s112.667 93 206 93c92.667 0 161 -31 205 -93s66 -149 66 -261c0 -94.667 -17.333 -170.5 -52 -227.5s-85.334 -92.833 -152.001 -107.5l70 -136h-100z
M324.001 67.999c59.333 0 103.666 22.333 132.999 67s44 111 44 199c0 96.667 -14.667 167.167 -44 211.5s-73.666 66.5 -132.999 66.5c-60 0 -104.667 -22.167 -134 -66.5s-44 -114.833 -44 -211.5c0 -88 14.667 -154.333 44 -199s74 -67 134 -67z" />
    <glyph glyph-name="R" unicode="R" horiz-adv-x="597" 
d="M305 684c42 0 78 -5.5 108 -16.5s54.5 -26 73.5 -45s33 -41 42 -66s13.5 -51.5 13.5 -79.5c0 -24.667 -3.83301 -47.5 -11.5 -68.5s-18 -39.5 -31 -55.5s-28.667 -29.5 -47 -40.5s-37.833 -18.833 -58.5 -23.5l155 -289h-98l-146 273h-137v-273h-90v684h227zM168 346h137
c47.333 0 83 11.667 107 35s36 55.333 36 96c0 44 -11.167 77.333 -33.5 100s-58.833 34 -109.5 34h-137v-265z" />
    <glyph glyph-name="S" unicode="S" horiz-adv-x="615" 
d="M315 64c44 0.666992 79.6699 10.8359 107.003 30.5029s41 47.167 41 82.5c0 28.667 -9.5 51.5 -28.5 68.5s-43 31.5 -72 43.5s-60.167 23 -93.5 33s-64.5 22.5 -93.5 37.5s-53 34.167 -72 57.5s-28.5 54.333 -28.5 93c0 25.333 5.33301 48.833 16 70.5
s26.167 40.334 46.5 56.001s44.833 27.834 73.5 36.501s61 13 97 13c70.667 0 125.334 -16.5 164.001 -49.5s58 -79.5 58 -139.5h-91c0 38 -11.5 67.167 -34.5 87.5s-55.167 30.5 -96.5 30.5c-24.667 0 -46 -2.83301 -64 -8.5s-32.667 -13.167 -44 -22.5
s-19.833 -20.333 -25.5 -33s-8.5 -26.334 -8.5 -41.001c0 -20 5.5 -36.667 16.5 -50s25.667 -25 44 -35s39.166 -18.667 62.499 -26l71.5 -23c24.333 -8 48.166 -17 71.499 -27s44.166 -22.333 62.499 -37s33 -32.334 44 -53.001s16.5 -46 16.5 -76
c0 -28 -5.5 -53.667 -16.5 -77s-26.833 -43.5 -47.5 -60.5s-45.834 -30.167 -75.501 -39.5s-63.167 -14 -100.5 -14c-86 0 -148.667 17.167 -188 51.5s-59 88.166 -59 161.499h91c0 -24 2.5 -44.833 7.5 -62.5s13.5 -32.334 25.5 -44.001s28 -20.334 48 -26.001
s45 -8.5 75 -8.5z" />
    <glyph glyph-name="T" unicode="T" horiz-adv-x="504" 
d="M297 0h-90v611h-199v73h488v-73h-199v-611z" />
    <glyph glyph-name="U" unicode="U" horiz-adv-x="673" 
d="M337 -8c-39.333 0 -74.999 5.66699 -106.999 17s-59.333 28 -82 50s-40 49.333 -52 82s-18 70 -18 112v431h90v-431c0 -64 15.167 -110.333 45.5 -139s71.5 -43 123.5 -43s93 14.333 123 43s45 75 45 139v431h90v-431c0 -42 -6 -79.333 -18 -112s-29.333 -60 -52 -82
s-49.834 -38.667 -81.501 -50s-67.167 -17 -106.5 -17z" />
    <glyph glyph-name="V" unicode="V" horiz-adv-x="604" 
d="M486 684h100l-232 -684h-99l-237 684h99l186 -571z" />
    <glyph glyph-name="W" unicode="W" horiz-adv-x="822" 
d="M454 684l122 -516l127 516h99l-172 -684h-100l-119 512l-119 -512h-101l-172 684h99l129 -519l121 519h86z" />
    <glyph glyph-name="X" unicode="X" horiz-adv-x="560" 
d="M18 684h109l150 -271l148 271h109l-200 -346l221 -338h-110l-168 264l-165 -264h-107l216 339z" />
    <glyph glyph-name="Y" unicode="Y" horiz-adv-x="577" 
d="M290 369l171 315h102l-228 -402v-282h-92v282l-227 402h101l172 -315h1z" />
    <glyph glyph-name="Z" unicode="Z" horiz-adv-x="541" 
d="M383 610h-334v74h436v-70l-326 -541h332v-73h-439v65z" />
    <glyph glyph-name="bracketleft" unicode="[" horiz-adv-x="360" 
d="M302 750v-57h-132v-709h132v-58h-220v824h220z" />
    <glyph glyph-name="backslash" unicode="\" horiz-adv-x="300" 
d="M-27 760h84l264 -770h-88z" />
    <glyph glyph-name="bracketright" unicode="]" horiz-adv-x="360" 
d="M52 -74v58h131v709h-131v57h220v-824h-220z" />
    <glyph glyph-name="asciicircum" unicode="^" horiz-adv-x="610" 
d="M333 705l222 -424h-92l-167 317l-81 -159l-80 -158h-93l222 424h69z" />
    <glyph glyph-name="underscore" unicode="_" horiz-adv-x="636" 
d="M-7 -148v79h635v-79h-635z" />
    <glyph glyph-name="grave" unicode="`" horiz-adv-x="225" 
d="M109 710l83 -139h-79l-113 139h109z" />
    <glyph glyph-name="a" unicode="a" horiz-adv-x="536" 
d="M452 130c0 -26 3.16797 -44.6689 9.50098 -56.002s21.166 -17 44.499 -17v-58c-6 -1.33301 -13.667 -2.16602 -23 -2.49902s-16.666 -0.5 -21.999 -0.5c-52.667 0 -81 28.667 -85 86c-4 -12 -10.5 -23.5 -19.5 -34.5s-20.167 -20.667 -33.5 -29
s-29.333 -15.166 -48 -20.499s-39.334 -8 -62.001 -8c-54.667 0 -97.5 13.667 -128.5 41s-46.5 64.333 -46.5 111c0 26.667 5 49.5 15 68.5s23.833 34.833 41.5 47.5s38.834 22 63.501 28s52 9 82 9h125v46c0 32 -9.5 57 -28.5 75s-47.5 27 -85.5 27
c-22 0 -40.333 -2.83301 -55 -8.5s-26.5 -13 -35.5 -22s-15.5 -19.5 -19.5 -31.5s-6 -24.333 -6 -37h-86c0 22.667 3.83301 44.167 11.5 64.5s19.834 38 36.501 53s37.667 27 63 36s55.666 13.5 90.999 13.5c65.333 0 115.166 -15.333 149.499 -46s51.5 -72 51.5 -124v-211z
M365.001 226.998h-125c-46 0 -77.833 -8 -95.5 -24s-26.5 -36 -26.5 -60s7.83301 -44.333 23.5 -61s41.167 -25 76.5 -25c24 0 45 4 63 12s33.333 18.5 46 31.5s22.167 28 28.5 45s9.5 34.5 9.5 52.5v29z" />
    <glyph glyph-name="b" unicode="b" horiz-adv-x="586" 
d="M74 714h82.999v-263c13.333 17.333 33.5 31.666 60.5 42.999s56.167 17 87.5 17c73.333 0 129.166 -22.667 167.499 -68s57.5 -109.666 57.5 -192.999s-19.167 -147.5 -57.5 -192.5s-94.166 -67.5 -167.499 -67.5c-61.333 0 -110.666 19.667 -147.999 59v-49h-83v714z
M297.999 57c98.667 0 148 64.333 148 193s-49.333 193 -148 193c-43.333 0 -77.666 -16 -102.999 -48s-38 -80.333 -38 -145s12.667 -113 38 -145s59.666 -48 102.999 -48z" />
    <glyph glyph-name="c" unicode="c" horiz-adv-x="515" 
d="M265 57c37.333 0 67.001 9.00098 89.001 27.001s33 42 33 72h86c0 -24.667 -4.83301 -47.167 -14.5 -67.5s-23.5 -37.833 -41.5 -52.5s-39.833 -26 -65.5 -34s-54.5 -12 -86.5 -12c-80 0 -139 23.5 -177 70.5s-57 110.5 -57 190.5c0 84.667 20 149.167 60 193.5
s98.333 66.5 175 66.5c64.667 0 115.5 -13.833 152.5 -41.5s55.5 -69.5 55.5 -125.5h-84c0 36 -11.167 61.5 -33.5 76.5s-52.5 22.5 -90.5 22.5c-46.667 0 -83.334 -14.833 -110.001 -44.5s-40 -78.834 -40 -147.501c0 -64.667 12.667 -113.167 38 -145.5
s62.333 -48.5 111 -48.5z" />
    <glyph glyph-name="d" unicode="d" horiz-adv-x="588" 
d="M502 0l-85 0.000976562v56c-14 -19.333 -34.667 -35.166 -62 -47.499s-56.333 -18.5 -87 -18.5c-72.667 0 -128.167 22.5 -166.5 67.5s-57.5 109.167 -57.5 192.5s19.167 147.666 57.5 192.999s93.833 68 166.5 68c36 0 66 -5.83301 90 -17.5s43.667 -25.834 59 -42.501
v263h85v-714zM276 57.001c44 0 78.5 16 103.5 48s37.5 80.333 37.5 145s-12.5 113 -37.5 145s-59.5 48 -103.5 48c-48 0 -84.5 -16 -109.5 -48s-37.5 -80.333 -37.5 -145s12.5 -113 37.5 -145s61.5 -48 109.5 -48z" />
    <glyph glyph-name="e" unicode="e" horiz-adv-x="521" 
d="M259 57c39.333 0 69.0029 9.00195 89.0029 27.002s30 42 30 72h86c0 -50 -17.667 -90.167 -53 -120.5s-86 -45.5 -152 -45.5c-35.333 0 -67.166 5.16699 -95.499 15.5s-52.333 26.166 -72 47.499s-34.834 48.333 -45.501 81s-16 71.667 -16 117
c0 84.667 20 149.167 60 193.5s96.667 66.5 170 66.5c35.333 0 66.166 -6.33301 92.499 -19s48.166 -29.834 65.499 -51.501s30.166 -47.167 38.499 -76.5s12.5 -60.666 12.5 -93.999v-20c0 -6.66699 -0.333008 -13.334 -1 -20.001h-354c2 -60.667 15.667 -104.667 41 -132
s60 -41 104 -41zM386.003 298.002c0 46 -10.5029 81.666 -31.5029 106.999s-53.5 38 -97.5 38c-24 0 -44.667 -3.83301 -62 -11.5s-31.666 -18.167 -42.999 -31.5s-20.166 -28.666 -26.499 -45.999s-10.166 -36 -11.499 -56h272z" />
    <glyph glyph-name="f" unicode="f" horiz-adv-x="321" 
d="M192 435l0.00195312 -434.999h-84v435h-89v65h89v80c0 42 12.667 76.5 38 103.5s61.666 40.5 108.999 40.5c11.333 0 23.5 -0.833008 36.5 -2.5s24.167 -3.83398 33.5 -6.50098v-69c-12.667 4 -24.834 6.66699 -36.501 8s-22.167 2 -31.5 2
c-20.667 0 -36.667 -6.33301 -48 -19s-17 -31.667 -17 -57v-80h111v-65h-111z" />
    <glyph glyph-name="g" unicode="g" horiz-adv-x="578" 
d="M213 140c-11.333 0 -20.8359 -2.66602 -28.5029 -7.99902s-11.5 -14.333 -11.5 -27c0 -9.33301 2.83301 -17 8.5 -23s14.167 -9 25.5 -9h139c22.667 0 43.834 -3.16699 63.501 -9.5s36.667 -15.5 51 -27.5s25.5 -26.667 33.5 -44s12 -37.333 12 -60v-7
c0 -50.667 -20 -89.834 -60 -117.501s-96.333 -41.5 -169 -41.5c-42.667 0 -78.667 3.5 -108 10.5s-53.166 16.833 -71.499 29.5s-31.666 28.167 -39.999 46.5s-12.5 39.166 -12.5 62.499v10c0 26.667 8 49.167 24 67.5s34.667 30.5 56 36.5
c-9.33301 6.66699 -17.166 15.5 -23.499 26.5s-9.5 24.833 -9.5 41.5s5.33301 31.667 16 45s23.667 22 39 26c-25.333 10 -47 28.5 -65 55.5s-27 61.167 -27 102.5c0 28 5.16699 53.5 15.5 76.5s24.833 42.5 43.5 58.5s41 28.333 67 37s54.333 13 85 13h244v-66h-32
c-6 0 -12.167 0.166992 -18.5 0.5s-12.166 0.833008 -17.499 1.5c-6.66699 0.666992 -12.667 1.66699 -18 3c15.333 -11.333 28.833 -27.333 40.5 -48s17.5 -46 17.5 -76c0 -27.333 -4.33301 -52.333 -13 -75s-21.834 -42.167 -39.501 -58.5
s-39.834 -29.166 -66.501 -38.499s-58 -14 -94 -14h-56zM268.997 445.001c-40 0 -71.5 -10.5 -94.5 -31.5s-34.5 -50.167 -34.5 -87.5c0 -38 11.5 -67.333 34.5 -88s54.5 -31 94.5 -31c40.667 0 72.334 10.333 95.001 31s34 50 34 88c0 37.333 -11.333 66.5 -34 87.5
s-54.334 31.5 -95.001 31.5zM129.997 -84.999c0 -23.333 10.667 -42.333 32 -57s59.666 -22 114.999 -22c96 0 144 29.667 144 89v7c0 24 -6.66699 41.833 -20 53.5s-32.666 17.5 -57.999 17.5h-131c-24 0 -43.667 -8 -59 -24s-23 -34 -23 -54v-10z" />
    <glyph glyph-name="h" unicode="h" horiz-adv-x="582" 
d="M78 0l0.000976562 713.999h84v-273c15.333 22 35.166 39.167 59.499 51.5s54.833 18.5 91.5 18.5c34.667 0 63.667 -5 87 -15s42.333 -23.833 57 -41.5s25.167 -38.334 31.5 -62.001s9.5 -49.5 9.5 -77.5v-315h-86v312c0 87.333 -37.667 131 -113 131
c-19.333 0 -37.333 -2.66699 -54 -8s-31.167 -13.166 -43.5 -23.499s-22 -23.166 -29 -38.499s-10.5 -33 -10.5 -53v-320h-84z" />
    <glyph glyph-name="i" unicode="i" horiz-adv-x="244" 
d="M162 0h-84v500h84v-500zM78 607v88h84v-88h-84z" />
    <glyph glyph-name="j" unicode="j" horiz-adv-x="235" 
d="M-33 -107c9.33301 -2.66699 18.667 -4.33398 28 -5.00098s19.333 -1 30 -1c14 0 25.167 3.66699 33.5 11s12.5 20 12.5 38v564h86v-560c0 -41.333 -12 -72.166 -36 -92.499s-56 -30.5 -96 -30.5c-24.667 0 -44 2.33301 -58 7v69zM71.001 607v88h86v-88h-86z" />
    <glyph glyph-name="k" unicode="k" horiz-adv-x="529" 
d="M78 0v714h84v-415h55l178 201h102l-208 -232l221 -268h-103l-193 233h-52v-233h-84z" />
    <glyph glyph-name="l" unicode="l" horiz-adv-x="286" 
d="M157 113c0 -21.333 2.66602 -35.167 7.99902 -41.5s13 -9.5 23 -9.5c8 0 16.167 0.333008 24.5 1s16.5 1.66699 24.5 3v-62c-8 -2 -17.167 -4 -27.5 -6s-21.833 -3 -34.5 -3c-31.333 0 -56.166 8.5 -74.499 25.5s-27.5 44.833 -27.5 83.5v610h84v-601z" />
    <glyph glyph-name="m" unicode="m" horiz-adv-x="880" 
d="M81 0l0.00195312 500h84v-53c12.667 19.333 30.334 34.833 53.001 46.5s49.667 17.5 81 17.5c37.333 0 67.666 -8.5 90.999 -25.5s39.333 -38.5 48 -64.5c4.66699 12 12 23.333 22 34s22 20.167 36 28.5s30 15 48 20s37.333 7.5 58 7.5c62.667 0 108.667 -16 138 -48
s44 -76.333 44 -133v-330h-89v329c0 33.333 -8.33301 61.166 -25 83.499s-43.334 33.5 -80.001 33.5c-34.667 0 -62.334 -11.167 -83.001 -33.5s-31 -50.166 -31 -83.499v-329h-86v329c0 33.333 -9.33301 61.166 -28 83.499s-45 33.5 -79 33.5c-16 0 -31.167 -3 -45.5 -9
s-26.833 -14.167 -37.5 -24.5s-19.167 -22.666 -25.5 -36.999s-9.5 -29.833 -9.5 -46.5v-329h-84z" />
    <glyph glyph-name="n" unicode="n" horiz-adv-x="582" 
d="M78 0l0.000976562 499.999h84v-59c15.333 22 35.166 39.167 59.499 51.5s54.833 18.5 91.5 18.5c34.667 0 63.667 -5 87 -15s42.333 -23.833 57 -41.5s25.167 -38.334 31.5 -62.001s9.5 -49.5 9.5 -77.5v-315h-86v312c0 87.333 -37.667 131 -113 131
c-19.333 0 -37.333 -2.66699 -54 -8s-31.167 -13.166 -43.5 -23.499s-22 -23.166 -29 -38.499s-10.5 -33 -10.5 -53v-320h-84z" />
    <glyph glyph-name="o" unicode="o" horiz-adv-x="532" 
d="M261 446c-46 0 -81.667 -15.5 -107 -46.5s-38 -80.5 -38 -148.5c0 -68.667 12.667 -118.334 38 -149.001s61 -46 107 -46c45.333 0 80.5 15.333 105.5 46s37.5 80.334 37.5 149.001c0 68 -12.5 117.5 -37.5 148.5s-60.167 46.5 -105.5 46.5zM261 511
c75.333 0 132.166 -22 170.499 -66s57.5 -108.667 57.5 -194s-19.167 -150.166 -57.5 -194.499s-95.166 -66.5 -170.499 -66.5c-76 0 -133.333 22.167 -172 66.5s-58 109.166 -58 194.499s19.333 150 58 194s96 66 172 66z" />
    <glyph glyph-name="p" unicode="p" horiz-adv-x="586" 
d="M74 500h83v-50c12.667 15.333 32 29.333 58 42s56 19 90 19c73.333 0 129.166 -22.5 167.499 -67.5s57.5 -109.167 57.5 -192.5c0 -84 -19.167 -148.5 -57.5 -193.5s-94.166 -67.5 -167.499 -67.5c-36 0 -66 5.5 -90 16.5s-43.333 25.833 -58 44.5v-233h-83v682zM298 443
c-43.333 0 -77.666 -16 -102.999 -48s-38 -80 -38 -144c0 -64.667 12.667 -113.167 38 -145.5s59.666 -48.5 102.999 -48.5c98.667 0 148 64.667 148 194c0 128 -49.333 192 -148 192z" />
    <glyph glyph-name="q" unicode="q" horiz-adv-x="578" 
d="M491 -182l-83 -0.000976562v233c-14 -17.333 -32.5 -31.833 -55.5 -43.5s-54.167 -17.5 -93.5 -17.5c-72.667 0 -128.334 22.5 -167.001 67.5s-58 109.5 -58 193.5c0 83.333 19.333 147.5 58 192.5s94.334 67.5 167.001 67.5c38 0 69 -6.16699 93 -18.5
s42.667 -26.166 56 -41.499v49h83v-682zM266 442.999c-48 0 -84.667 -16 -110 -48s-38 -80 -38 -144c0 -64.667 12.667 -113.167 38 -145.5s62 -48.5 110 -48.5c43.333 0 77.833 16.167 103.5 48.5s38.5 80.833 38.5 145.5c0 64 -12.833 112 -38.5 144s-60.167 48 -103.5 48
z" />
    <glyph glyph-name="r" unicode="r" horiz-adv-x="355" 
d="M70 0v500.001h87v-76h2c11.333 27.333 28.5 48.666 51.5 63.999s49.833 23 80.5 23h56v-76h-56c-16 0 -32 -3.66699 -48 -11s-30.333 -18 -43 -32s-23 -30.833 -31 -50.5s-12 -41.5 -12 -65.5v-276h-87z" />
    <glyph glyph-name="s" unicode="s" horiz-adv-x="478" 
d="M233 443c-28 0 -51.501 -6.50195 -70.501 -19.502s-28.5 -31.167 -28.5 -54.5c0 -20 7.5 -35.167 22.5 -45.5s33.5 -18.666 55.5 -24.999s46.167 -12.166 72.5 -17.499s50.5 -13.166 72.5 -23.499s40.5 -24.666 55.5 -42.999s22.5 -43.833 22.5 -76.5
c0 -23.333 -5.16699 -44.166 -15.5 -62.499s-24.333 -33.833 -42 -46.5s-38.5 -22.334 -62.5 -29.001s-50 -10 -78 -10c-65.333 0 -115.833 12.833 -151.5 38.5s-53.5 66.5 -53.5 122.5h85c0 -35.333 10.5 -59.833 31.5 -73.5s50.5 -20.5 88.5 -20.5
c33.333 0 60.5 7.66699 81.5 23s31.5 34.666 31.5 57.999c0 20.667 -7.5 36.334 -22.5 47.001s-33.833 19.167 -56.5 25.5s-47.167 12 -73.5 17s-50.833 12.5 -73.5 22.5s-41.5 24 -56.5 42s-22.5 43 -22.5 75c0 22.667 5.16699 43 15.5 61s24.333 33.167 42 45.5
s37.834 21.666 60.501 27.999s46 9.5 70 9.5c65.333 0 114.333 -13 147 -39s49 -66.667 49 -122h-83c0 35.333 -9.83301 59.666 -29.5 72.999s-47.5 20 -83.5 20z" />
    <glyph glyph-name="t" unicode="t" horiz-adv-x="357" 
d="M96 500l12.002 142h71v-142h133v-65h-133v-325c0 -17.333 4.66699 -30 14 -38s21.666 -12 36.999 -12c10 0 23.5 0.833008 40.5 2.5s30.833 3.83398 41.5 6.50098v-69c-4 -1.33301 -9.83301 -2.5 -17.5 -3.5s-15.834 -2 -24.501 -3s-17.334 -1.83301 -26.001 -2.5
s-16 -1 -22 -1c-47.333 0 -80.166 10.667 -98.499 32s-27.5 50.666 -27.5 87.999v325h-83v65h83z" />
    <glyph glyph-name="u" unicode="u" horiz-adv-x="589" 
d="M78 500h83.9971v-308c0 -46 10.333 -80 31 -102s47 -33 79 -33c46 0 81.5 11.833 106.5 35.5s37.5 59.5 37.5 107.5v300h83v-500h-83v60c-12.667 -22 -32.667 -39.167 -60 -51.5s-56.333 -18.5 -87 -18.5c-33.333 0 -62.166 4.83301 -86.499 14.5
s-44.166 23.167 -59.499 40.5s-26.666 38.5 -33.999 63.5s-11 52.833 -11 83.5v308z" />
    <glyph glyph-name="v" unicode="v" horiz-adv-x="468" 
d="M231 123l69.5 189l66.5 188h91l-189 -500h-78l-190 500h91l137 -377h2z" />
    <glyph glyph-name="w" unicode="w" horiz-adv-x="705" 
d="M342 363l-108 -363h-81l-154 500h87l106 -366h3l108 366h82l106 -365h3l110 365h89l-160 -500h-82l-107 363h-2z" />
    <glyph glyph-name="x" unicode="x" horiz-adv-x="468" 
d="M96 0h-99l185 259l-166 241h98l116 -174l58.5 87.5l57.5 86.5h100l-167 -241l92.5 -130l89.5 -129h-96l-135 190z" />
    <glyph glyph-name="y" unicode="y" horiz-adv-x="468" 
d="M266 1c-13.333 -34 -25.9951 -62.6689 -37.9951 -86.002s-25.5 -42.166 -40.5 -56.499s-32.5 -24.666 -52.5 -30.999s-44.333 -9.5 -73 -9.5c-9.33301 0 -21.833 0.833008 -37.5 2.5s-28.167 4.16699 -37.5 7.5v69c13.333 -4 26.666 -6.83301 39.999 -8.5
s25.666 -2.5 36.999 -2.5c15.333 0 28.666 1.83301 39.999 5.5s21.666 10.167 30.999 19.5s18.166 22.5 26.499 39.5s16.833 39.167 25.5 66.5l-186 483h93l136 -374l137 374h93z" />
    <glyph glyph-name="z" unicode="z" horiz-adv-x="468" 
d="M39 500h389v-49l-294 -383h303v-68h-419v51l294 382h-273v67z" />
    <glyph glyph-name="braceleft" unicode="{" horiz-adv-x="339" 
d="M31 344c23.333 0 39.333 6 48 18s13 28.667 13 50v185c0 38 8.66699 67.167 26 87.5s41.333 30.5 72 30.5h74v-55h-61c-9.33301 0 -16.333 -3 -21 -9s-7 -20.333 -7 -43v-187c0 -28 -4.33301 -50.167 -13 -66.5s-21 -28.833 -37 -37.5
c16 -8.66699 28.333 -21.167 37 -37.5s13 -37.5 13 -63.5v-187c0 -22.667 2.33301 -37 7 -43s11.667 -9 21 -9h61v-55h-74c-30.667 0 -54.667 10.167 -72 30.5s-26 49.5 -26 87.5v185c0 20.667 -4.33301 37 -13 49s-24.667 18 -48 18v52z" />
    <glyph glyph-name="bar" unicode="|" horiz-adv-x="225" 
d="M73 715h78v-725h-78v725z" />
    <glyph glyph-name="braceright" unicode="}" horiz-adv-x="339" 
d="M298 292c-23.333 0 -39 -6.00098 -47 -18.001s-12 -28.333 -12 -49v-185c0 -38 -8.16699 -67.167 -24.5 -87.5s-40.5 -30.5 -72.5 -30.5h-73v55h61c8 0 14.333 3 19 9s7 20.333 7 43v187c0 51.333 17.333 86 52 104c-19.333 7.33301 -32.833 18.833 -40.5 34.5
s-11.5 37.834 -11.5 66.501v187c0 22.667 -2.33301 37 -7 43s-11 9 -19 9h-61v55h73c32 0 56.167 -10.167 72.5 -30.5s24.5 -49.5 24.5 -87.5v-185c0 -21.333 4 -38 12 -50s23.667 -18 47 -18v-52z" />
    <glyph glyph-name="asciitilde" unicode="~" horiz-adv-x="610" 
d="M555 278c-6 -11.333 -13.1641 -22.334 -21.4971 -33.001s-18.333 -20.167 -30 -28.5s-25.334 -15.166 -41.001 -20.499s-33.5 -8 -53.5 -8c-18.667 0 -38.167 3.16699 -58.5 9.5s-40.833 14.166 -61.5 23.499l-56 20.5c-18 6.33301 -33.667 9.5 -47 9.5
c-17.333 0 -33.5 -8 -48.5 -24s-29.5 -33.667 -43.5 -53l-55 60c6.66699 10.667 14.334 21.5 23.001 32.5s19 20.833 31 29.5s25.833 15.667 41.5 21s33.5 8 53.5 8c18.667 0 38.167 -3.16699 58.5 -9.5s41.166 -14.166 62.499 -23.499c19.333 -7.33301 38 -14 56 -20
s33.667 -9 47 -9c17.333 0 33.666 7.5 48.999 22.5s29.666 32.167 42.999 51.5z" />
    <glyph glyph-name="nonbreakingspace" unicode="&#xa0;" 
 />
    <glyph glyph-name="exclamdown" unicode="&#xa1;" horiz-adv-x="225" 
d="M55 -192l19 494h75l16 -494h-110zM165 513v-105h-110v105h110z" />
    <glyph glyph-name="cent" unicode="&#xa2;" horiz-adv-x="565" 
d="M274 403c-2.66699 0.666992 -6 1.33203 -10 1.99902s-7.66699 1 -11 1c-39.333 0 -70.5 -13.667 -93.5 -41s-34.5 -72.666 -34.5 -135.999c0 -32 4 -60.333 12 -85s19 -44.667 33 -60zM233 52.998c2.66699 -0.666992 5.83789 -1.00488 9.50488 -1.00488h10.5
c29.333 0 53.666 8.16699 72.999 24.5s37.666 39.5 54.999 69.5l66 -30c-11.333 -17.333 -23.333 -33.5 -36 -48.5s-26.834 -28.167 -42.501 -39.5s-33 -20.333 -52 -27s-40.167 -10 -63.5 -10h-20.5c-6.33301 0 -12.5 0.666992 -18.5 2
c-4.66699 -15.333 -10.167 -31.166 -16.5 -47.499s-11.833 -31.833 -16.5 -46.5h-72l40 119c-33.333 20 -59 48.167 -77 84.5s-27 78.5 -27 126.5c0 38.667 5.16699 72.834 15.5 102.501s24.666 54.334 42.999 74.001s40.166 34.5 65.499 44.5s53.333 15 84 15
c18.667 0 33 -1.33301 43 -4c4.66699 14.667 9.83398 29.334 15.501 44.001l16.5 42h72l-41 -113c16 -11.333 30.5 -26.166 43.5 -44.499s22.833 -38.5 29.5 -60.5l-69 -18c-5.33301 9.33301 -9.83301 18.5 -13.5 27.5s-7.83398 16.167 -12.501 21.5z" />
    <glyph glyph-name="sterling" unicode="&#xa3;" horiz-adv-x="565" 
d="M6 65c21.333 2 39.165 7.16504 53.498 15.498s25.666 20.333 33.999 36s14.333 35 18 58s5.5 50.5 5.5 82.5c0 8 -0.333008 16.833 -1 26.5s-1.66699 18.834 -3 27.501h-95v65h86c-2 15.333 -3.83301 28.5 -5.5 39.5s-3 20.667 -4 29s-1.83301 16 -2.5 23
s-1 14.167 -1 21.5c0 60.667 17.5 108.667 52.5 144s83.833 53 146.5 53c34 0 63 -4.5 87 -13.5s43.667 -21.833 59 -38.5s27.166 -37 35.499 -61s13.5 -50.667 15.5 -80h-80c-4 44.667 -14.667 76 -32 94s-45.666 27 -84.999 27c-35.333 0 -63 -10.833 -83 -32.5
s-30 -53.5 -30 -95.5c0 -20 1 -39.167 3 -57.5s4.33301 -35.833 7 -52.5h135v-65h-123c0.666992 -7.33301 1.5 -15.666 2.5 -24.999s1.5 -18.333 1.5 -27c0 -29.333 -1.5 -57.833 -4.5 -85.5s-8.83301 -48.834 -17.5 -63.501c16.667 -15.333 35.167 -27.333 55.5 -36
s42.5 -13 66.5 -13c36 0 63.833 9.5 83.5 28.5s29.5 47.5 29.5 85.5h83c0 -59.333 -17.333 -105 -52 -137s-82.667 -48 -144 -48c-23.333 0 -43.166 1.5 -59.499 4.5s-30.666 7 -42.999 12s-23.666 11 -33.999 18s-20.5 14.833 -30.5 23.5
c-14 -15.333 -32.167 -28.666 -54.5 -39.999s-47.5 -17.333 -75.5 -18v75z" />
    <glyph glyph-name="currency" unicode="&#xa4;" horiz-adv-x="565" 
d="M537 515l-56 -54c15.333 -20 27.833 -43 37.5 -69s14.5 -51.333 14.5 -76c0 -25.333 -4.66699 -51.166 -14 -77.499s-21.666 -49.5 -36.999 -69.5l55 -53l-56 -52l-55 53c-44.667 -31.333 -94.334 -47 -149.001 -47c-56.667 0 -106.667 15.667 -150 47
c-9.33301 -8 -19 -17 -29 -27l-27 -26l-52 52l54 53c-15.333 20 -27.5 43.167 -36.5 69.5s-13.5 52.166 -13.5 77.499c0 24.667 4.5 50.167 13.5 76.5s21.167 49.833 36.5 70.5l-54 52l52 52l56 -54c21.333 16.667 44.666 28.667 69.999 36s52 11 80 11
c26.667 0 52.834 -3.83301 78.501 -11.5s49.167 -19.5 70.5 -35.5l55 54zM277 136c24 0 46.833 4.66699 68.5 14s40.5 22.166 56.5 38.499s28.667 35.5 38 57.5s14 45.333 14 70c0 24 -4.66699 46.833 -14 68.5s-22 40.667 -38 57s-34.833 29.333 -56.5 39
s-44.5 14.5 -68.5 14.5s-46.667 -4.83301 -68 -14.5s-40.166 -22.667 -56.499 -39s-29.166 -35.333 -38.499 -57s-14 -44.5 -14 -68.5c0 -24.667 4.66699 -48 14 -70s22.166 -41.167 38.499 -57.5s35.166 -29.166 56.499 -38.499s44 -14 68 -14z" />
    <glyph glyph-name="yen" unicode="&#xa5;" horiz-adv-x="565" 
d="M452 329h-127c-6 -10 -12.833 -20.667 -20.5 -32s-14.167 -22 -19.5 -32v-25h153v-59h-153v-181h-85v181h-156v59h156v25l-40 64h-129v61h96l-145 237h88l169 -286l183 286h85l-150 -237h95v-61z" />
    <glyph glyph-name="brokenbar" unicode="&#xa6;" horiz-adv-x="225" 
d="M73 276h78v-286h-78v286zM73 715h78v-286h-78v286z" />
    <glyph glyph-name="section" unicode="&#xa7;" horiz-adv-x="508" 
d="M421 335c0 -22 -5.66602 -41.3359 -16.999 -58.0029s-25.666 -30.667 -42.999 -42c14.667 -10.667 26.667 -24 36 -40s14 -36.667 14 -62c0 -22.667 -4.83301 -42.834 -14.5 -60.501s-22.667 -32.667 -39 -45s-35.833 -21.666 -58.5 -27.999s-47 -9.5 -73 -9.5
c-62 0 -110.333 15 -145 45s-52 70.333 -52 121h85c0 -28.667 8.16699 -52.167 24.5 -70.5s45.5 -27.5 87.5 -27.5c34 0 58.833 6.83301 74.5 20.5s23.5 31.834 23.5 54.501c0 21.333 -7 37.166 -21 47.499s-31.333 18.5 -52 24.5s-43.334 11.167 -68.001 15.5
s-47.334 11.166 -68.001 20.499s-38 22.333 -52 39s-21 40.667 -21 72c0 25.333 7.5 46.333 22.5 63s35.5 30 61.5 40c-21.333 9.33301 -39 22.5 -53 39.5s-21 40.5 -21 70.5c0 22.667 5 42.834 15 60.501s23.333 32.667 40 45s35.667 21.666 57 27.999s43.333 9.5 66 9.5
c61.333 0 107.5 -15 138.5 -45s46.5 -70.333 46.5 -121h-86c0 30.667 -7.5 54.667 -22.5 72s-40.5 26 -76.5 26c-25.333 0 -47 -6.66699 -65 -20s-27 -30.666 -27 -51.999c0 -20 7 -35.167 21 -45.5s31.5 -18.666 52.5 -24.999s43.667 -12.166 68 -17.499
s47 -13.166 68 -23.499s38.5 -24.833 52.5 -43.5s21 -44.667 21 -78zM337.001 334.997c0 14.667 -3.33301 26.832 -10 36.499s-15.5 17.834 -26.5 24.501s-23.833 12.334 -38.5 17.001s-29.667 9 -45 13c-24.667 -2.66699 -45.334 -10 -62.001 -22s-25 -28.333 -25 -49
c0 -15.333 4.33301 -27.333 13 -36s20 -16 34 -22s29.833 -11 47.5 -15s35.834 -8.33301 54.501 -13c16.667 7.33301 30.5 16.666 41.5 27.999s16.5 24 16.5 38z" />
    <glyph glyph-name="dieresis" unicode="&#xa8;" horiz-adv-x="390" 
d="M52 606v95h86v-95h-86zM251 606v95h87v-95h-87z" />
    <glyph glyph-name="copyright" unicode="&#xa9;" horiz-adv-x="812" 
d="M352 636c46.667 0 90.334 -8.5 131.001 -25.5s76 -40.333 106 -70s53.667 -64 71 -103s26 -80.5 26 -124.5s-8.66699 -85.5 -26 -124.5s-41 -73.167 -71 -102.5s-65.333 -52.5 -106 -69.5s-84.334 -25.5 -131.001 -25.5s-90.167 8.5 -130.5 25.5
s-75.5 40.167 -105.5 69.5s-53.667 63.5 -71 102.5s-26 80.5 -26 124.5s8.66699 85.5 26 124.5s41 73.333 71 103s65.167 53 105.5 70s83.833 25.5 130.5 25.5zM352 53c36.667 0 70.834 6.83301 102.501 20.5s59 32.167 82 55.5s41 50.833 54 82.5s19.5 65.5 19.5 101.5
s-6.5 69.833 -19.5 101.5s-31 59.334 -54 83.001s-50.333 42.167 -82 55.5s-65.834 20 -102.501 20c-36 0 -69.667 -6.66699 -101 -20s-58.5 -31.833 -81.5 -55.5s-41 -51.334 -54 -83.001s-19.5 -65.5 -19.5 -101.5s6.5 -69.833 19.5 -101.5s31 -59.167 54 -82.5
s50.167 -41.833 81.5 -55.5s65 -20.5 101 -20.5zM530 259c-6.66699 -46.667 -25.1641 -83.6631 -55.4971 -110.996s-67.5 -41 -111.5 -41c-64.667 0 -114 18.667 -148 56s-51 88 -51 152c0 63.333 16.167 113.333 48.5 150s80.5 55 144.5 55
c23.333 0 45.333 -3.33301 66 -10s38.667 -16.334 54 -29.001s27.5 -28.334 36.5 -47.001s14.167 -40.334 15.5 -65.001h-71c-3.33301 25.333 -13.333 46.5 -30 63.5s-39.667 25.5 -69 25.5c-40 0 -69.833 -13.167 -89.5 -39.5s-29.5 -60.833 -29.5 -103.5
c0 -20.667 2.66699 -39.834 8 -57.501s13.333 -33 24 -46s23.667 -23.333 39 -31s32.666 -11.5 51.999 -11.5c27.333 0 49.166 8.5 65.499 25.5s26.166 38.5 29.499 64.5h72z" />
    <glyph glyph-name="ordfeminine" unicode="&#xaa;" horiz-adv-x="304" 
d="M246 389l-7 39.999c-11.333 -11.333 -26.5 -21.833 -45.5 -31.5s-40.167 -14.5 -63.5 -14.5c-28 0 -51.333 8.33301 -70 25s-28 39.334 -28 68.001c0 24.667 6 43.834 18 57.501s27.5 23.667 46.5 30s40 10.166 63 11.499s45.5 2 67.5 2v21c0 19.333 -4.5 33 -13.5 41
s-22.833 12 -41.5 12c-17.333 0 -31.333 -4.5 -42 -13.5s-19.667 -19.5 -27 -31.5l-65 30c12 24 28.5 43.667 49.5 59s50.167 23 87.5 23c42.667 0 74.5 -11.5 95.5 -34.5s31.5 -54.5 31.5 -94.5v-200h-56zM227 523.999c-5.33301 0.666992 -12 1.00098 -20 1.00098h-21
c-28.667 0 -48.667 -4.33301 -60 -13s-17 -20 -17 -34c0 -10 3.16699 -18.5 9.5 -25.5s16.5 -10.5 30.5 -10.5c22.667 0 39.5 3.16699 50.5 9.5s20.167 15.166 27.5 26.499v46z" />
    <glyph glyph-name="guillemotleft" unicode="&#xab;" horiz-adv-x="508" 
d="M305 260l129 -159h-92l-128 159l128 152h93zM161 260l129 -159h-95l-124 159l124 152h96z" />
    <glyph glyph-name="logicalnot" unicode="&#xac;" horiz-adv-x="610" 
d="M487 316h-456v73h534v-263h-78v190z" />
    <glyph glyph-name="registered" unicode="&#xae;" horiz-adv-x="812" 
d="M298 117h-76v391h158c48 0 82.667 -11.333 104 -34s32 -53 32 -91c0 -32.667 -8.33301 -58.5 -25 -77.5s-35.667 -32.167 -57 -39.5l92 -149h-88l-83 142h-57v-142zM354 320c25.333 0 45.5 4.5 60.5 13.5s22.5 26.167 22.5 51.5c0 41.333 -23 62 -69 62h-70v-127h56z
M352 636c46.667 0 90.334 -8.5 131.001 -25.5s76 -40.333 106 -70s53.667 -64 71 -103s26 -80.5 26 -124.5s-8.66699 -85.5 -26 -124.5s-41 -73.167 -71 -102.5s-65.333 -52.5 -106 -69.5s-84.334 -25.5 -131.001 -25.5s-90.167 8.5 -130.5 25.5s-75.5 40.167 -105.5 69.5
s-53.667 63.5 -71 102.5s-26 80.5 -26 124.5s8.66699 85.5 26 124.5s41 73.333 71 103s65.167 53 105.5 70s83.833 25.5 130.5 25.5zM352 53c36.667 0 70.834 6.83301 102.501 20.5s59 32.167 82 55.5s41 50.833 54 82.5s19.5 65.5 19.5 101.5s-6.5 69.833 -19.5 101.5
s-31 59.334 -54 83.001s-50.333 42.167 -82 55.5s-65.834 20 -102.501 20c-36 0 -69.667 -6.66699 -101 -20s-58.5 -31.833 -81.5 -55.5s-41 -51.334 -54 -83.001s-19.5 -65.5 -19.5 -101.5s6.5 -69.833 19.5 -101.5s31 -59.167 54 -82.5s50.167 -41.833 81.5 -55.5
s65 -20.5 101 -20.5z" />
    <glyph glyph-name="macron" unicode="&#xaf;" horiz-adv-x="225" 
d="M-48 647h316v-62h-316v62z" />
    <glyph glyph-name="degree" unicode="&#xb0;" horiz-adv-x="407" 
d="M199 654c-24 0 -44.167 -8.5 -60.5 -25.5s-24.5 -37.5 -24.5 -61.5c0 -25.333 8.16699 -46.5 24.5 -63.5s36.5 -25.5 60.5 -25.5c24.667 0 45.167 8.5 61.5 25.5s24.5 38.167 24.5 63.5c0 24 -8.16699 44.5 -24.5 61.5s-36.833 25.5 -61.5 25.5zM199 715
c22 0 42.5 -4 61.5 -12s35.333 -18.667 49 -32s24.5 -29 32.5 -47s12 -37 12 -57c0 -20.667 -4 -40 -12 -58s-18.833 -33.833 -32.5 -47.5s-30 -24.5 -49 -32.5s-39.5 -12 -61.5 -12s-42.5 4 -61.5 12s-35.5 18.833 -49.5 32.5s-24.833 29.5 -32.5 47.5
s-11.5 37.333 -11.5 58c0 20 3.83301 39 11.5 57s18.5 33.667 32.5 47s30.5 24 49.5 32s39.5 12 61.5 12z" />
    <glyph glyph-name="plusminus" unicode="&#xb1;" horiz-adv-x="610" 
d="M260 513h79v-175h226v-72h-226v-175h-79v175h-229v72h229v175zM31 71h534v-71h-534v71z" />
    <glyph glyph-name="twosuperior" unicode="&#xb2;" horiz-adv-x="390" 
d="M57 256l0.00292969 54.9971l78.5 59.5c25.667 19 48.667 38 69 57s36.666 38.333 48.999 58s18.5 40.834 18.5 63.501c0 28 -6.33301 48.333 -19 61s-29 19 -49 19c-24 0 -43.167 -6.66699 -57.5 -20s-21.5 -35.666 -21.5 -66.999h-73c0 26 4.16699 48.5 12.5 67.5
s19.5 34.5 33.5 46.5s30.167 21 48.5 27s37.5 9 57.5 9c46 0 82 -13.333 108 -40s39 -61.667 39 -105c0 -26 -6.5 -50.333 -19.5 -73s-28.833 -43.667 -47.5 -63s-38.334 -36.666 -59.001 -51.999s-38.334 -29 -53.001 -41h176v-62h-291z" />
    <glyph glyph-name="threesuperior" unicode="&#xb3;" horiz-adv-x="390" 
d="M156 446v52.999h43c25.333 0 43.333 6 54 18s16 30.333 16 55c0 18 -6 32.5 -18 43.5s-28.667 16.5 -50 16.5c-28.667 0 -49.167 -7.16699 -61.5 -21.5s-18.833 -36.166 -19.5 -65.499h-71c0 46 14.167 82 42.5 108s64.5 39 108.5 39c45.333 0 81.333 -10.667 108 -32
s40 -50.333 40 -87c0 -49.333 -20.333 -80 -61 -92c23.333 -5.33301 41.5 -16.333 54.5 -33s19.5 -37 19.5 -61c0 -21.333 -4.16699 -40.333 -12.5 -57s-19.833 -30.667 -34.5 -42s-32.167 -20.166 -52.5 -26.499s-42.5 -9.5 -66.5 -9.5c-22 0 -42.5 2.83301 -61.5 8.5
s-35.5 14.334 -49.5 26.001s-25.167 26.5 -33.5 44.5s-12.5 39.667 -12.5 65h78c0 -24 5.83301 -44.167 17.5 -60.5s33.5 -24.5 65.5 -24.5c26 0 45.667 7.16699 59 21.5s20 32.166 20 53.499c0 19.333 -4.83301 34.166 -14.5 44.499s-28.5 15.5 -56.5 15.5h-51z" />
    <glyph glyph-name="acute" unicode="&#xb4;" horiz-adv-x="225" 
d="M225 710l-113 -139h-80l84 139h109z" />
    <glyph glyph-name="mu" unicode="&#xb5;" horiz-adv-x="565" 
d="M480 513l-0.000976562 -513h-84v53c-20.667 -20 -44.167 -35.5 -70.5 -46.5s-55.833 -16.5 -88.5 -16.5c-15.333 0 -29.666 1.66699 -42.999 5s-25 9 -35 17v-186h-85v687h85v-353c0 -37.333 7.5 -64 22.5 -80s36.833 -24 65.5 -24c28 0 54.667 8.83301 80 26.5
s48.333 40.5 69 68.5v362h84z" />
    <glyph glyph-name="paragraph" unicode="&#xb6;" horiz-adv-x="508" 
d="M387 -130v814h78v-814h-78zM285 -130h-78.001v424c-27.333 2.66699 -52.333 9.5 -75 20.5s-42.5 25 -59.5 42s-30.167 36.5 -39.5 58.5s-14 45.333 -14 70c0 64.667 19.833 114 59.5 148s94.834 51 165.501 51h41v-814z" />
    <glyph glyph-name="periodcentered" unicode="&#xb7;" horiz-adv-x="283" 
d="M138 315c15.333 0 29.333 -5.66699 42 -17s19 -25 19 -41c0 -15.333 -6.33301 -28.666 -19 -39.999s-26.667 -17 -42 -17s-29.333 5.66699 -42 17s-19 24.666 -19 39.999c0 16 6.33301 29.667 19 41s26.667 17 42 17z" />
    <glyph glyph-name="cedilla" unicode="&#xb8;" horiz-adv-x="225" 
d="M6 -120c12.667 -5.33301 24.6689 -9.83203 36.002 -13.499s23 -5.5 35 -5.5c15.333 0 27.166 2.66699 35.499 8s12.5 12.666 12.5 21.999s-3 16 -9 20s-12.667 6 -20 6s-14.833 -1 -22.5 -3s-14.834 -4.66699 -21.501 -8l-30 22l62 91h72l-33 -42
c27.333 0 49 -6.5 65 -19.5s24 -34.5 24 -64.5c0 -26 -9.66699 -47.667 -29 -65s-48.333 -26 -87 -26c-17.333 0 -34.833 2 -52.5 6s-36.167 10.667 -55.5 20z" />
    <glyph glyph-name="onesuperior" unicode="&#xb9;" horiz-adv-x="325" 
d="M147 281v346l-82 -23v58l110 43h43v-424h-71z" />
    <glyph glyph-name="ordmasculine" unicode="&#xba;" horiz-adv-x="338" 
d="M164 658c-14 0 -25.5 -2.83301 -34.5 -8.5s-16 -13.334 -21 -23.001s-8.33301 -21 -10 -34s-2.5 -26.833 -2.5 -41.5s0.833008 -28.334 2.5 -41.001s5 -23.667 10 -33s12 -16.666 21 -21.999s20.5 -8 34.5 -8c28.667 0 47.5 10 56.5 30s13.5 44.667 13.5 74
c0 14.667 -1 28.5 -3 41.5s-5.5 24.333 -10.5 34s-12 17.334 -21 23.001s-20.833 8.5 -35.5 8.5zM164 389c-25.333 0 -46.833 4 -64.5 12s-32.167 19.167 -43.5 33.5s-19.666 31.333 -24.999 51s-8 41.5 -8 65.5s2.66699 46.167 8 66.5s13.666 37.666 24.999 51.999
s25.833 25.666 43.5 33.999s39.167 12.5 64.5 12.5s47 -4.16699 65 -12.5s32.833 -19.666 44.5 -33.999s20.167 -31.666 25.5 -51.999s8 -42.5 8 -66.5s-2.66699 -45.833 -8 -65.5s-13.833 -36.667 -25.5 -51s-26.5 -25.5 -44.5 -33.5s-39.667 -12 -65 -12z" />
    <glyph glyph-name="guillemotright" unicode="&#xbb;" horiz-adv-x="508" 
d="M192 255l-130 157h95l128 -157l-128 -154h-96zM337 255l-129 157h94l126 -157l-126 -154h-95z" />
    <glyph glyph-name="onequarter" unicode="&#xbc;" horiz-adv-x="884" 
d="M660 315l-128 -162h128v162zM660 0v91h-218v53l217 273h79v-264h61v-62h-61v-91h-78zM164 -10l417 715h70l-417 -715h-70zM147 281v346l-82 -23v58l110 43h43v-424h-71z" />
    <glyph glyph-name="onehalf" unicode="&#xbd;" horiz-adv-x="931" 
d="M164 -10l417 715h70l-417 -715h-70zM147 281v346l-82 -23v58l110 43h43v-424h-71zM537 0l0.00292969 54.9971l78.5 59.5c25.667 19 48.667 38 69 57s36.666 38.333 48.999 58s18.5 40.834 18.5 63.501c0 28 -6.33301 48.333 -19 61s-29 19 -49 19
c-24 0 -43.167 -6.66699 -57.5 -20s-21.5 -35.666 -21.5 -66.999h-73c0 26 4.16699 48.5 12.5 67.5s19.5 34.5 33.5 46.5s30.167 21 48.5 27s37.5 9 57.5 9c46 0 82 -13.333 108 -40s39 -61.667 39 -105c0 -26 -6.5 -50.333 -19.5 -73s-28.833 -43.667 -47.5 -63
s-38.334 -36.666 -59.001 -51.999s-38.334 -29 -53.001 -41h176v-62h-291z" />
    <glyph glyph-name="threequarters" unicode="&#xbe;" horiz-adv-x="962" 
d="M242 -10l417 715h70l-417 -715h-70zM740 315l-129 -162h129v162zM740 0v91h-219v53l217 273h80v-264h61v-62h-61v-91h-78zM156 446v52.999h43c25.333 0 43.333 6 54 18s16 30.333 16 55c0 18 -6 32.5 -18 43.5s-28.667 16.5 -50 16.5
c-28.667 0 -49.167 -7.16699 -61.5 -21.5s-18.833 -36.166 -19.5 -65.499h-71c0 46 14.167 82 42.5 108s64.5 39 108.5 39c45.333 0 81.333 -10.667 108 -32s40 -50.333 40 -87c0 -49.333 -20.333 -80 -61 -92c23.333 -5.33301 41.5 -16.333 54.5 -33s19.5 -37 19.5 -61
c0 -21.333 -4.16699 -40.333 -12.5 -57s-19.833 -30.667 -34.5 -42s-32.167 -20.166 -52.5 -26.499s-42.5 -9.5 -66.5 -9.5c-22 0 -42.5 2.83301 -61.5 8.5s-35.5 14.334 -49.5 26.001s-25.167 26.5 -33.5 44.5s-12.5 39.667 -12.5 65h78c0 -24 5.83301 -44.167 17.5 -60.5
s33.5 -24.5 65.5 -24.5c26 0 45.667 7.16699 59 21.5s20 32.166 20 53.499c0 19.333 -4.83301 34.166 -14.5 44.499s-28.5 15.5 -56.5 15.5h-51z" />
    <glyph glyph-name="questiondown" unicode="&#xbf;" horiz-adv-x="395" 
d="M370 -70c-14 -40 -35.3291 -72.168 -63.9961 -96.501s-66 -36.5 -112 -36.5c-22.667 0 -44.334 3.66699 -65.001 11s-39 18 -55 32s-28.833 31.333 -38.5 52s-14.5 44.667 -14.5 72c0 16.667 2.5 32 7.5 46s11.5 27.333 19.5 40s17.333 24.5 28 35.5l33 32.5
c20 19.333 37.833 39.166 53.5 59.499s23.5 44.5 23.5 72.5v54h79v-78c0 -12 -2.16699 -23.667 -6.5 -35s-10.166 -22.166 -17.499 -32.499s-15.5 -20.666 -24.5 -30.999l-26.5 -31.5l-28.5 -31.5c-9.66699 -11 -18.334 -22.5 -26.001 -34.5s-13.834 -24.5 -18.501 -37.5
s-7 -26.833 -7 -41.5c0 -26 8.33301 -46 25 -60s36.667 -21 60 -21c14 0 26.667 3 38 9s21.166 13.5 29.499 22.5s15.666 19.167 21.999 30.5s11.5 22.333 15.5 33zM283.004 512.999v-105h-108v105h108z" />
    <glyph glyph-name="Agrave" unicode="&#xc0;" horiz-adv-x="604" 
d="M433 177h-265l-61 -177h-94l240 684h98l240 -684h-98zM194 252h213l-105 312zM270 859l83 -139h-79l-113 139h109z" />
    <glyph glyph-name="Aacute" unicode="&#xc1;" horiz-adv-x="604" 
d="M433 177h-265l-61 -177h-94l240 684h98l240 -684h-98zM194 252h213l-105 312zM424 859l-113 -139h-80l84 139h109z" />
    <glyph glyph-name="Acircumflex" unicode="&#xc2;" horiz-adv-x="604" 
d="M433 177h-265l-61 -177h-94l240 684h98l240 -684h-98zM194 252h213l-105 312zM471 720h-98l-71 89l-74 -89h-95l130 152h81z" />
    <glyph glyph-name="Atilde" unicode="&#xc3;" horiz-adv-x="604" 
d="M433 177h-265l-61 -177h-94l240 684h98l240 -684h-98zM194 252h213l-105 312zM129 720c0.666992 13.333 3.49902 26.833 8.49902 40.5s11.667 26 20 37s18.333 19.833 30 26.5s24.834 10 39.501 10c12.667 0 25.5 -2.16699 38.5 -6.5s25.667 -9.33301 38 -15
s24 -10.667 35 -15s20.833 -6.5 29.5 -6.5c9.33301 0 16.5 4.83301 21.5 14.5s8.5 20.167 10.5 31.5h61c-2 -14.667 -5.33301 -28.834 -10 -42.501s-11 -25.667 -19 -36s-17.833 -18.5 -29.5 -24.5s-25.5 -9 -41.5 -9c-12 0 -23.667 2.16699 -35 6.5s-22.5 9.33301 -33.5 15
s-22.167 10.667 -33.5 15s-23.333 6.5 -36 6.5c-8 0 -15 -5.16699 -21 -15.5s-9.66699 -21.166 -11 -32.499h-62z" />
    <glyph glyph-name="Adieresis" unicode="&#xc4;" horiz-adv-x="604" 
d="M433 177h-265l-61 -177h-94l240 684h98l240 -684h-98zM194 252h213l-105 312zM159 742v95h86v-95h-86zM358 742v95h87v-95h-87z" />
    <glyph glyph-name="Aring" unicode="&#xc5;" horiz-adv-x="604" 
d="M433 177h-265l-61 -177h-94l240 684h98l240 -684h-98zM194 252h213l-105 312zM295 912c14.667 0 28.667 -2.66699 42 -8s25 -12.666 35 -21.999s18 -20.5 24 -33.5s9 -26.833 9 -41.5c0 -15.333 -3 -29.333 -9 -42s-14 -23.5 -24 -32.5s-21.667 -16.167 -35 -21.5
s-27.333 -8 -42 -8s-28.5 2.66699 -41.5 8s-24.5 12.5 -34.5 21.5s-17.833 19.833 -23.5 32.5s-8.5 26.667 -8.5 42c0 14.667 2.83301 28.5 8.5 41.5s13.5 24.167 23.5 33.5s21.5 16.666 34.5 21.999s26.833 8 41.5 8zM295 860c-14.667 0 -26.834 -5 -36.501 -15
s-14.5 -22.667 -14.5 -38c0 -14.667 4.83301 -27 14.5 -37s21.834 -15 36.501 -15c14 0 25.833 5 35.5 15s14.5 22.333 14.5 37c0 15.333 -4.83301 28 -14.5 38s-21.5 15 -35.5 15z" />
    <glyph glyph-name="AE" unicode="&#xc6;" horiz-adv-x="872" 
d="M532 73h301v-73h-386v178h-234l-101 -178h-99l360 633h464v-73h-305v-187h266v-73h-266v-227zM447 253v309h-23l-86.5 -154.5l-87.5 -154.5h197z" />
    <glyph glyph-name="Ccedilla" unicode="&#xc7;" horiz-adv-x="564" 
d="M557 183c-6.66699 -64 -29.8311 -111.835 -69.498 -143.502s-94.5 -47.5 -164.5 -47.5c-45.333 0 -85 8.33301 -119 25s-62.5 40 -85.5 70s-40.167 66 -51.5 108s-17 88.333 -17 139c0 54 5.66699 102.833 17 146.5s28.333 80.834 51 111.501s51.167 54.334 85.5 71.001
s74.166 25 119.499 25c141.333 0 218 -62.667 230 -188h-94c-4.66699 32 -18 58.5 -40 79.5s-54 31.5 -96 31.5c-59.333 0 -104 -23.333 -134 -70s-45 -115.667 -45 -207c0 -82.667 15 -147.167 45 -193.5s74.667 -69.5 134 -69.5c43.333 0 76.166 10.333 98.499 31
s35.833 47.667 40.5 81h95zM185.003 -120.002c12.667 -5.33301 24.6689 -9.83203 36.002 -13.499s23 -5.5 35 -5.5c15.333 0 27.166 2.66699 35.499 8s12.5 12.666 12.5 21.999s-3 16 -9 20s-12.667 6 -20 6s-14.833 -1 -22.5 -3s-14.834 -4.66699 -21.501 -8l-30 22l62 91
h72l-33 -42c27.333 0 49 -6.5 65 -19.5s24 -34.5 24 -64.5c0 -26 -9.66699 -47.667 -29 -65s-48.333 -26 -87 -26c-17.333 0 -34.833 2 -52.5 6s-36.167 10.667 -55.5 20z" />
    <glyph glyph-name="Egrave" unicode="&#xc8;" horiz-adv-x="489" 
d="M168 73h310v-73h-400v684h398v-73h-308v-222h273v-73h-273v-243zM269 859l83 -139h-79l-113 139h109z" />
    <glyph glyph-name="Eacute" unicode="&#xc9;" horiz-adv-x="489" 
d="M168 73h310v-73h-400v684h398v-73h-308v-222h273v-73h-273v-243zM407 859l-113 -139h-80l84 139h109z" />
    <glyph glyph-name="Ecircumflex" unicode="&#xca;" horiz-adv-x="489" 
d="M168 73h310v-73h-400v684h398v-73h-308v-222h273v-73h-273v-243zM447 720h-98l-71 89l-74 -89h-95l130 152h81z" />
    <glyph glyph-name="Edieresis" unicode="&#xcb;" horiz-adv-x="489" 
d="M168 73h310v-73h-400v684h398v-73h-308v-222h273v-73h-273v-243zM235 742v95h86v-95h-86zM434 742v95h87v-95h-87z" />
    <glyph glyph-name="Igrave" unicode="&#xcc;" horiz-adv-x="403" 
d="M258 0h-90v684h90v-684zM197 859l83 -139h-79l-113 139h109z" />
    <glyph glyph-name="Iacute" unicode="&#xcd;" horiz-adv-x="403" 
d="M258 0h-90v684h90v-684zM320 859l-113 -139h-80l84 139h109z" />
    <glyph glyph-name="Icircumflex" unicode="&#xce;" horiz-adv-x="403" 
d="M258 0h-90v684h90v-684zM373 720h-98l-71 89l-74 -89h-95l130 152h81z" />
    <glyph glyph-name="Idieresis" unicode="&#xcf;" horiz-adv-x="403" 
d="M258 0h-90v684h90v-684zM148 742v95h86v-95h-86zM347 742v95h87v-95h-87z" />
    <glyph glyph-name="Eth" unicode="&#xd0;" horiz-adv-x="669" 
d="M317 73c60 0 106.833 23.668 140.5 71.001s50.5 112 50.5 194c0 91.333 -16.667 159.666 -50 204.999s-80.333 68 -141 68h-114v-538h114zM317 684.001c43.333 0 82.666 -7.83301 117.999 -23.5s65.5 -38.5 90.5 -68.5s44.333 -66.333 58 -109s20.5 -91 20.5 -145
c0 -50.667 -6.83301 -96.834 -20.5 -138.501s-33.167 -77.167 -58.5 -106.5s-55.666 -52.166 -90.999 -68.499s-74.333 -24.5 -117 -24.5h-208v684h208zM369 369.001v-70h-351v70h351z" />
    <glyph glyph-name="Ntilde" unicode="&#xd1;" horiz-adv-x="637" 
d="M78 0v684h87l317 -519v519h90v-684h-87l-317 516v-516h-90zM150 720c0.666992 13.333 3.49902 26.833 8.49902 40.5s11.667 26 20 37s18.333 19.833 30 26.5s24.834 10 39.501 10c12.667 0 25.5 -2.16699 38.5 -6.5s25.667 -9.33301 38 -15s24 -10.667 35 -15
s20.833 -6.5 29.5 -6.5c9.33301 0 16.5 4.83301 21.5 14.5s8.5 20.167 10.5 31.5h61c-2 -14.667 -5.33301 -28.834 -10 -42.501s-11 -25.667 -19 -36s-17.833 -18.5 -29.5 -24.5s-25.5 -9 -41.5 -9c-12 0 -23.667 2.16699 -35 6.5s-22.5 9.33301 -33.5 15
s-22.167 10.667 -33.5 15s-23.333 6.5 -36 6.5c-8 0 -15 -5.16699 -21 -15.5s-9.66699 -21.166 -11 -32.499h-62z" />
    <glyph glyph-name="Ograve" unicode="&#xd2;" horiz-adv-x="647" 
d="M324 68c59.333 0 103.666 22.333 132.999 67s44 111 44 199c0 96.667 -14.667 167.167 -44 211.5s-73.666 66.5 -132.999 66.5c-60 0 -104.667 -22.167 -134 -66.5s-44 -114.833 -44 -211.5c0 -88 14.667 -154.333 44 -199s74 -67 134 -67zM324 -8
c-88.667 0 -156.167 29.668 -202.5 89.001s-69.5 143.666 -69.5 252.999c0 112 22 199 66 261s112.667 93 206 93c92.667 0 161 -31 205 -93s66 -149 66 -261c0 -110 -23 -194.5 -69 -253.5s-113.333 -88.5 -202 -88.5zM317 859.001l83 -139h-79l-113 139h109z" />
    <glyph glyph-name="Oacute" unicode="&#xd3;" horiz-adv-x="647" 
d="M324 68c59.333 0 103.666 22.333 132.999 67s44 111 44 199c0 96.667 -14.667 167.167 -44 211.5s-73.666 66.5 -132.999 66.5c-60 0 -104.667 -22.167 -134 -66.5s-44 -114.833 -44 -211.5c0 -88 14.667 -154.333 44 -199s74 -67 134 -67zM324 -8
c-88.667 0 -156.167 29.668 -202.5 89.001s-69.5 143.666 -69.5 252.999c0 112 22 199 66 261s112.667 93 206 93c92.667 0 161 -31 205 -93s66 -149 66 -261c0 -110 -23 -194.5 -69 -253.5s-113.333 -88.5 -202 -88.5zM364 859.001l-113 -139h-80l84 139h109z" />
    <glyph glyph-name="Ocircumflex" unicode="&#xd4;" horiz-adv-x="647" 
d="M324 68c59.333 0 103.666 22.333 132.999 67s44 111 44 199c0 96.667 -14.667 167.167 -44 211.5s-73.666 66.5 -132.999 66.5c-60 0 -104.667 -22.167 -134 -66.5s-44 -114.833 -44 -211.5c0 -88 14.667 -154.333 44 -199s74 -67 134 -67zM324 -8
c-88.667 0 -156.167 29.668 -202.5 89.001s-69.5 143.666 -69.5 252.999c0 112 22 199 66 261s112.667 93 206 93c92.667 0 161 -31 205 -93s66 -149 66 -261c0 -110 -23 -194.5 -69 -253.5s-113.333 -88.5 -202 -88.5zM485 720.001h-98l-71 89l-74 -89h-95l130 152h81z" />
    <glyph glyph-name="Otilde" unicode="&#xd5;" horiz-adv-x="647" 
d="M324 68c59.333 0 103.666 22.333 132.999 67s44 111 44 199c0 96.667 -14.667 167.167 -44 211.5s-73.666 66.5 -132.999 66.5c-60 0 -104.667 -22.167 -134 -66.5s-44 -114.833 -44 -211.5c0 -88 14.667 -154.333 44 -199s74 -67 134 -67zM324 -8
c-88.667 0 -156.167 29.668 -202.5 89.001s-69.5 143.666 -69.5 252.999c0 112 22 199 66 261s112.667 93 206 93c92.667 0 161 -31 205 -93s66 -149 66 -261c0 -110 -23 -194.5 -69 -253.5s-113.333 -88.5 -202 -88.5zM152 720.001
c0.666992 13.333 3.49902 26.833 8.49902 40.5s11.667 26 20 37s18.333 19.833 30 26.5s24.834 10 39.501 10c12.667 0 25.5 -2.16699 38.5 -6.5s25.667 -9.33301 38 -15s24 -10.667 35 -15s20.833 -6.5 29.5 -6.5c9.33301 0 16.5 4.83301 21.5 14.5s8.5 20.167 10.5 31.5
h61c-2 -14.667 -5.33301 -28.834 -10 -42.501s-11 -25.667 -19 -36s-17.833 -18.5 -29.5 -24.5s-25.5 -9 -41.5 -9c-12 0 -23.667 2.16699 -35 6.5s-22.5 9.33301 -33.5 15s-22.167 10.667 -33.5 15s-23.333 6.5 -36 6.5c-8 0 -15 -5.16699 -21 -15.5
s-9.66699 -21.166 -11 -32.499h-62z" />
    <glyph glyph-name="Odieresis" unicode="&#xd6;" horiz-adv-x="647" 
d="M324 68c59.333 0 103.666 22.333 132.999 67s44 111 44 199c0 96.667 -14.667 167.167 -44 211.5s-73.666 66.5 -132.999 66.5c-60 0 -104.667 -22.167 -134 -66.5s-44 -114.833 -44 -211.5c0 -88 14.667 -154.333 44 -199s74 -67 134 -67zM324 -8
c-88.667 0 -156.167 29.668 -202.5 89.001s-69.5 143.666 -69.5 252.999c0 112 22 199 66 261s112.667 93 206 93c92.667 0 161 -31 205 -93s66 -149 66 -261c0 -110 -23 -194.5 -69 -253.5s-113.333 -88.5 -202 -88.5zM175 742.001v95h86v-95h-86zM374 742.001v95h87v-95
h-87z" />
    <glyph glyph-name="multiply" unicode="&#xd7;" horiz-adv-x="499" 
d="M239 159l-169 -169l-61 59l169 169l-169 171l61 61l169 -171l169 171l60 -61l-169 -171l169 -169l-60 -59z" />
    <glyph glyph-name="Oslash" unicode="&#xd8;" horiz-adv-x="647" 
d="M161 -39h-56l385 762h55zM324 68c59.333 0 103.666 22.333 132.999 67s44 111 44 199c0 96.667 -14.667 167.167 -44 211.5s-73.666 66.5 -132.999 66.5c-60 0 -104.667 -22.167 -134 -66.5s-44 -114.833 -44 -211.5c0 -88 14.667 -154.333 44 -199s74 -67 134 -67z
M324 -8c-88.667 0 -156.167 29.668 -202.5 89.001s-69.5 143.666 -69.5 252.999c0 112 22 199 66 261s112.667 93 206 93c92.667 0 161 -31 205 -93s66 -149 66 -261c0 -110 -23 -194.5 -69 -253.5s-113.333 -88.5 -202 -88.5z" />
    <glyph glyph-name="Ugrave" unicode="&#xd9;" horiz-adv-x="659" 
d="M337 -8c-39.333 0 -74.999 5.66699 -106.999 17s-59.333 28 -82 50s-40 49.333 -52 82s-18 70 -18 112v431h90v-431c0 -64 15.167 -110.333 45.5 -139s71.5 -43 123.5 -43s93 14.333 123 43s45 75 45 139v431h90v-431c0 -42 -6 -79.333 -18 -112s-29.333 -60 -52 -82
s-49.834 -38.667 -81.501 -50s-67.167 -17 -106.5 -17zM314.001 859l83 -139h-79l-113 139h109z" />
    <glyph glyph-name="Uacute" unicode="&#xda;" horiz-adv-x="659" 
d="M337 -8c-39.333 0 -74.999 5.66699 -106.999 17s-59.333 28 -82 50s-40 49.333 -52 82s-18 70 -18 112v431h90v-431c0 -64 15.167 -110.333 45.5 -139s71.5 -43 123.5 -43s93 14.333 123 43s45 75 45 139v431h90v-431c0 -42 -6 -79.333 -18 -112s-29.333 -60 -52 -82
s-49.834 -38.667 -81.501 -50s-67.167 -17 -106.5 -17zM434.001 859l-113 -139h-80l84 139h109z" />
    <glyph glyph-name="Ucircumflex" unicode="&#xdb;" horiz-adv-x="659" 
d="M337 -8c-39.333 0 -74.999 5.66699 -106.999 17s-59.333 28 -82 50s-40 49.333 -52 82s-18 70 -18 112v431h90v-431c0 -64 15.167 -110.333 45.5 -139s71.5 -43 123.5 -43s93 14.333 123 43s45 75 45 139v431h90v-431c0 -42 -6 -79.333 -18 -112s-29.333 -60 -52 -82
s-49.834 -38.667 -81.501 -50s-67.167 -17 -106.5 -17zM502.001 720h-98l-71 89l-74 -89h-95l130 152h81z" />
    <glyph glyph-name="Udieresis" unicode="&#xdc;" horiz-adv-x="659" 
d="M337 -8c-39.333 0 -74.999 5.66699 -106.999 17s-59.333 28 -82 50s-40 49.333 -52 82s-18 70 -18 112v431h90v-431c0 -64 15.167 -110.333 45.5 -139s71.5 -43 123.5 -43s93 14.333 123 43s45 75 45 139v431h90v-431c0 -42 -6 -79.333 -18 -112s-29.333 -60 -52 -82
s-49.834 -38.667 -81.501 -50s-67.167 -17 -106.5 -17zM186.001 742v95h86v-95h-86zM385.001 742v95h87v-95h-87z" />
    <glyph glyph-name="Yacute" unicode="&#xdd;" horiz-adv-x="565" 
d="M290 369l171 315h102l-228 -402v-282h-92v282l-227 402h101l172 -315h1zM387 893l-113 -139h-80l84 139h109z" />
    <glyph glyph-name="Thorn" unicode="&#xde;" horiz-adv-x="563" 
d="M162 494l0.000976562 -285.999h108c60 0 103 12.333 129 37s39 58.667 39 102c0 51.333 -11.333 88.666 -34 111.999s-62.334 35 -119.001 35h-123zM162.001 135.001l0.00292969 -135.001h-91v684h91v-117h123c44.667 0 82.5 -4.83301 113.5 -14.5s56.167 -24 75.5 -43
s33.333 -42.167 42 -69.5s13 -58.333 13 -93c0 -32 -4.83301 -61 -14.5 -87s-24.834 -48.167 -45.501 -66.5s-47.334 -32.666 -80.001 -42.999s-72.334 -15.5 -119.001 -15.5h-108z" />
    <glyph glyph-name="germandbls" unicode="&#xdf;" horiz-adv-x="508" 
d="M69 0l-0.00488281 498c0 63.333 17.333 113 52 149s85.334 54 152.001 54c30.667 0 58 -4.66699 82 -14s44.333 -22.5 61 -39.5s29.334 -37 38.001 -60s13 -47.833 13 -74.5c0 -39.333 -10.333 -73.333 -31 -102s-47.667 -46.667 -81 -54
c101.333 -15.333 152 -72.666 152 -171.999c0 -69.333 -17.167 -119.5 -51.5 -150.5s-83.833 -46.5 -148.5 -46.5c-19.333 0 -38.166 2.5 -56.499 7.5s-34.166 11.167 -47.499 18.5l30 69c10 -6 21.333 -11.333 34 -16s27.667 -7 45 -7c31.333 0 56.5 9.66699 75.5 29
s28.5 48 28.5 86c0 45.333 -14.167 80.166 -42.5 104.499s-74.5 36.5 -138.5 36.5v70c46.667 1.33301 81.834 11.833 105.501 31.5s35.5 52.5 35.5 98.5c0 39.333 -10 67.833 -30 85.5s-45.667 26.5 -77 26.5c-33.333 0 -59.833 -9.5 -79.5 -28.5s-29.5 -51.167 -29.5 -96.5
v-503h-91z" />
    <glyph glyph-name="agrave" unicode="&#xe0;" horiz-adv-x="508" 
d="M441 130c0 -26 3.16797 -44.6689 9.50098 -56.002s21.166 -17 44.499 -17v-58c-6 -1.33301 -13.667 -2.16602 -23 -2.49902s-16.666 -0.5 -21.999 -0.5c-52.667 0 -81 28.667 -85 86c-4 -12 -10.5 -23.5 -19.5 -34.5s-20.167 -20.667 -33.5 -29
s-29.333 -15.166 -48 -20.499s-39.334 -8 -62.001 -8c-54.667 0 -97.5 13.667 -128.5 41s-46.5 64.333 -46.5 111c0 26.667 5 49.5 15 68.5s23.833 34.833 41.5 47.5s38.834 22 63.501 28s52 9 82 9h125v46c0 32 -9.5 57 -28.5 75s-47.5 27 -85.5 27
c-22 0 -40.333 -2.83301 -55 -8.5s-26.5 -13 -35.5 -22s-15.5 -19.5 -19.5 -31.5s-6 -24.333 -6 -37h-86c0 22.667 3.83301 44.167 11.5 64.5s19.834 38 36.501 53s37.667 27 63 36s55.666 13.5 90.999 13.5c65.333 0 115.166 -15.333 149.499 -46s51.5 -72 51.5 -124v-211z
M354.001 226.998h-125c-46 0 -77.833 -8 -95.5 -24s-26.5 -36 -26.5 -60s7.83301 -44.333 23.5 -61s41.167 -25 76.5 -25c24 0 45 4 63 12s33.333 18.5 46 31.5s22.167 28 28.5 45s9.5 34.5 9.5 52.5v29zM269.001 709.998l83 -139h-79l-113 139h109z" />
    <glyph glyph-name="aacute" unicode="&#xe1;" horiz-adv-x="508" 
d="M441 130c0 -26 3.16797 -44.6689 9.50098 -56.002s21.166 -17 44.499 -17v-58c-6 -1.33301 -13.667 -2.16602 -23 -2.49902s-16.666 -0.5 -21.999 -0.5c-52.667 0 -81 28.667 -85 86c-4 -12 -10.5 -23.5 -19.5 -34.5s-20.167 -20.667 -33.5 -29
s-29.333 -15.166 -48 -20.499s-39.334 -8 -62.001 -8c-54.667 0 -97.5 13.667 -128.5 41s-46.5 64.333 -46.5 111c0 26.667 5 49.5 15 68.5s23.833 34.833 41.5 47.5s38.834 22 63.501 28s52 9 82 9h125v46c0 32 -9.5 57 -28.5 75s-47.5 27 -85.5 27
c-22 0 -40.333 -2.83301 -55 -8.5s-26.5 -13 -35.5 -22s-15.5 -19.5 -19.5 -31.5s-6 -24.333 -6 -37h-86c0 22.667 3.83301 44.167 11.5 64.5s19.834 38 36.501 53s37.667 27 63 36s55.666 13.5 90.999 13.5c65.333 0 115.166 -15.333 149.499 -46s51.5 -72 51.5 -124v-211z
M354.001 226.998h-125c-46 0 -77.833 -8 -95.5 -24s-26.5 -36 -26.5 -60s7.83301 -44.333 23.5 -61s41.167 -25 76.5 -25c24 0 45 4 63 12s33.333 18.5 46 31.5s22.167 28 28.5 45s9.5 34.5 9.5 52.5v29zM380.001 709.998l-113 -139h-80l84 139h109z" />
    <glyph glyph-name="acircumflex" unicode="&#xe2;" horiz-adv-x="508" 
d="M441 130c0 -26 3.16797 -44.6689 9.50098 -56.002s21.166 -17 44.499 -17v-58c-6 -1.33301 -13.667 -2.16602 -23 -2.49902s-16.666 -0.5 -21.999 -0.5c-52.667 0 -81 28.667 -85 86c-4 -12 -10.5 -23.5 -19.5 -34.5s-20.167 -20.667 -33.5 -29
s-29.333 -15.166 -48 -20.499s-39.334 -8 -62.001 -8c-54.667 0 -97.5 13.667 -128.5 41s-46.5 64.333 -46.5 111c0 26.667 5 49.5 15 68.5s23.833 34.833 41.5 47.5s38.834 22 63.501 28s52 9 82 9h125v46c0 32 -9.5 57 -28.5 75s-47.5 27 -85.5 27
c-22 0 -40.333 -2.83301 -55 -8.5s-26.5 -13 -35.5 -22s-15.5 -19.5 -19.5 -31.5s-6 -24.333 -6 -37h-86c0 22.667 3.83301 44.167 11.5 64.5s19.834 38 36.501 53s37.667 27 63 36s55.666 13.5 90.999 13.5c65.333 0 115.166 -15.333 149.499 -46s51.5 -72 51.5 -124v-211z
M354.001 226.998h-125c-46 0 -77.833 -8 -95.5 -24s-26.5 -36 -26.5 -60s7.83301 -44.333 23.5 -61s41.167 -25 76.5 -25c24 0 45 4 63 12s33.333 18.5 46 31.5s22.167 28 28.5 45s9.5 34.5 9.5 52.5v29zM420.001 570.998h-98l-71 89l-74 -89h-95l130 152h81z" />
    <glyph glyph-name="atilde" unicode="&#xe3;" horiz-adv-x="508" 
d="M441 130c0 -26 3.16797 -44.6689 9.50098 -56.002s21.166 -17 44.499 -17v-58c-6 -1.33301 -13.667 -2.16602 -23 -2.49902s-16.666 -0.5 -21.999 -0.5c-52.667 0 -81 28.667 -85 86c-4 -12 -10.5 -23.5 -19.5 -34.5s-20.167 -20.667 -33.5 -29
s-29.333 -15.166 -48 -20.499s-39.334 -8 -62.001 -8c-54.667 0 -97.5 13.667 -128.5 41s-46.5 64.333 -46.5 111c0 26.667 5 49.5 15 68.5s23.833 34.833 41.5 47.5s38.834 22 63.501 28s52 9 82 9h125v46c0 32 -9.5 57 -28.5 75s-47.5 27 -85.5 27
c-22 0 -40.333 -2.83301 -55 -8.5s-26.5 -13 -35.5 -22s-15.5 -19.5 -19.5 -31.5s-6 -24.333 -6 -37h-86c0 22.667 3.83301 44.167 11.5 64.5s19.834 38 36.501 53s37.667 27 63 36s55.666 13.5 90.999 13.5c65.333 0 115.166 -15.333 149.499 -46s51.5 -72 51.5 -124v-211z
M354.001 226.998h-125c-46 0 -77.833 -8 -95.5 -24s-26.5 -36 -26.5 -60s7.83301 -44.333 23.5 -61s41.167 -25 76.5 -25c24 0 45 4 63 12s33.333 18.5 46 31.5s22.167 28 28.5 45s9.5 34.5 9.5 52.5v29zM63.001 583.998c0.666992 13.333 3.49902 26.833 8.49902 40.5
s11.667 26 20 37s18.333 19.833 30 26.5s24.834 10 39.501 10c12.667 0 25.5 -2.16699 38.5 -6.5s25.667 -9.33301 38 -15s24 -10.667 35 -15s20.833 -6.5 29.5 -6.5c9.33301 0 16.5 4.83301 21.5 14.5s8.5 20.167 10.5 31.5h61c-2 -14.667 -5.33301 -28.834 -10 -42.501
s-11 -25.667 -19 -36s-17.833 -18.5 -29.5 -24.5s-25.5 -9 -41.5 -9c-12 0 -23.667 2.16699 -35 6.5s-22.5 9.33301 -33.5 15s-22.167 10.667 -33.5 15s-23.333 6.5 -36 6.5c-8 0 -15 -5.16699 -21 -15.5s-9.66699 -21.166 -11 -32.499h-62z" />
    <glyph glyph-name="adieresis" unicode="&#xe4;" horiz-adv-x="508" 
d="M441 130c0 -26 3.16797 -44.6689 9.50098 -56.002s21.166 -17 44.499 -17v-58c-6 -1.33301 -13.667 -2.16602 -23 -2.49902s-16.666 -0.5 -21.999 -0.5c-52.667 0 -81 28.667 -85 86c-4 -12 -10.5 -23.5 -19.5 -34.5s-20.167 -20.667 -33.5 -29
s-29.333 -15.166 -48 -20.499s-39.334 -8 -62.001 -8c-54.667 0 -97.5 13.667 -128.5 41s-46.5 64.333 -46.5 111c0 26.667 5 49.5 15 68.5s23.833 34.833 41.5 47.5s38.834 22 63.501 28s52 9 82 9h125v46c0 32 -9.5 57 -28.5 75s-47.5 27 -85.5 27
c-22 0 -40.333 -2.83301 -55 -8.5s-26.5 -13 -35.5 -22s-15.5 -19.5 -19.5 -31.5s-6 -24.333 -6 -37h-86c0 22.667 3.83301 44.167 11.5 64.5s19.834 38 36.501 53s37.667 27 63 36s55.666 13.5 90.999 13.5c65.333 0 115.166 -15.333 149.499 -46s51.5 -72 51.5 -124v-211z
M354.001 226.998h-125c-46 0 -77.833 -8 -95.5 -24s-26.5 -36 -26.5 -60s7.83301 -44.333 23.5 -61s41.167 -25 76.5 -25c24 0 45 4 63 12s33.333 18.5 46 31.5s22.167 28 28.5 45s9.5 34.5 9.5 52.5v29zM185.001 605.998v95h86v-95h-86zM384.001 605.998v95h87v-95h-87z
" />
    <glyph glyph-name="aring" unicode="&#xe5;" horiz-adv-x="508" 
d="M441 130c0 -26 3.16797 -44.6689 9.50098 -56.002s21.166 -17 44.499 -17v-58c-6 -1.33301 -13.667 -2.16602 -23 -2.49902s-16.666 -0.5 -21.999 -0.5c-52.667 0 -81 28.667 -85 86c-4 -12 -10.5 -23.5 -19.5 -34.5s-20.167 -20.667 -33.5 -29
s-29.333 -15.166 -48 -20.499s-39.334 -8 -62.001 -8c-54.667 0 -97.5 13.667 -128.5 41s-46.5 64.333 -46.5 111c0 26.667 5 49.5 15 68.5s23.833 34.833 41.5 47.5s38.834 22 63.501 28s52 9 82 9h125v46c0 32 -9.5 57 -28.5 75s-47.5 27 -85.5 27
c-22 0 -40.333 -2.83301 -55 -8.5s-26.5 -13 -35.5 -22s-15.5 -19.5 -19.5 -31.5s-6 -24.333 -6 -37h-86c0 22.667 3.83301 44.167 11.5 64.5s19.834 38 36.501 53s37.667 27 63 36s55.666 13.5 90.999 13.5c65.333 0 115.166 -15.333 149.499 -46s51.5 -72 51.5 -124v-211z
M354.001 226.998h-125c-46 0 -77.833 -8 -95.5 -24s-26.5 -36 -26.5 -60s7.83301 -44.333 23.5 -61s41.167 -25 76.5 -25c24 0 45 4 63 12s33.333 18.5 46 31.5s22.167 28 28.5 45s9.5 34.5 9.5 52.5v29zM236.001 775.998c14.667 0 28.667 -2.66699 42 -8
s25 -12.666 35 -21.999s18 -20.5 24 -33.5s9 -26.833 9 -41.5c0 -15.333 -3 -29.333 -9 -42s-14 -23.5 -24 -32.5s-21.667 -16.167 -35 -21.5s-27.333 -8 -42 -8s-28.5 2.66699 -41.5 8s-24.5 12.5 -34.5 21.5s-17.833 19.833 -23.5 32.5s-8.5 26.667 -8.5 42
c0 14.667 2.83301 28.5 8.5 41.5s13.5 24.167 23.5 33.5s21.5 16.666 34.5 21.999s26.833 8 41.5 8zM236.001 723.998c-14.667 0 -26.834 -5 -36.501 -15s-14.5 -22.667 -14.5 -38c0 -14.667 4.83301 -27 14.5 -37s21.834 -15 36.501 -15c14 0 25.833 5 35.5 15
s14.5 22.333 14.5 37c0 15.333 -4.83301 28 -14.5 38s-21.5 15 -35.5 15z" />
    <glyph glyph-name="ae" unicode="&#xe6;" horiz-adv-x="835" 
d="M563 57c38 0 67.668 10.001 89.001 30.001s32 47.667 32 83h86c0 -55.333 -18.333 -99.166 -55 -131.499s-87.334 -48.5 -152.001 -48.5c-38.667 0 -73 6.16699 -103 18.5s-55 31.5 -75 57.5c-8 -8.66699 -17.833 -17.5 -29.5 -26.5s-24.834 -17.167 -39.501 -24.5
s-30.834 -13.333 -48.501 -18s-36.5 -7 -56.5 -7c-56 0 -99.833 13.667 -131.5 41s-47.5 64.333 -47.5 111c0 26.667 5.16699 49.5 15.5 68.5s24.5 34.833 42.5 47.5s39.5 22 64.5 28s52.5 9 82.5 9h100c1.33301 17.333 4 33.166 8 47.499s8.66699 28.833 14 43.5
c-8.66699 18 -22.667 32 -42 42s-41 15 -65 15c-37.333 0 -66.833 -10 -88.5 -30s-32.5 -47.667 -32.5 -83h-84c0 56 18.167 100.167 54.5 132.5s86.5 48.5 150.5 48.5c34 0 64.167 -4.83301 90.5 -14.5s48.5 -23.5 66.5 -41.5c19.333 17.333 42 31 68 41s55 15 87 15
c36 0 67.167 -6.33301 93.5 -19s48.333 -29.667 66 -51s30.834 -46.333 39.501 -75s13 -59.334 13 -92.001c0 -4.66699 -0.166992 -10 -0.5 -16s-1.16602 -15.333 -2.49902 -28h-353c2 -56.667 15.5 -99.667 40.5 -129s59.167 -44 102.5 -44zM216.001 57.001
c29.333 0 55.833 7.83301 79.5 23.5s42.167 32.5 55.5 50.5c-7.33301 30 -13 62 -17 96h-97c-45.333 0 -76.833 -8 -94.5 -24s-26.5 -36 -26.5 -60s7.83301 -44.333 23.5 -61s41.167 -25 76.5 -25zM692.001 298.001c-1.33301 44 -13.5 79.166 -36.5 105.499
s-54.167 39.5 -93.5 39.5c-21.333 0 -40.5 -3.83301 -57.5 -11.5s-31.5 -18.167 -43.5 -31.5s-21.5 -28.666 -28.5 -45.999s-11.167 -36 -12.5 -56h272z" />
    <glyph glyph-name="ccedilla" unicode="&#xe7;" horiz-adv-x="508" 
d="M265 57c37.333 0 67.001 9.00098 89.001 27.001s33 42 33 72h86c0 -24.667 -4.83301 -47.167 -14.5 -67.5s-23.5 -37.833 -41.5 -52.5s-39.833 -26 -65.5 -34s-54.5 -12 -86.5 -12c-80 0 -139 23.5 -177 70.5s-57 110.5 -57 190.5c0 84.667 20 149.167 60 193.5
s98.333 66.5 175 66.5c64.667 0 115.5 -13.833 152.5 -41.5s55.5 -69.5 55.5 -125.5h-84c0 36 -11.167 61.5 -33.5 76.5s-52.5 22.5 -90.5 22.5c-46.667 0 -83.334 -14.833 -110.001 -44.5s-40 -78.834 -40 -147.501c0 -64.667 12.667 -113.167 38 -145.5
s62.333 -48.5 111 -48.5zM142.001 -119.999c12.667 -5.33301 24.6689 -9.83203 36.002 -13.499s23 -5.5 35 -5.5c15.333 0 27.166 2.66699 35.499 8s12.5 12.666 12.5 21.999s-3 16 -9 20s-12.667 6 -20 6s-14.833 -1 -22.5 -3s-14.834 -4.66699 -21.501 -8l-30 22l62 91h72
l-33 -42c27.333 0 49 -6.5 65 -19.5s24 -34.5 24 -64.5c0 -26 -9.66699 -47.667 -29 -65s-48.333 -26 -87 -26c-17.333 0 -34.833 2 -52.5 6s-36.167 10.667 -55.5 20z" />
    <glyph glyph-name="egrave" unicode="&#xe8;" horiz-adv-x="508" 
d="M259 57c39.333 0 69.0029 9.00195 89.0029 27.002s30 42 30 72h86c0 -50 -17.667 -90.167 -53 -120.5s-86 -45.5 -152 -45.5c-35.333 0 -67.166 5.16699 -95.499 15.5s-52.333 26.166 -72 47.499s-34.834 48.333 -45.501 81s-16 71.667 -16 117
c0 84.667 20 149.167 60 193.5s96.667 66.5 170 66.5c35.333 0 66.166 -6.33301 92.499 -19s48.166 -29.834 65.499 -51.501s30.166 -47.167 38.499 -76.5s12.5 -60.666 12.5 -93.999v-20c0 -6.66699 -0.333008 -13.334 -1 -20.001h-354c2 -60.667 15.667 -104.667 41 -132
s60 -41 104 -41zM386.003 298.002c0 46 -10.5029 81.666 -31.5029 106.999s-53.5 38 -97.5 38c-24 0 -44.667 -3.83301 -62 -11.5s-31.666 -18.167 -42.999 -31.5s-20.166 -28.666 -26.499 -45.999s-10.166 -36 -11.499 -56h272zM256 710.001l83 -139h-79l-113 139h109z" />
    <glyph glyph-name="eacute" unicode="&#xe9;" horiz-adv-x="508" 
d="M259 57c39.333 0 69.0029 9.00195 89.0029 27.002s30 42 30 72h86c0 -50 -17.667 -90.167 -53 -120.5s-86 -45.5 -152 -45.5c-35.333 0 -67.166 5.16699 -95.499 15.5s-52.333 26.166 -72 47.499s-34.834 48.333 -45.501 81s-16 71.667 -16 117
c0 84.667 20 149.167 60 193.5s96.667 66.5 170 66.5c35.333 0 66.166 -6.33301 92.499 -19s48.166 -29.834 65.499 -51.501s30.166 -47.167 38.499 -76.5s12.5 -60.666 12.5 -93.999v-20c0 -6.66699 -0.333008 -13.334 -1 -20.001h-354c2 -60.667 15.667 -104.667 41 -132
s60 -41 104 -41zM386.003 298.002c0 46 -10.5029 81.666 -31.5029 106.999s-53.5 38 -97.5 38c-24 0 -44.667 -3.83301 -62 -11.5s-31.666 -18.167 -42.999 -31.5s-20.166 -28.666 -26.499 -45.999s-10.166 -36 -11.499 -56h272zM380 710.001l-113 -139h-80l84 139h109z" />
    <glyph glyph-name="ecircumflex" unicode="&#xea;" horiz-adv-x="508" 
d="M259 57c39.333 0 69.0029 9.00195 89.0029 27.002s30 42 30 72h86c0 -50 -17.667 -90.167 -53 -120.5s-86 -45.5 -152 -45.5c-35.333 0 -67.166 5.16699 -95.499 15.5s-52.333 26.166 -72 47.499s-34.834 48.333 -45.501 81s-16 71.667 -16 117
c0 84.667 20 149.167 60 193.5s96.667 66.5 170 66.5c35.333 0 66.166 -6.33301 92.499 -19s48.166 -29.834 65.499 -51.501s30.166 -47.167 38.499 -76.5s12.5 -60.666 12.5 -93.999v-20c0 -6.66699 -0.333008 -13.334 -1 -20.001h-354c2 -60.667 15.667 -104.667 41 -132
s60 -41 104 -41zM386.003 298.002c0 46 -10.5029 81.666 -31.5029 106.999s-53.5 38 -97.5 38c-24 0 -44.667 -3.83301 -62 -11.5s-31.666 -18.167 -42.999 -31.5s-20.166 -28.666 -26.499 -45.999s-10.166 -36 -11.499 -56h272zM429 571.001h-98l-71 89l-74 -89h-95
l130 152h81z" />
    <glyph glyph-name="edieresis" unicode="&#xeb;" horiz-adv-x="508" 
d="M259 57c39.333 0 69.0029 9.00195 89.0029 27.002s30 42 30 72h86c0 -50 -17.667 -90.167 -53 -120.5s-86 -45.5 -152 -45.5c-35.333 0 -67.166 5.16699 -95.499 15.5s-52.333 26.166 -72 47.499s-34.834 48.333 -45.501 81s-16 71.667 -16 117
c0 84.667 20 149.167 60 193.5s96.667 66.5 170 66.5c35.333 0 66.166 -6.33301 92.499 -19s48.166 -29.834 65.499 -51.501s30.166 -47.167 38.499 -76.5s12.5 -60.666 12.5 -93.999v-20c0 -6.66699 -0.333008 -13.334 -1 -20.001h-354c2 -60.667 15.667 -104.667 41 -132
s60 -41 104 -41zM386.003 298.002c0 46 -10.5029 81.666 -31.5029 106.999s-53.5 38 -97.5 38c-24 0 -44.667 -3.83301 -62 -11.5s-31.666 -18.167 -42.999 -31.5s-20.166 -28.666 -26.499 -45.999s-10.166 -36 -11.499 -56h272zM198 606.001v95h86v-95h-86zM397 606.001v95
h87v-95h-87z" />
    <glyph glyph-name="igrave" unicode="&#xec;" horiz-adv-x="225" 
d="M162 0h-84v500h84v-500zM110 710l83 -139h-79l-113 139h109z" />
    <glyph glyph-name="iacute" unicode="&#xed;" horiz-adv-x="225" 
d="M162 0h-84v500h84v-500zM195 710l-113 -139h-80l84 139h109z" />
    <glyph glyph-name="icircumflex" unicode="&#xee;" horiz-adv-x="225" 
d="M162 0h-84v500h84v-500zM280 571h-98l-71 89l-74 -89h-95l130 152h81z" />
    <glyph glyph-name="idieresis" unicode="&#xef;" horiz-adv-x="225" 
d="M162 0h-84v500h84v-500zM52 606v95h86v-95h-86zM251 606v95h87v-95h-87z" />
    <glyph glyph-name="eth" unicode="&#xf0;" horiz-adv-x="516" 
d="M139 513l63.998 111.997c-35.333 -0.666992 -64.833 -2.83398 -88.5 -6.50098s-46.167 -9.5 -67.5 -17.5v68c8 4 17.833 7.66699 29.5 11s24.167 6.33301 37.5 9s27 4.66699 41 6s27.667 2 41 2c8 0 15.833 -0.333008 23.5 -1s15.167 -1.66699 22.5 -3l27 47h82l-43 -68
c24 -14 46 -30.5 66 -49.5s37.167 -42.167 51.5 -69.5s25.5 -59.5 33.5 -96.5s12 -80.5 12 -130.5c0 -54 -3.5 -101.667 -10.5 -143s-19.167 -76.166 -36.5 -104.499s-40.666 -49.666 -69.999 -63.999s-66 -21.5 -110 -21.5c-32 0 -61 5.66699 -87 17s-48.167 27 -66.5 47
s-32.666 43.667 -42.999 71s-15.5 56.666 -15.5 87.999c0 30 4.16699 58.833 12.5 86.5s21 51.834 38 72.501s38.667 37.167 65 49.5s57.833 18.5 94.5 18.5c18 0 33.833 -1.83301 47.5 -5.5s26 -8.66699 37 -15s20.833 -13.666 29.5 -21.999s16.667 -17.166 24 -26.499
c0 33.333 -3 62.5 -9 87.5s-14 46.833 -24 65.5s-21.5 34 -34.5 46s-26.5 21.667 -40.5 29l-51 -89h-82zM243.998 67.9971c44.667 0 77.333 14.499 98 43.499s31 65.833 31 110.5c0 48 -10.167 84.5 -30.5 109.5s-53.833 37.5 -100.5 37.5
c-45.333 0 -76.833 -13.667 -94.5 -41s-26.5 -64.666 -26.5 -111.999c0 -43.333 10 -78.833 30 -106.5s51 -41.5 93 -41.5z" />
    <glyph glyph-name="ntilde" unicode="&#xf1;" horiz-adv-x="565" 
d="M79 0l0.000976562 499.999h84v-59c15.333 22 35.166 39.167 59.499 51.5s54.833 18.5 91.5 18.5c34.667 0 63.667 -5 87 -15s42.333 -23.833 57 -41.5s25.167 -38.334 31.5 -62.001s9.5 -49.5 9.5 -77.5v-315h-86v312c0 87.333 -37.667 131 -113 131
c-19.333 0 -37.333 -2.66699 -54 -8s-31.167 -13.166 -43.5 -23.499s-22 -23.166 -29 -38.499s-10.5 -33 -10.5 -53v-320h-84zM99.001 583.999c0.666992 13.333 3.49902 26.833 8.49902 40.5s11.667 26 20 37s18.333 19.833 30 26.5s24.834 10 39.501 10
c12.667 0 25.5 -2.16699 38.5 -6.5s25.667 -9.33301 38 -15s24 -10.667 35 -15s20.833 -6.5 29.5 -6.5c9.33301 0 16.5 4.83301 21.5 14.5s8.5 20.167 10.5 31.5h61c-2 -14.667 -5.33301 -28.834 -10 -42.501s-11 -25.667 -19 -36s-17.833 -18.5 -29.5 -24.5
s-25.5 -9 -41.5 -9c-12 0 -23.667 2.16699 -35 6.5s-22.5 9.33301 -33.5 15s-22.167 10.667 -33.5 15s-23.333 6.5 -36 6.5c-8 0 -15 -5.16699 -21 -15.5s-9.66699 -21.166 -11 -32.499h-62z" />
    <glyph glyph-name="ograve" unicode="&#xf2;" horiz-adv-x="532" 
d="M261 446c-46 0 -81.667 -15.5 -107 -46.5s-38 -80.5 -38 -148.5c0 -68.667 12.667 -118.334 38 -149.001s61 -46 107 -46c45.333 0 80.5 15.333 105.5 46s37.5 80.334 37.5 149.001c0 68 -12.5 117.5 -37.5 148.5s-60.167 46.5 -105.5 46.5zM261 511
c75.333 0 132.166 -22 170.499 -66s57.5 -108.667 57.5 -194s-19.167 -150.166 -57.5 -194.499s-95.166 -66.5 -170.499 -66.5c-76 0 -133.333 22.167 -172 66.5s-58 109.166 -58 194.499s19.333 150 58 194s96 66 172 66zM291 710l83 -139h-79l-113 139h109z" />
    <glyph glyph-name="oacute" unicode="&#xf3;" horiz-adv-x="532" 
d="M261 446c-46 0 -81.667 -15.5 -107 -46.5s-38 -80.5 -38 -148.5c0 -68.667 12.667 -118.334 38 -149.001s61 -46 107 -46c45.333 0 80.5 15.333 105.5 46s37.5 80.334 37.5 149.001c0 68 -12.5 117.5 -37.5 148.5s-60.167 46.5 -105.5 46.5zM261 511
c75.333 0 132.166 -22 170.499 -66s57.5 -108.667 57.5 -194s-19.167 -150.166 -57.5 -194.499s-95.166 -66.5 -170.499 -66.5c-76 0 -133.333 22.167 -172 66.5s-58 109.166 -58 194.499s19.333 150 58 194s96 66 172 66zM374 710l-113 -139h-80l84 139h109z" />
    <glyph glyph-name="ocircumflex" unicode="&#xf4;" horiz-adv-x="532" 
d="M261 446c-46 0 -81.667 -15.5 -107 -46.5s-38 -80.5 -38 -148.5c0 -68.667 12.667 -118.334 38 -149.001s61 -46 107 -46c45.333 0 80.5 15.333 105.5 46s37.5 80.334 37.5 149.001c0 68 -12.5 117.5 -37.5 148.5s-60.167 46.5 -105.5 46.5zM261 511
c75.333 0 132.166 -22 170.499 -66s57.5 -108.667 57.5 -194s-19.167 -150.166 -57.5 -194.499s-95.166 -66.5 -170.499 -66.5c-76 0 -133.333 22.167 -172 66.5s-58 109.166 -58 194.499s19.333 150 58 194s96 66 172 66zM425 571h-98l-71 89l-74 -89h-95l130 152h81z" />
    <glyph glyph-name="otilde" unicode="&#xf5;" horiz-adv-x="532" 
d="M261 446c-46 0 -81.667 -15.5 -107 -46.5s-38 -80.5 -38 -148.5c0 -68.667 12.667 -118.334 38 -149.001s61 -46 107 -46c45.333 0 80.5 15.333 105.5 46s37.5 80.334 37.5 149.001c0 68 -12.5 117.5 -37.5 148.5s-60.167 46.5 -105.5 46.5zM261 511
c75.333 0 132.166 -22 170.499 -66s57.5 -108.667 57.5 -194s-19.167 -150.166 -57.5 -194.499s-95.166 -66.5 -170.499 -66.5c-76 0 -133.333 22.167 -172 66.5s-58 109.166 -58 194.499s19.333 150 58 194s96 66 172 66zM87 584
c0.666992 13.333 3.49902 26.833 8.49902 40.5s11.667 26 20 37s18.333 19.833 30 26.5s24.834 10 39.501 10c12.667 0 25.5 -2.16699 38.5 -6.5s25.667 -9.33301 38 -15s24 -10.667 35 -15s20.833 -6.5 29.5 -6.5c9.33301 0 16.5 4.83301 21.5 14.5s8.5 20.167 10.5 31.5
h61c-2 -14.667 -5.33301 -28.834 -10 -42.501s-11 -25.667 -19 -36s-17.833 -18.5 -29.5 -24.5s-25.5 -9 -41.5 -9c-12 0 -23.667 2.16699 -35 6.5s-22.5 9.33301 -33.5 15s-22.167 10.667 -33.5 15s-23.333 6.5 -36 6.5c-8 0 -15 -5.16699 -21 -15.5
s-9.66699 -21.166 -11 -32.499h-62z" />
    <glyph glyph-name="odieresis" unicode="&#xf6;" horiz-adv-x="532" 
d="M261 446c-46 0 -81.667 -15.5 -107 -46.5s-38 -80.5 -38 -148.5c0 -68.667 12.667 -118.334 38 -149.001s61 -46 107 -46c45.333 0 80.5 15.333 105.5 46s37.5 80.334 37.5 149.001c0 68 -12.5 117.5 -37.5 148.5s-60.167 46.5 -105.5 46.5zM261 511
c75.333 0 132.166 -22 170.499 -66s57.5 -108.667 57.5 -194s-19.167 -150.166 -57.5 -194.499s-95.166 -66.5 -170.499 -66.5c-76 0 -133.333 22.167 -172 66.5s-58 109.166 -58 194.499s19.333 150 58 194s96 66 172 66zM192 606v95h86v-95h-86zM391 606v95h87v-95h-87z
" />
    <glyph glyph-name="divide" unicode="&#xf7;" horiz-adv-x="513" 
d="M26 186v64h451v-64h-451zM251 447c17.333 0 31.833 -5.5 43.5 -16.5s17.5 -24.167 17.5 -39.5s-5.83301 -28.5 -17.5 -39.5s-26.167 -16.5 -43.5 -16.5c-15.333 0 -29.166 5.5 -41.499 16.5s-18.5 24.167 -18.5 39.5s6.16699 28.5 18.5 39.5s26.166 16.5 41.499 16.5z
M251 100c17.333 0 31.833 -5.5 43.5 -16.5s17.5 -24.167 17.5 -39.5c0 -14 -5.83301 -26.833 -17.5 -38.5s-26.167 -17.5 -43.5 -17.5c-15.333 0 -29.166 5.83301 -41.499 17.5s-18.5 24.5 -18.5 38.5c0 15.333 6.16699 28.5 18.5 39.5s26.166 16.5 41.499 16.5z" />
    <glyph glyph-name="oslash" unicode="&#xf8;" horiz-adv-x="532" 
d="M142 -46h-50l302 587h44zM261 446c-46 0 -81.667 -15.5 -107 -46.5s-38 -80.5 -38 -148.5c0 -68.667 12.667 -118.334 38 -149.001s61 -46 107 -46c45.333 0 80.5 15.333 105.5 46s37.5 80.334 37.5 149.001c0 68 -12.5 117.5 -37.5 148.5s-60.167 46.5 -105.5 46.5z
M261 511c75.333 0 132.166 -22 170.499 -66s57.5 -108.667 57.5 -194s-19.167 -150.166 -57.5 -194.499s-95.166 -66.5 -170.499 -66.5c-76 0 -133.333 22.167 -172 66.5s-58 109.166 -58 194.499s19.333 150 58 194s96 66 172 66z" />
    <glyph glyph-name="ugrave" unicode="&#xf9;" horiz-adv-x="565" 
d="M78 500h83.9971v-308c0 -46 10.333 -80 31 -102s47 -33 79 -33c46 0 81.5 11.833 106.5 35.5s37.5 59.5 37.5 107.5v300h83v-500h-83v60c-12.667 -22 -32.667 -39.167 -60 -51.5s-56.333 -18.5 -87 -18.5c-33.333 0 -62.166 4.83301 -86.499 14.5
s-44.166 23.167 -59.499 40.5s-26.666 38.5 -33.999 63.5s-11 52.833 -11 83.5v308zM259.997 710l83 -139h-79l-113 139h109z" />
    <glyph glyph-name="uacute" unicode="&#xfa;" horiz-adv-x="565" 
d="M78 500h83.9971v-308c0 -46 10.333 -80 31 -102s47 -33 79 -33c46 0 81.5 11.833 106.5 35.5s37.5 59.5 37.5 107.5v300h83v-500h-83v60c-12.667 -22 -32.667 -39.167 -60 -51.5s-56.333 -18.5 -87 -18.5c-33.333 0 -62.166 4.83301 -86.499 14.5
s-44.166 23.167 -59.499 40.5s-26.666 38.5 -33.999 63.5s-11 52.833 -11 83.5v308zM405.997 710l-113 -139h-80l84 139h109z" />
    <glyph glyph-name="ucircumflex" unicode="&#xfb;" horiz-adv-x="565" 
d="M78 500h83.9971v-308c0 -46 10.333 -80 31 -102s47 -33 79 -33c46 0 81.5 11.833 106.5 35.5s37.5 59.5 37.5 107.5v300h83v-500h-83v60c-12.667 -22 -32.667 -39.167 -60 -51.5s-56.333 -18.5 -87 -18.5c-33.333 0 -62.166 4.83301 -86.499 14.5
s-44.166 23.167 -59.499 40.5s-26.666 38.5 -33.999 63.5s-11 52.833 -11 83.5v308zM455.997 571h-98l-71 89l-74 -89h-95l130 152h81z" />
    <glyph glyph-name="udieresis" unicode="&#xfc;" horiz-adv-x="565" 
d="M78 500h83.9971v-308c0 -46 10.333 -80 31 -102s47 -33 79 -33c46 0 81.5 11.833 106.5 35.5s37.5 59.5 37.5 107.5v300h83v-500h-83v60c-12.667 -22 -32.667 -39.167 -60 -51.5s-56.333 -18.5 -87 -18.5c-33.333 0 -62.166 4.83301 -86.499 14.5
s-44.166 23.167 -59.499 40.5s-26.666 38.5 -33.999 63.5s-11 52.833 -11 83.5v308zM224.997 606v95h86v-95h-86zM423.997 606v95h87v-95h-87z" />
    <glyph glyph-name="yacute" unicode="&#xfd;" horiz-adv-x="468" 
d="M266 1c-13.333 -34 -25.9951 -62.6689 -37.9951 -86.002s-25.5 -42.166 -40.5 -56.499s-32.5 -24.666 -52.5 -30.999s-44.333 -9.5 -73 -9.5c-9.33301 0 -21.833 0.833008 -37.5 2.5s-28.167 4.16699 -37.5 7.5v69c13.333 -4 26.666 -6.83301 39.999 -8.5
s25.666 -2.5 36.999 -2.5c15.333 0 28.666 1.83301 39.999 5.5s21.666 10.167 30.999 19.5s18.166 22.5 26.499 39.5s16.833 39.167 25.5 66.5l-186 483h93l136 -374l137 374h93zM343.005 709.998l-113 -139h-80l84 139h109z" />
    <glyph glyph-name="thorn" unicode="&#xfe;" horiz-adv-x="586" 
d="M74 714h83v-264c12.667 15.333 32 29.333 58 42s56 19 90 19c73.333 0 129.166 -22.5 167.499 -67.5s57.5 -109.167 57.5 -192.5c0 -84 -19.167 -148.5 -57.5 -193.5s-94.166 -67.5 -167.499 -67.5c-36 0 -66 5.5 -90 16.5s-43.333 25.833 -58 44.5v-233h-83v896z
M298 443c-43.333 0 -77.666 -16 -102.999 -48s-38 -80 -38 -144c0 -64.667 12.667 -113.167 38 -145.5s59.666 -48.5 102.999 -48.5c98.667 0 148 64.667 148 194c0 128 -49.333 192 -148 192z" />
    <glyph glyph-name="ydieresis" unicode="&#xff;" horiz-adv-x="468" 
d="M266 1c-13.333 -34 -25.9951 -62.6689 -37.9951 -86.002s-25.5 -42.166 -40.5 -56.499s-32.5 -24.666 -52.5 -30.999s-44.333 -9.5 -73 -9.5c-9.33301 0 -21.833 0.833008 -37.5 2.5s-28.167 4.16699 -37.5 7.5v69c13.333 -4 26.666 -6.83301 39.999 -8.5
s25.666 -2.5 36.999 -2.5c15.333 0 28.666 1.83301 39.999 5.5s21.666 10.167 30.999 19.5s18.166 22.5 26.499 39.5s16.833 39.167 25.5 66.5l-186 483h93l136 -374l137 374h93zM164.005 605.998v95h86v-95h-86zM363.005 605.998v95h87v-95h-87z" />
    <glyph glyph-name="dotlessi" unicode="&#x131;" horiz-adv-x="244" 
d="M162 0h-84v500h84v-500z" />
    <glyph glyph-name="Lslash" unicode="&#x141;" horiz-adv-x="508" 
d="M181 342v-271h318v-71h-409v305l-84 -32v82l84 32v325h91v-291l169 68v-83z" />
    <glyph glyph-name="lslash" unicode="&#x142;" horiz-adv-x="225" 
d="M153 0h-83v309l-79 -40v85l79 37v314h83v-272l78 40v-82l-78 -40v-351z" />
    <glyph glyph-name="OE" unicode="&#x152;" horiz-adv-x="907" 
d="M555 73l311.002 -0.00195312v-73h-401v35c-30.667 -28.667 -75.667 -43 -135 -43c-43.333 0 -82.5 8.33301 -117.5 25s-65 40 -90 70s-44.167 66 -57.5 108s-20 88.333 -20 139c0 54 6.66699 102.833 20 146.5s32.333 80.834 57 111.501s54.667 54.334 90 71.001
s74.666 25 117.999 25c30 0 56.167 -3.83301 78.5 -11.5s41.166 -18.167 56.499 -31.5v39h405v-73h-315v-212h273v-74h-273v-252zM330.002 70.998c32.667 0 59.999 6.66797 81.999 20.001s39.667 31 53 53v389c-11.333 21.333 -27.166 39.666 -47.499 54.999
s-49.5 23 -87.5 23c-59.333 0 -106 -23.333 -140 -70s-51 -115.667 -51 -207c0 -82.667 17 -147.167 51 -193.5s80.667 -69.5 140 -69.5z" />
    <glyph glyph-name="oe" unicode="&#x153;" horiz-adv-x="881" 
d="M607 57c37.333 0 66.8311 9.99902 88.498 29.999s32.5 47.667 32.5 83h84c0 -55.333 -18.167 -99.166 -54.5 -131.499s-86.5 -48.5 -150.5 -48.5c-37.333 0 -70.666 6.5 -99.999 19.5s-54.333 31.5 -75 55.5c-18.667 -23.333 -41.834 -41.666 -69.501 -54.999
s-60.5 -20 -98.5 -20c-76.667 0 -134.5 23 -173.5 69s-58.5 110 -58.5 192c0 80.667 19.5 144.167 58.5 190.5s96.833 69.5 173.5 69.5c38 0 70.833 -6.83301 98.5 -20.5s50.834 -32.5 69.501 -56.5c20.667 23.333 45.667 42 75 56s63 21 101 21
c36 0 67.167 -6.33301 93.5 -19s48.333 -29.667 66 -51s30.834 -46.333 39.501 -75s13 -59.334 13 -92.001v-16c0 -6 -0.666992 -15.333 -2 -28h-354c2 -56.667 15.5 -99.667 40.5 -129s59.167 -44 102.5 -44zM263.998 55.999c30 0 55.8311 7.66992 77.498 23.0029
s38.834 37.666 51.501 66.999c-5.33301 14.667 -9.16602 30.834 -11.499 48.501s-3.5 36.5 -3.5 56.5c0 19.333 0.833008 37.166 2.5 53.499s5.16699 32.166 10.5 47.499c-11.333 32 -27.833 55.667 -49.5 71s-47.5 23 -77.5 23c-47.333 0 -83.5 -16.5 -108.5 -49.5
s-37.5 -81.5 -37.5 -145.5c0 -64.667 12.5 -113.334 37.5 -146.001s61.167 -49 108.5 -49zM733.996 298.002c-0.666992 44 -12.333 79.166 -35 105.499s-53.667 39.5 -93 39.5c-21.333 0 -40.5 -3.83301 -57.5 -11.5s-31.5 -18.167 -43.5 -31.5s-21.333 -28.666 -28 -45.999
s-11 -36 -13 -56h270z" />
    <glyph glyph-name="Scaron" unicode="&#x160;" horiz-adv-x="597" 
d="M315 64c44 0.666992 79.6699 10.8359 107.003 30.5029s41 47.167 41 82.5c0 28.667 -9.5 51.5 -28.5 68.5s-43 31.5 -72 43.5s-60.167 23 -93.5 33s-64.5 22.5 -93.5 37.5s-53 34.167 -72 57.5s-28.5 54.333 -28.5 93c0 25.333 5.33301 48.833 16 70.5
s26.167 40.334 46.5 56.001s44.833 27.834 73.5 36.501s61 13 97 13c70.667 0 125.334 -16.5 164.001 -49.5s58 -79.5 58 -139.5h-91c0 38 -11.5 67.167 -34.5 87.5s-55.167 30.5 -96.5 30.5c-24.667 0 -46 -2.83301 -64 -8.5s-32.667 -13.167 -44 -22.5
s-19.833 -20.333 -25.5 -33s-8.5 -26.334 -8.5 -41.001c0 -20 5.5 -36.667 16.5 -50s25.667 -25 44 -35s39.166 -18.667 62.499 -26l71.5 -23c24.333 -8 48.166 -17 71.499 -27s44.166 -22.333 62.499 -37s33 -32.334 44 -53.001s16.5 -46 16.5 -76
c0 -28 -5.5 -53.667 -16.5 -77s-26.833 -43.5 -47.5 -60.5s-45.834 -30.167 -75.501 -39.5s-63.167 -14 -100.5 -14c-86 0 -148.667 17.167 -188 51.5s-59 88.166 -59 161.499h91c0 -24 2.5 -44.833 7.5 -62.5s13.5 -32.334 25.5 -44.001s28 -20.334 48 -26.001
s45 -8.5 75 -8.5zM118.003 915.002h95l74 -89l71 89h98l-127 -151h-80z" />
    <glyph glyph-name="scaron" unicode="&#x161;" horiz-adv-x="451" 
d="M222 443c-28 0 -51.501 -6.50195 -70.501 -19.502s-28.5 -31.167 -28.5 -54.5c0 -20 7.5 -35.167 22.5 -45.5s33.5 -18.666 55.5 -24.999s46.167 -12.166 72.5 -17.499s50.5 -13.166 72.5 -23.499s40.5 -24.666 55.5 -42.999s22.5 -43.833 22.5 -76.5
c0 -23.333 -5.16699 -44.166 -15.5 -62.499s-24.333 -33.833 -42 -46.5s-38.5 -22.334 -62.5 -29.001s-50 -10 -78 -10c-65.333 0 -115.833 12.833 -151.5 38.5s-53.5 66.5 -53.5 122.5h85c0 -35.333 10.5 -59.833 31.5 -73.5s50.5 -20.5 88.5 -20.5
c33.333 0 60.5 7.66699 81.5 23s31.5 34.666 31.5 57.999c0 20.667 -7.5 36.334 -22.5 47.001s-33.833 19.167 -56.5 25.5s-47.167 12 -73.5 17s-50.833 12.5 -73.5 22.5s-41.5 24 -56.5 42s-22.5 43 -22.5 75c0 22.667 5.16699 43 15.5 61s24.333 33.167 42 45.5
s37.834 21.666 60.501 27.999s46 9.5 70 9.5c65.333 0 114.333 -13 147 -39s49 -66.667 49 -122h-83c0 35.333 -9.83301 59.666 -29.5 72.999s-47.5 20 -83.5 20zM90.999 731.998h95l74 -89l71 89h98l-127 -151h-80z" />
    <glyph glyph-name="Ydieresis" unicode="&#x178;" horiz-adv-x="565" 
d="M290 369l171 315h102l-228 -402v-282h-92v282l-227 402h101l172 -315h1zM222 742v95h86v-95h-86zM421 742v95h87v-95h-87z" />
    <glyph glyph-name="Zcaron" unicode="&#x17d;" horiz-adv-x="530" 
d="M383 610h-334v74h436v-70l-326 -541h332v-73h-439v65zM118 915h95l74 -89l71 89h98l-127 -151h-80z" />
    <glyph glyph-name="zcaron" unicode="&#x17e;" horiz-adv-x="451" 
d="M39 500h389v-49l-294 -383h303v-68h-419v51l294 382h-273v67zM91 732h95l74 -89l71 89h98l-127 -151h-80z" />
    <glyph glyph-name="florin" unicode="&#x192;" horiz-adv-x="512" 
d="M461 641c-7.33301 0.666992 -14.8271 1.50195 -22.4941 2.50195s-13.834 1.5 -18.501 1.5c-17.333 0 -32 -5.16699 -44 -15.5s-22.333 -24.333 -31 -42s-15.667 -38 -21 -61s-9.66602 -47.167 -12.999 -72.5l-6 -32h119v-63h-128l-56 -364
c-4 -26.667 -9.83301 -51 -17.5 -73s-18.167 -40.667 -31.5 -56s-30 -27.333 -50 -36s-44.333 -13 -73 -13c-8 0 -17 0.833008 -27 2.5s-20.333 3.16699 -31 4.5l15 69c9.33301 -3.33301 18.166 -6 26.499 -8s14.833 -3 19.5 -3c19.333 0 37.666 9.33301 54.999 28
s29 47.667 35 87c9.33301 56.667 18.666 116.667 27.999 180s17.666 124 24.999 182h-126v63h134c3.33301 26 7.83301 55.667 13.5 89s15 64.666 28 93.999s30.5 54.166 52.5 74.499s51 30.5 87 30.5c11.333 0 22.666 -0.666992 33.999 -2s23.666 -3.33301 36.999 -6z" />
    <glyph glyph-name="circumflex" unicode="&#x2c6;" horiz-adv-x="390" 
d="M364 571h-98l-71 89l-74 -89h-95l130 152h81z" />
    <glyph glyph-name="caron" unicode="&#x2c7;" horiz-adv-x="390" 
d="M26 732h95l74 -89l71 89h98l-127 -151h-80z" />
    <glyph glyph-name="breve" unicode="&#x2d8;" horiz-adv-x="390" 
d="M194 650c22 0 40.168 5.83301 54.501 17.5s23.5 31.5 27.5 59.5h66c-2.66699 -43.333 -16.834 -77.333 -42.501 -102s-60.834 -37 -105.501 -37s-79.5 12.333 -104.5 37s-39.167 58.667 -42.5 102h67c3.33301 -28 11.833 -47.833 25.5 -59.5s31.834 -17.5 54.501 -17.5z
" />
    <glyph glyph-name="dotaccent" unicode="&#x2d9;" horiz-adv-x="390" 
d="M240 692v-111h-91v111h91z" />
    <glyph glyph-name="ring" unicode="&#x2da;" horiz-adv-x="390" 
d="M194 776c14.667 0 28.667 -2.66699 42 -8s25 -12.666 35 -21.999s18 -20.5 24 -33.5s9 -26.833 9 -41.5c0 -15.333 -3 -29.333 -9 -42s-14 -23.5 -24 -32.5s-21.667 -16.167 -35 -21.5s-27.333 -8 -42 -8s-28.5 2.66699 -41.5 8s-24.5 12.5 -34.5 21.5
s-17.833 19.833 -23.5 32.5s-8.5 26.667 -8.5 42c0 14.667 2.83301 28.5 8.5 41.5s13.5 24.167 23.5 33.5s21.5 16.666 34.5 21.999s26.833 8 41.5 8zM194 724c-14.667 0 -26.834 -5 -36.501 -15s-14.5 -22.667 -14.5 -38c0 -14.667 4.83301 -27 14.5 -37
s21.834 -15 36.501 -15c14 0 25.833 5 35.5 15s14.5 22.333 14.5 37c0 15.333 -4.83301 28 -14.5 38s-21.5 15 -35.5 15z" />
    <glyph glyph-name="ogonek" unicode="&#x2db;" horiz-adv-x="390" 
d="M298 -3c-14 -6 -29.499 -12.998 -46.499 -20.998s-32.833 -17 -47.5 -27s-27 -21.167 -37 -33.5s-15 -25.5 -15 -39.5c0 -18 11.667 -27 35 -27c7.33301 0 16 1.5 26 4.5s20.333 6.5 31 10.5s20.834 8.5 30.501 13.5l25.5 13.5l24 -48
c-19.333 -13.333 -42.333 -26 -69 -38s-55 -18 -85 -18c-13.333 0 -26.333 1.5 -39 4.5s-23.834 8 -33.501 15s-17.334 16 -23.001 27s-8.5 24.5 -8.5 40.5c0 25.333 8.33301 46.666 25 63.999s37 31.666 61 42.999s49.333 20.5 76 27.5s50 12.5 70 16.5v-28z" />
    <glyph glyph-name="tilde" unicode="&#x2dc;" horiz-adv-x="390" 
d="M29 584c0.666992 13.333 3.49902 26.833 8.49902 40.5s11.667 26 20 37s18.333 19.833 30 26.5s24.834 10 39.501 10c12.667 0 25.5 -2.16699 38.5 -6.5s25.667 -9.33301 38 -15s24 -10.667 35 -15s20.833 -6.5 29.5 -6.5c9.33301 0 16.5 4.83301 21.5 14.5
s8.5 20.167 10.5 31.5h61c-2 -14.667 -5.33301 -28.834 -10 -42.501s-11 -25.667 -19 -36s-17.833 -18.5 -29.5 -24.5s-25.5 -9 -41.5 -9c-12 0 -23.667 2.16699 -35 6.5s-22.5 9.33301 -33.5 15s-22.167 10.667 -33.5 15s-23.333 6.5 -36 6.5c-8 0 -15 -5.16699 -21 -15.5
s-9.66699 -21.166 -11 -32.499h-62z" />
    <glyph glyph-name="hungarumlaut" unicode="&#x2dd;" horiz-adv-x="390" 
d="M204 727l-101 -156h-81l79 156h103zM367 727l-111 -156h-82l90 156h103z" />
    <glyph glyph-name="Omega" unicode="&#x3a9;" horiz-adv-x="606" 
d="M325 619c-28 0 -53.833 -5 -77.5 -15s-44 -24.833 -61 -44.5s-30.167 -44 -39.5 -73s-14 -62.5 -14 -100.5c0 -45.333 4.16699 -84.833 12.5 -118.5s19.333 -63 33 -88s29.167 -47 46.5 -66s35 -36.833 53 -53.5v-60h-221v68h122v5c-18 16.667 -35 35 -51 55
s-29.833 42.5 -41.5 67.5s-21 52.833 -28 83.5s-10.5 65 -10.5 103c0 50 7.5 94.333 22.5 133s35.333 71.167 61 97.5s55.167 46.333 88.5 60s68.333 20.5 105 20.5s71.667 -6.66699 105 -20s62.833 -33 88.5 -59s46 -58.5 61 -97.5s22.5 -83.833 22.5 -134.5
c0 -38 -3.5 -72.333 -10.5 -103s-16.333 -58.5 -28 -83.5s-25.5 -47.5 -41.5 -67.5s-33 -38.333 -51 -55v-5h122v-68h-221v60c18 16.667 35.667 34.5 53 53.5s32.833 41 46.5 66s24.667 54.333 33 88s12.5 73.167 12.5 118.5c0 36.667 -4.83301 69.5 -14.5 98.5
s-23 53.5 -40 73.5s-37.167 35.167 -60.5 45.5s-49 15.5 -77 15.5z" />
    <glyph glyph-name="pi" unicode="&#x3c0;" horiz-adv-x="575" 
d="M524 5c-5.33301 -2.66699 -13.9971 -4.83203 -25.9971 -6.49902s-23.667 -2.5 -35 -2.5c-35.333 0 -60.5 8.66699 -75.5 26s-22.5 40.666 -22.5 69.999v334h-157v-426h-85v426h-79v74h497v-74h-91v-325c0 -12 2.16699 -20.5 6.5 -25.5s10.166 -7.5 17.499 -7.5
s15.666 0.5 24.999 1.5s17.666 2.5 24.999 4.5v-69z" />
    <glyph glyph-name="uni0E00" unicode="&#xe00;" 
 />
    <glyph glyph-name="uni0E01" unicode="&#xe01;" horiz-adv-x="560" 
d="M411 0l-0.00195312 327.998c0 42 -11.833 74.167 -35.5 96.5s-54.834 33.5 -93.501 33.5c-15.333 0 -29.666 -2 -42.999 -6s-25.5 -9 -36.5 -15s-20.333 -12.333 -28 -19s-13.5 -12.667 -17.5 -18l68 -36v-53c-5.33301 -1.33301 -10.666 -3.16602 -15.999 -5.49902
s-10.5 -5.66602 -15.5 -9.99902s-9 -9.66602 -12 -15.999s-4.5 -14.166 -4.5 -23.499v-256h-91v252c0 19.333 5 35.666 15 48.999s22.667 24 38 32l-79 39v45c7.33301 9.33301 17.666 20.666 30.999 33.999s29.5 26 48.5 38s40.333 22.333 64 31s49.834 13 78.501 13
c32 0 61.5 -4 88.5 -12s50.333 -20.167 70 -36.5s34.834 -37.5 45.501 -63.5s16 -57 16 -93v-328h-91z" />
    <glyph glyph-name="uni0E02" unicode="&#xe02;" horiz-adv-x="504" 
d="M172 428c0 11.333 -2.50195 19.666 -7.50195 24.999s-16.167 8 -33.5 8h-54v65h67c42.667 0 72 -8 88 -24s24 -40.333 24 -73c0 -20 -4.66699 -37.833 -14 -53.5s-19.833 -31 -31.5 -46s-22.167 -30 -31.5 -45s-14 -31.833 -14 -50.5v-79c0 -32 8.33301 -54.5 25 -67.5
s41.334 -19.5 74.001 -19.5s57 6.83301 73 20.5s24 36.167 24 67.5v370h91v-370c0 -24 -4 -46 -12 -66s-19.833 -37.167 -35.5 -51.5s-35.167 -25.666 -58.5 -33.999s-50.666 -12.5 -81.999 -12.5c-61.333 0 -107.833 14.333 -139.5 43s-47.5 68 -47.5 118v97
c0 20.667 5 39.167 15 55.5s20.833 31.5 32.5 45.5l32.5 39c10 12 15 24.667 15 38z" />
    <glyph glyph-name="uni0E03" unicode="&#xe03;" horiz-adv-x="533" 
d="M270 455c0 -26 -4.33008 -48.335 -12.9971 -67.002s-18.334 -36 -29.001 -52s-20.334 -31.667 -29.001 -47s-13 -32.666 -13 -51.999v-88c0 -31.333 9.5 -52.666 28.5 -63.999s41.833 -17 68.5 -17c32.667 0 58.667 6 78 18s29 33.667 29 65v375h91v-375
c0 -48 -17.333 -86.5 -52 -115.5s-83.334 -43.5 -146.001 -43.5c-61.333 0 -108 13.5 -140 40.5s-48 65.5 -48 115.5v96c0 22.667 4.66699 41.667 14 57s19.833 30.333 31.5 45s22.167 30 31.5 46s14 36 14 60l-37 -19h-9l-63 25v68h41l46 -35l56 35
c13.333 0 25 -4.5 35 -13.5s15 -21.833 15 -38.5v-19z" />
    <glyph glyph-name="uni0E04" unicode="&#xe04;" horiz-adv-x="559" 
d="M272 221c-14.667 0 -28.999 -3.50195 -42.999 -10.502s-26.667 -18 -38 -33s-20.5 -34 -27.5 -57s-10.5 -50.5 -10.5 -82.5v-38h-91v321c0 34.667 5.5 65.334 16.5 92.001s26.167 49 45.5 67s42.666 31.5 69.999 40.5s57.666 13.5 90.999 13.5
c74.667 0 130.334 -17.333 167.001 -52s55 -91 55 -169v-313h-91v313c0 53.333 -10.333 91 -31 113s-54 33 -100 33c-40 0 -72.333 -10.667 -97 -32s-37 -56.666 -37 -105.999v-108c9.33301 30 24.5 51.833 45.5 65.5s46.167 20.5 75.5 20.5h71v-78h-71z" />
    <glyph glyph-name="uni0E05" unicode="&#xe05;" horiz-adv-x="576" 
d="M382 534c51.333 -18.667 87.8291 -44.667 109.496 -78s32.5 -77.333 32.5 -132v-324h-91v324c0 22 -1.16699 40.167 -3.5 54.5s-5.66602 26 -9.99902 35s-9.66602 16.333 -15.999 22s-13.833 10.5 -22.5 14.5l-89 -46l-89 46c-8.66699 -4 -16.167 -8.83301 -22.5 -14.5
s-11.666 -13 -15.999 -22s-7.66602 -20.667 -9.99902 -35s-3.5 -32.5 -3.5 -54.5v-111c9.33301 30 24.5 51.833 45.5 65.5s46.167 20.5 75.5 20.5h71v-78h-71c-14.667 0 -29 -3.5 -43 -10.5s-26.667 -18 -38 -33s-20.5 -34 -27.5 -57s-10.5 -50.5 -10.5 -82.5v-38h-91v322
c0 56 10.333 100.667 31 134s56.667 59.333 108 78l91 -49z" />
    <glyph glyph-name="uni0E06" unicode="&#xe06;" horiz-adv-x="568" 
d="M250 455c0 -26 -4.50098 -48.334 -13.501 -67.001s-18.667 -36 -29 -52s-20 -31.667 -29 -47s-13.5 -32.666 -13.5 -51.999v-46c4 -17.333 10.333 -33.5 19 -48.5s19.334 -28.167 32.001 -39.5s27.334 -20.333 44.001 -27s35.334 -10 56.001 -10c22 0 40 3.33301 54 10
s25 15.667 33 27s13.667 24.333 17 39s5 29.667 5 45v339h91v-344c0 -60.667 -16.167 -107.667 -48.5 -141s-77.833 -50 -136.5 -50c-25.333 0 -46.833 2.66699 -64.5 8s-33 11.833 -46 19.5s-23.833 16.167 -32.5 25.5s-16.334 18 -23.001 26l-10 -70h-81v244
c0 22.667 4.66699 41.667 14 57s19.833 30.333 31.5 45s22.167 30 31.5 46s14 36 14 60l-36 -19h-9l-64 25v68h41l46 -35l56 35c13.333 0 25.166 -4.5 35.499 -13.5s15.5 -21.833 15.5 -38.5v-19z" />
    <glyph glyph-name="uni0E07" unicode="&#xe07;" horiz-adv-x="494" 
d="M357 428c0 15.333 -3.16797 25.999 -9.50098 31.999s-15.166 9 -26.499 9h-64v65h80c37.333 0 65.166 -9.66699 83.499 -29s27.5 -44.666 27.5 -75.999v-212c0 -70.667 -16.333 -125.667 -49 -165s-80 -59 -142 -59c-15.333 0 -28.666 0.666992 -39.999 2
s-21.333 2.66602 -30 3.99902c-10 2 -18.667 4.33301 -26 7l-135 392h92l111 -334c3.33301 -1.33301 7.5 -2.16602 12.5 -2.49902s10.167 -0.5 15.5 -0.5c33.333 0 58.333 12 75 36s25 65 25 123v208z" />
    <glyph glyph-name="uni0E08" unicode="&#xe08;" horiz-adv-x="523" 
d="M87 208l-0.00488281 78.002h44c18.667 0 34.834 -0.833008 48.501 -2.5s25.334 -5.5 35.001 -11.5s18 -15 25 -27s13.5 -28.333 19.5 -49l40 -131c5.33301 20 13 40 23 60l30 62c10 21.333 18.667 43.5 26 66.5s11 47.833 11 74.5c0 40 -11 71.833 -33 95.5
s-53.667 35.5 -95 35.5c-40 0 -73 -8.33301 -99 -25s-39 -41.334 -39 -74.001h-88c0 28 6.83301 52.833 20.5 74.5s31.334 39.667 53.001 54s45.834 25.333 72.501 33s53.334 11.5 80.001 11.5c32 0 61.167 -4.83301 87.5 -14.5s49 -23.334 68 -41.001
s33.833 -39.167 44.5 -64.5s16 -53.666 16 -84.999c0 -34 -4.83301 -65.167 -14.5 -93.5s-21 -55.5 -34 -81.5s-26.333 -51.333 -40 -76s-24.167 -50.334 -31.5 -77.001h-124l-60 177c-4.66699 14 -10.167 22.667 -16.5 26s-15.5 5 -27.5 5h-42z" />
    <glyph glyph-name="uni0E09" unicode="&#xe09;" horiz-adv-x="567" 
d="M186 187c0 -15.333 0.999023 -30.332 2.99902 -44.999s6.16699 -27.667 12.5 -39s15.833 -20.333 28.5 -27s30 -10 52 -10c20.667 0 38.667 3.33301 54 10s28.5 15.667 39.5 27s20.167 24.5 27.5 39.5s13 31.167 17 48.5v155c0 18 -3.66699 34.167 -11 48.5
s-17.333 26.166 -30 35.499s-27.667 16.5 -45 21.5s-35.666 7.5 -54.999 7.5c-18 0 -35.667 -2.16699 -53 -6.5s-32.666 -10.666 -45.999 -18.999s-24.166 -18.666 -32.499 -30.999s-12.5 -26.5 -12.5 -42.5h-88c0 28 6.5 52.833 19.5 74.5s30.333 39.667 52 54
s46.5 25.333 74.5 33s56.667 11.5 86 11.5c72 0 128.167 -16.333 168.5 -49s60.5 -78.667 60.5 -138v-346h-82l-11 66c-7.33301 -8 -14.333 -16.333 -21 -25s-15.334 -16.834 -26.001 -24.501s-24 -13.834 -40 -18.501s-36.667 -7 -62 -7
c-58.667 0 -101.834 16.667 -129.501 50s-41.5 80.333 -41.5 141v31h-48v65h139v-91z" />
    <glyph glyph-name="uni0E0A" unicode="&#xe0a;" horiz-adv-x="528" 
d="M77 250c0 20.667 5.00098 39.1699 15.001 55.5029s20.833 31.5 32.5 45.5l32.5 39c10 12 15 24.667 15 38c0 11.333 -2.5 19.666 -7.5 24.999s-16.167 8 -33.5 8h-54v65h67c42.667 0 72 -8 88 -24s24 -40.333 24 -73c0 -20 -4.66699 -37.833 -14 -53.5
s-19.833 -31 -31.5 -46s-22.167 -30 -31.5 -45s-14 -31.833 -14 -50.5v-73c0 -32 10 -55.5 30 -70.5s46.333 -22.5 79 -22.5s59.667 7.83301 81 23.5s32 39.167 32 70.5v134c0 19.333 -5 35.666 -15 48.999s-26 20 -48 20v60c24.667 3.33301 44.167 13.333 58.5 30
s21.5 44.667 21.5 84h91c0 -78.667 -28 -124.334 -84 -137.001c22 -5.33301 38.667 -15.666 50 -30.999s17 -39 17 -71v-138c0 -23.333 -4.83301 -45.333 -14.5 -66s-23.334 -38.667 -41.001 -54s-39 -27.5 -64 -36.5s-53.167 -13.5 -84.5 -13.5
c-30.667 0 -58.167 4 -82.5 12s-45 19.5 -62 34.5s-30 32.667 -39 53s-13.5 43.166 -13.5 68.499v90z" />
    <glyph glyph-name="uni0E0B" unicode="&#xe0b;" horiz-adv-x="558" 
d="M95 244c0 22.667 4.99707 41.6699 14.9971 57.0029s21.167 30.333 33.5 45s23.5 30 33.5 46s15 36 15 60l-43 -19h-9l-63 25v68h41l48 -35l55 35c15.333 0 28.5 -4.5 39.5 -13.5s16.5 -21.833 16.5 -38.5v-19c0 -26 -4.66699 -48.333 -14 -67s-19.833 -36 -31.5 -52
s-22.167 -31.667 -31.5 -47s-14 -32.666 -14 -51.999v-68c0 -18 3.33301 -33.333 10 -46s15.334 -23.167 26.001 -31.5s22.834 -14.333 36.501 -18s27.5 -5.5 41.5 -5.5c34.667 0 62.834 8.16699 84.501 24.5s32.5 42.166 32.5 77.499v126c0 19.333 -5 35.666 -15 48.999
s-26 20 -48 20v60c24.667 3.33301 44.167 13.333 58.5 30s21.5 44.667 21.5 84h91c0 -78.667 -28 -124.334 -84 -137.001c22 -5.33301 38.667 -15.666 50 -30.999s17 -39 17 -71v-130c0 -24.667 -5 -47.834 -15 -69.501s-24 -40.5 -42 -56.5s-39.833 -28.667 -65.5 -38
s-54.167 -14 -85.5 -14c-30.667 0 -58.5 4.5 -83.5 13.5s-46.5 21.333 -64.5 37s-32 34.167 -42 55.5s-15 44.666 -15 69.999v76z" />
    <glyph glyph-name="uni0E0C" unicode="&#xe0c;" horiz-adv-x="855" 
d="M490 205c8.66699 -44 24 -78.168 46 -102.501s48.667 -36.5 80 -36.5c32 0 55 10.167 69 30.5s21 46.166 21 77.499v352h91v-357c0 -60.667 -13.333 -105.5 -40 -134.5s-68.334 -43.5 -125.001 -43.5c-35.333 0 -63.666 5.83301 -84.999 17.5s-40.333 30.834 -57 57.501
l-6 -66h-84v328c0 42 -9.33301 74.167 -28 96.5s-47.334 33.5 -86.001 33.5c-15.333 0 -29.833 -2 -43.5 -6s-26.334 -9 -38.001 -15s-21.5 -12.333 -29.5 -19s-14 -12.667 -18 -18l68 -36v-53c-5.33301 -1.33301 -10.833 -3.33301 -16.5 -6s-11.167 -6.16699 -16.5 -10.5
s-9.66602 -9.66602 -12.999 -15.999s-5 -14.166 -5 -23.499v-151c0 -11.333 2.66699 -20.666 8 -27.999s13.666 -11 24.999 -11h54v-65h-67c-37.333 0 -64.666 8.66699 -81.999 26s-26 43 -26 77v149c0 19.333 5 35.666 15 48.999s22.667 24 38 32l-79 39v45
c7.33301 9.33301 18 20.666 32 33.999s30.5 26 49.5 38s40.667 22.333 65 31s50.833 13 79.5 13c64.667 0 114.834 -16.167 150.501 -48.5s53.5 -84.5 53.5 -156.5v-123z" />
    <glyph glyph-name="uni0E0D" unicode="&#xe0d;" horiz-adv-x="868" 
d="M719 88c-8.66699 -15.333 -22.668 -28.668 -42.001 -40.001s-47.333 -17 -84 -17c-61.333 0 -106.333 15.667 -135 47s-43 72 -43 122v128c0 42 -10.333 74.167 -31 96.5s-50.334 33.5 -89.001 33.5c-15.333 0 -30 -2 -44 -6s-27 -9 -39 -15s-22.333 -12.333 -31 -19
s-15 -12.667 -19 -18l68 -36v-53c-4.66699 -1.33301 -10 -3.33301 -16 -6s-11.5 -6.16699 -16.5 -10.5s-9.33301 -9.66602 -13 -15.999s-5.5 -14.166 -5.5 -23.499v-151c0 -11.333 2.66699 -20.666 8 -27.999s13.666 -11 24.999 -11h54v-65h-67
c-37.333 0 -64.666 8.66699 -81.999 26s-26 43 -26 77v149c0 19.333 5 35.666 15 48.999s22.667 24 38 32l-79 39v45c7.33301 9.33301 18.166 20.666 32.499 33.999s31.333 26 51 38s41.834 22.333 66.501 31s51.334 13 80.001 13c64.667 0 115.5 -16.167 152.5 -48.5
s55.5 -84.5 55.5 -156.5v-127c0 -18 2.83301 -33 8.5 -45s13.167 -21.667 22.5 -29s20.333 -12.5 33 -15.5s25.667 -4.5 39 -4.5c32.667 0 59.667 8.16699 81 24.5s32 42.166 32 77.499v317h91v-478c0 -60.667 -20 -108.167 -60 -142.5s-99.333 -51.5 -178 -51.5
c-21.333 0 -40.833 0.833008 -58.5 2.5s-33.167 3.5 -46.5 5.5c-15.333 2.66699 -29 5.33398 -41 8.00098v74c13.333 -4.66699 28 -8.33398 44 -11.001c13.333 -2.66699 29.333 -5 48 -7s38.667 -3 60 -3c44.667 0 79.334 9.83301 104.001 29.5s37 51.834 37 96.501v39z" />
    <glyph glyph-name="uni0E0E" unicode="&#xe0e;" horiz-adv-x="594" 
d="M443 328c0 42 -11.166 74.1699 -33.499 96.5029s-52.833 33.5 -91.5 33.5c-14.667 0 -28.667 -2 -42 -6s-25.5 -9 -36.5 -15s-20.5 -12.333 -28.5 -19s-13.667 -12.667 -17 -18l67 -36v-53c-4.66699 -1.33301 -10 -3.33301 -16 -6s-11.667 -6.33398 -17 -11.001
s-9.83301 -10.334 -13.5 -17.001s-5.5 -14.667 -5.5 -24v-153c0 -66.667 -37.667 -100 -113 -100h-48v65h34c22.667 0 34 10.667 34 32v160c0 17.333 6.33301 33 19 47s26 23.667 40 29l-79 39v45c7.33301 9.33301 17.666 20.666 30.999 33.999s29.5 26 48.5 38
s40.333 22.333 64 31s49.834 13 78.501 13c32 0 61.5 -4 88.5 -12s50 -20.167 69 -36.5s33.833 -37.5 44.5 -63.5s16 -57 16 -93v-444c0 -41.333 -11.167 -73 -33.5 -95s-53.833 -33 -94.5 -33h-43l-79 55c-8 -10 -19.5 -20.833 -34.5 -32.5s-31.833 -17.5 -50.5 -17.5h-85
v70h74c8.66699 0 17.167 1.83301 25.5 5.5s16.166 8.16699 23.499 13.5s14 11.333 20 18s11 13 15 19h20l74 -51h32c12.667 0 23 3.66699 31 11s12 20.333 12 39v442z" />
    <glyph glyph-name="uni0E0F" unicode="&#xe0f;" horiz-adv-x="594" 
d="M359 -120l56.001 -36.9971c6.66699 0 13.334 2 20.001 6s10 10.667 10 20v459c0 42 -11.5 74.167 -34.5 96.5s-53.833 33.5 -92.5 33.5c-14.667 0 -28.667 -2 -42 -6s-25.5 -9 -36.5 -15s-20.5 -12.333 -28.5 -19s-13.667 -12.667 -17 -18l67 -36v-53
c-4.66699 -1.33301 -10 -3.33301 -16 -6s-11.667 -6.33398 -17 -11.001s-9.83301 -10.334 -13.5 -17.001s-5.5 -14.667 -5.5 -24v-153c0 -66.667 -37.667 -100 -113 -100h-48v65h34c22.667 0 34 10.667 34 32v160c0 17.333 6.33301 33 19 47s26 23.667 40 29l-79 39v45
c7.33301 9.33301 17.666 20.666 30.999 33.999s29.5 26 48.5 38s40.333 22.333 64 31s49.834 13 78.501 13c32 0 61.5 -4 88.5 -12s50 -20.167 69 -36.5s33.833 -37.5 44.5 -63.5s16 -57 16 -93v-466c0 -32.667 -11.333 -58 -34 -76s-51.667 -27 -87 -27l-65 47l-61 -50
l-59 49c-7.33301 -11.333 -18 -22 -32 -32s-31 -15 -51 -15h-50v70h38c21.333 0 38.666 5.33301 51.999 16s23.666 22.667 30.999 36h20l53 -46l46 46h22z" />
    <glyph glyph-name="uni0E10" unicode="&#xe10;" horiz-adv-x="532" 
d="M326 -143c20.667 0 36.502 5.33105 47.502 15.998s16.5 25.334 16.5 44.001v9c0 21.333 -6.5 39 -19.5 53s-37.833 21 -74.5 21h-88l-46 160c-3.33301 15.333 -8.33301 24.333 -15 27s-16.334 4 -29.001 4h-35v78h38c18.667 0 35.167 -0.666992 49.5 -2s26.5 -5 36.5 -11
s18.333 -15 25 -27s12 -28.667 16 -50l29 -104c16 0 31 2.33301 45 7s26 12.834 36 24.501s17.833 27 23.5 46s8.5 42.833 8.5 71.5v88c0 48 -11.167 84.5 -33.5 109.5s-57.166 37.5 -104.499 37.5c-40 0 -72.333 -8.33301 -97 -25s-37 -41.334 -37 -74.001h-88
c0 28 6.66699 52.833 20 74.5s30.5 39.667 51.5 54s44.667 25.333 71 33s52.833 11.5 79.5 11.5c23.333 0 43.166 -1.66699 59.499 -5s32.166 -5 47.499 -5c32 0 48 17.333 48 52h91c0 -29.333 -7.16699 -52.166 -21.5 -68.499s-34.5 -28.166 -60.5 -35.499
c19.333 -14.667 34.5 -36.667 45.5 -66s16.5 -64.666 16.5 -105.999v-64c0 -27.333 -2 -51.5 -6 -72.5s-9.66699 -39.5 -17 -55.5s-16 -29.667 -26 -41s-21.333 -21.333 -34 -30c22 -4.66699 41.333 -15.834 58 -33.501s25 -41.5 25 -71.5v-19
c0 -41.333 -13 -72.833 -39 -94.5s-61 -32.5 -105 -32.5h-43l-62 50c-8 -10.667 -19.5 -20.667 -34.5 -30s-31.833 -14 -50.5 -14h-89v70h63c23.333 0 42 5.16699 56 15.5s24.333 22.166 31 35.499h33l70 -55h18z" />
    <glyph glyph-name="uni0E11" unicode="&#xe11;" horiz-adv-x="599" 
d="M261 459c14 22.667 32.832 40 56.499 52s53.834 18 90.501 18c41.333 0 73.833 -12.833 97.5 -38.5s35.5 -61.5 35.5 -107.5v-383h-91v386c0 18 -4.5 32.5 -13.5 43.5s-22.833 16.5 -41.5 16.5c-22 0 -40.667 -6.33301 -56 -19s-31.666 -31.667 -48.999 -57
c-16 -24 -29.5 -43 -40.5 -57s-19.833 -25.833 -26.5 -35.5s-11.334 -18.5 -14.001 -26.5s-4 -18 -4 -30v-221h-91v235c0 18 4 33.167 12 45.5s16.833 24 26.5 35s18.5 22.333 26.5 34s12 26.167 12 43.5v63l-44 -23h-9l-64 25v68h35l46 -35l56 35
c13.333 0 25 -4.5 35 -13.5s15 -21.833 15 -38.5v-15z" />
    <glyph glyph-name="uni0E12" unicode="&#xe12;" horiz-adv-x="870" 
d="M532 191c4 -17.333 9.00098 -33.501 15.001 -48.501s13.667 -28.167 23 -39.5s21 -20.333 35 -27s31 -10 51 -10c22 0 39 3.33301 51 10s21 15.667 27 27s9.5 24.333 10.5 39s1.5 29.667 1.5 45v339h91v-344c0 -60.667 -12.833 -107.667 -38.5 -141
s-67.834 -50 -126.501 -50c-20 0 -37.667 2.33301 -53 7s-28.666 10.5 -39.999 17.5s-20.833 15 -28.5 24s-13.834 17.833 -18.501 26.5l-7 -66h-84v318c0 23.333 -1.66699 42.833 -5 58.5s-8 28.667 -14 39s-12.833 18.333 -20.5 24s-15.834 10.5 -24.501 14.5l-75 -52
l-85 50c-8.66699 -4 -17.167 -9.16699 -25.5 -15.5s-15.833 -15.5 -22.5 -27.5s-12.167 -27.667 -16.5 -47s-6.5 -43.666 -6.5 -72.999c0 -26 1.83301 -49 5.5 -69s7.83398 -38.333 12.501 -55l13.5 -47c4.33301 -14.667 7.16602 -29.334 8.49902 -44.001l61 87
c7.33301 10 13.5 20.833 18.5 32.5s7.5 27.167 7.5 46.5h-75v72h161v-48c0 -14 -0.5 -26.667 -1.5 -38s-2.66699 -22 -5 -32s-6 -19.667 -11 -29s-11.5 -19.333 -19.5 -30l-97 -135h-94c-4 19.333 -10.167 39.833 -18.5 61.5s-16.666 44.5 -24.999 68.5
s-15.666 49.333 -21.999 76s-9.5 54.334 -9.5 83.001c0 35.333 3.33301 66.166 10 92.499s16.667 49.333 30 69s29.666 36.334 48.999 50.001s42 25.5 68 35.5l86 -49l70 50c27.333 -5.33301 51.166 -13 71.499 -23s37.333 -23.5 51 -40.5s23.834 -38.167 30.501 -63.5
s10 -56 10 -92v-127z" />
    <glyph glyph-name="uni0E13" unicode="&#xe13;" horiz-adv-x="829" 
d="M490 179c0 -15.333 0.667969 -29.835 2.00098 -43.502s4.83301 -25.667 10.5 -36s14.5 -18.5 26.5 -24.5s29 -9 51 -9c14.667 0 28.834 2.33301 42.501 7s26.167 11.5 37.5 20.5s21 20.167 29 33.5s13.667 28.333 17 45v354h91v-526h-85l-6 66
c-5.33301 -8.66699 -11.5 -17.5 -18.5 -26.5s-15.833 -17 -26.5 -24s-23.834 -12.833 -39.501 -17.5s-34.5 -7 -56.5 -7c-54.667 0 -95.834 16.333 -123.501 49s-41.5 77.334 -41.5 134.001v154c0 42 -9.33301 74.167 -28 96.5s-47.334 33.5 -86.001 33.5
c-15.333 0 -29.833 -2 -43.5 -6s-26.334 -9 -38.001 -15s-21.5 -12.333 -29.5 -19s-14 -12.667 -18 -18l68 -36v-53c-5.33301 -1.33301 -10.833 -3.33301 -16.5 -6s-11.167 -6.16699 -16.5 -10.5s-9.66602 -9.66602 -12.999 -15.999s-5 -14.166 -5 -23.499v-151
c0 -11.333 2.66699 -20.666 8 -27.999s13.666 -11 24.999 -11h54v-65h-67c-37.333 0 -64.666 8.66699 -81.999 26s-26 43 -26 77v149c0 19.333 5 35.666 15 48.999s22.667 24 38 32l-79 39v45c7.33301 9.33301 18 20.666 32 33.999s30.5 26 49.5 38s40.667 22.333 65 31
s50.833 13 79.5 13c64.667 0 114.834 -16.167 150.501 -48.5s53.5 -84.5 53.5 -156.5v-149z" />
    <glyph glyph-name="uni0E14" unicode="&#xe14;" horiz-adv-x="572" 
d="M352 263c0 -15.333 -0.833008 -29.167 -2.5 -41.5s-4.5 -23.833 -8.5 -34.5s-9 -21.167 -15 -31.5s-13 -21.5 -21 -33.5l-87 -122h-92c-6.66699 20.667 -14.5 42.667 -23.5 66s-17.5 47.166 -25.5 71.499s-14.667 49.166 -20 74.499s-8 51 -8 77
c0 39.333 6 74.333 18 105s28.5 56.334 49.5 77.001s45.667 36.334 74 47.001s58.833 16 91.5 16c154 0 231 -79.667 231 -239v-295h-91v295c0 58.667 -11.833 100.667 -35.5 126s-58.5 38 -104.5 38s-81.5 -14 -106.5 -42s-37.5 -70.667 -37.5 -128
c0 -44 4.66699 -83.333 14 -118s19.666 -67 30.999 -97l55 78c10.667 14.667 18.334 28.167 23.001 40.5s7 29.5 7 51.5h-72v68h156v-49z" />
    <glyph glyph-name="uni0E15" unicode="&#xe15;" horiz-adv-x="590" 
d="M131 0c-4 19.333 -10.167 39.834 -18.5 61.501s-16.666 44.5 -24.999 68.5s-15.666 49.333 -21.999 76s-9.5 54.334 -9.5 83.001c0 35.333 3.33301 66.166 10 92.499s16.667 49.333 30 69s29.666 36.334 48.999 50.001s42 25.5 68 35.5l86 -49l70 50
c27.333 -5.33301 51.166 -13 71.499 -23s37.333 -23.5 51 -40.5s23.834 -38.167 30.501 -63.5s10 -56 10 -92v-318h-91v318c0 23.333 -1.66699 42.833 -5 58.5s-8 28.667 -14 39s-12.833 18.333 -20.5 24s-15.834 10.5 -24.501 14.5l-75 -52l-85 50
c-8.66699 -4 -17.167 -9.16699 -25.5 -15.5s-15.833 -15.5 -22.5 -27.5s-12.167 -27.667 -16.5 -47s-6.5 -43.666 -6.5 -72.999c0 -26 1.83301 -49 5.5 -69s8 -38.333 13 -55s10 -32.334 15 -47.001s8.5 -29.334 10.5 -44.001l61 90c6.66699 10.667 12 21.167 16 31.5
s6 25.166 6 44.499h-75v72h161v-48c0 -14 -0.5 -26.667 -1.5 -38s-2.66699 -22 -5 -32s-6 -19.667 -11 -29s-11.5 -19.333 -19.5 -30l-97 -135h-94z" />
    <glyph glyph-name="uni0E16" unicode="&#xe16;" horiz-adv-x="568" 
d="M174 104c0 -11.333 2.66699 -20.667 8 -28s13.666 -11 24.999 -11h54v-65h-67c-37.333 0 -64.666 8.66699 -81.999 26s-26 43 -26 77v149c0 19.333 5 35.666 15 48.999s22.667 24 38 32l-79 39v45c7.33301 9.33301 18 20.666 32 33.999s30.5 26 49.5 38
s40.667 22.333 65 31s50.833 13 79.5 13c32 0 61.667 -4 89 -12s51 -20.167 71 -36.5s35.667 -37.5 47 -63.5s17 -57 17 -93v-328h-91v328c0 42 -12.5 74.167 -37.5 96.5s-56.833 33.5 -95.5 33.5c-15.333 0 -29.833 -2 -43.5 -6s-26.334 -9 -38.001 -15
s-21.5 -12.333 -29.5 -19s-14 -12.667 -18 -18l68 -36v-53c-5.33301 -1.33301 -10.833 -3.33301 -16.5 -6s-11.167 -6.16699 -16.5 -10.5s-9.66602 -9.66602 -12.999 -15.999s-5 -14.166 -5 -23.499v-151v0z" />
    <glyph glyph-name="uni0E17" unicode="&#xe17;" horiz-adv-x="572" 
d="M156 497c0 -7.33301 -0.333008 -15.167 -1 -23.5s-1.66699 -15.833 -3 -22.5c6 8.66699 14 17.834 24 27.501s22.333 18.5 37 26.5s31 14.5 49 19.5s38 7.5 60 7.5c27.333 0 52.666 -3.83301 75.999 -11.5s43.5 -19.334 60.5 -35.001s30.333 -35.167 40 -58.5
s14.5 -51 14.5 -83v-344h-91v343c0 20.667 -3 38 -9 52s-14 25.167 -24 33.5s-21.667 14.166 -35 17.499s-27.333 5 -42 5c-22.667 0 -43.667 -4.16699 -63 -12.5s-36.166 -20.166 -50.499 -35.499s-25.5 -34 -33.5 -56s-12 -46.667 -12 -74v-273h-88v526h91v-29z" />
    <glyph glyph-name="uni0E18" unicode="&#xe18;" horiz-adv-x="546" 
d="M58 378c0 22 5.66602 42.3379 16.999 61.0049s26.833 35 46.5 49s42.334 25 68.001 33s52.5 12 80.5 12c31.333 0 60.5 -3.83301 87.5 -11.5s50.333 -18.667 70 -33s35 -32.333 46 -54s16.5 -46.5 16.5 -74.5h-88c0 32.667 -12.333 57.167 -37 73.5
s-56.334 24.5 -95.001 24.5c-16.667 0 -32.334 -1.5 -47.001 -4.5s-27.5 -7.66699 -38.5 -14s-19.667 -14.333 -26 -24s-9.5 -21.167 -9.5 -34.5c0 -9.33301 1.66699 -17 5 -23s9.5 -10.833 18.5 -14.5s21.333 -6.33398 37 -8.00098s35.834 -2.5 60.501 -2.5
c30 -0.666992 58.667 -2.16699 86 -4.5s51.166 -8.33301 71.499 -18s36.5 -24.334 48.5 -44.001s18 -46.834 18 -81.501v-38c0 -22 -4.33301 -42.333 -13 -61s-21.667 -34.834 -39 -48.501s-39 -24.5 -65 -32.5s-56.667 -12 -92 -12c-143.333 0 -215 50.333 -215 151v77h91
v-74c0 -30.667 11 -51.334 33 -62.001s52.333 -16 91 -16c40 0 69.667 5.33301 89 16s29 31.334 29 62.001v30c0 15.333 -1.5 28 -4.5 38s-9.16699 17.833 -18.5 23.5s-22.666 9.66699 -39.999 12s-40.666 3.83301 -69.999 4.5c-42 0 -76.667 2.5 -104 7.5
s-49 12.5 -65 22.5s-27.167 22.667 -33.5 38s-9.5 33.666 -9.5 54.999z" />
    <glyph glyph-name="uni0E19" unicode="&#xe19;" horiz-adv-x="576" 
d="M429 0l-7.00098 66.002c-6.66699 -8 -14.334 -16.333 -23.001 -25s-19.5 -16.834 -32.5 -24.501s-28.5 -13.834 -46.5 -18.501s-39.333 -7 -64 -7c-58.667 0 -105.167 16.667 -139.5 50s-51.5 80.333 -51.5 141v344h91v-339c0 -15.333 2 -30.333 6 -45
s10.5 -27.667 19.5 -39s20.833 -20.333 35.5 -27s33 -10 55 -10c20.667 0 39.334 3.33301 56.001 10s31.334 15.667 44.001 27s23.167 24.5 31.5 39.5s14.5 31.167 18.5 48.5v335h91v-526h-84z" />
    <glyph glyph-name="uni0E1A" unicode="&#xe1a;" horiz-adv-x="575" 
d="M287 -10c-74.667 0 -130.334 17.333 -167.001 52s-55 91 -55 169v315h91v-317c0 -52 10.333 -89 31 -111s54 -33 100 -33c46.667 0 80.334 11 101.001 33s31 59 31 111v317h91v-315c0 -78 -18.333 -134.333 -55 -169s-92.667 -52 -168 -52z" />
    <glyph glyph-name="uni0E1B" unicode="&#xe1b;" horiz-adv-x="575" 
d="M287 -10c-74.667 0 -130.334 17.333 -167.001 52s-55 91 -55 169v315h91v-317c0 -52 10.333 -89 31 -111s54 -33 100 -33c46.667 0 80.334 11 101.001 33s31 59 31 111v512h91v-510c0 -78 -18.333 -134.333 -55 -169s-92.667 -52 -168 -52z" />
    <glyph glyph-name="uni0E1C" unicode="&#xe1c;" horiz-adv-x="616" 
d="M164 240c0 -8 -0.166992 -16.668 -0.5 -26.001s-0.833008 -18.666 -1.5 -27.999s-1.5 -18.166 -2.5 -26.499l-2.5 -20.5l132 164h39l132 -155c-1.33301 12.667 -2.33301 25.334 -3 38.001c-1.33301 11.333 -2.16602 23 -2.49902 35s-0.5 23.667 -0.5 35v270h91v-526h-74
l-4 12c-2 4.66699 -5.66699 11.167 -11 19.5s-12 17.666 -20 27.999l-26 32l-28 33.5c-22 26 -47 54 -75 84l-71 -83l-27 -34l-24.5 -32c-7.66699 -10 -14 -19.333 -19 -28s-8.5 -15.334 -10.5 -20.001l-4 -12h-78v435c0 32 8.66699 56.5 26 73.5s44.666 25.5 81.999 25.5
h57v-65h-42c-11.333 0 -19.5 -3.5 -24.5 -10.5s-7.5 -16.5 -7.5 -28.5v-190z" />
    <glyph glyph-name="uni0E1D" unicode="&#xe1d;" horiz-adv-x="616" 
d="M164 240c0 -8 -0.166016 -16.667 -0.499023 -26s-0.833008 -18.5 -1.5 -27.5s-1.5 -17.667 -2.5 -26l-2.5 -20.5l134 163h34l135 -154c-1.33301 12.667 -2.33301 25 -3 37c-1.33301 10.667 -2.16602 22.167 -2.49902 34.5s-0.5 24.166 -0.5 35.499v465h91v-721h-78l-2 12
c-0.666992 4.66699 -3.5 11.334 -8.5 20.001s-11.167 18 -18.5 28s-15.666 20.667 -24.999 32l-29 34c-22.667 26 -48.334 53.667 -77.001 83c-27.333 -28.667 -52 -56 -74 -82l-27.5 -33.5c-9 -11 -17 -21.667 -24 -32s-12.833 -19.833 -17.5 -28.5
s-7.33398 -15.667 -8.00098 -21l-1 -12h-82v435c0 32 8.66699 56.5 26 73.5s44.666 25.5 81.999 25.5h57v-65h-42c-11.333 0 -19.5 -3.5 -24.5 -10.5s-7.5 -16.5 -7.5 -28.5v-190z" />
    <glyph glyph-name="uni0E1E" unicode="&#xe1e;" horiz-adv-x="650" 
d="M347 506l118.005 -341c0 6.66699 0.666992 13.667 2 21c0.666992 6 1.66699 12.833 3 20.5s2.66602 15.834 3.99902 24.501l55 295h92l-98 -526h-77l-7 27c-0.666992 4 -2.83398 11.833 -6.50098 23.5s-8.33398 25.667 -14.001 42l-19 53.5l-20.5 58l-55 152l-56 -152
l-21 -58l-18.5 -53.5c-5.66699 -16.333 -10.334 -30.333 -14.001 -42s-5.83398 -19.5 -6.50098 -23.5l-7 -27h-76l-99 526h92l55 -295c1.33301 -8.66699 2.5 -16.834 3.5 -24.501s2.16699 -14.5 3.5 -20.5l2 -21l118 341h47z" />
    <glyph glyph-name="uni0E1F" unicode="&#xe1f;" horiz-adv-x="650" 
d="M347 506l118.003 -347c0 6 0.666992 12.667 2 20c0.666992 6 1.66699 13 3 21l4 25l84 496h92l-127 -721h-77l-7 27c-0.666992 4 -2.83398 11.833 -6.50098 23.5s-8.33398 25.667 -14.001 42l-19 53.5l-20.5 58l-55 152l-56 -152l-21 -58l-18.5 -53.5
c-5.66699 -16.333 -10.334 -30.333 -14.001 -42s-5.83398 -19.5 -6.50098 -23.5l-7 -27h-76l-99 526h92l55 -301c1.33301 -8.66699 2.5 -17 3.5 -25s2.16699 -15 3.5 -21c0.666992 -7.33301 1.33398 -14 2.00098 -20l118 347h47z" />
    <glyph glyph-name="uni0E20" unicode="&#xe20;" horiz-adv-x="601" 
d="M127 257c0 17.333 5.5 33.0029 16.5 47.0029s23.833 23.667 38.5 29l-79 39v45c7.33301 9.33301 17.666 20.666 30.999 33.999s29.5 26 48.5 38s40.333 22.333 64 31s49.834 13 78.501 13c32 0 61.333 -4 88 -12s49.5 -20.167 68.5 -36.5s33.833 -37.5 44.5 -63.5
s16 -57 16 -93v-328h-91v328c0 42 -11.333 74.167 -34 96.5s-53.334 33.5 -92.001 33.5c-15.333 0 -29.666 -2 -42.999 -6s-25.5 -9 -36.5 -15s-20.5 -12.333 -28.5 -19s-13.667 -12.667 -17 -18l68 -36v-53c-5.33301 -1.33301 -11 -3.33301 -17 -6
s-11.5 -6.33398 -16.5 -11.001s-9.33301 -10.334 -13 -17.001s-5.5 -14.667 -5.5 -24v-153c0 -66.667 -37.667 -100 -113 -100h-48v65h39c22 0 33 10.667 33 32v160z" />
    <glyph glyph-name="uni0E21" unicode="&#xe21;" horiz-adv-x="578" 
d="M65 0l-0.00195312 525.998h91v-335c4 -17.333 10.333 -33.5 19 -48.5s19.334 -28.167 32.001 -39.5s27.334 -20.333 44.001 -27s35.334 -10 56.001 -10c22 0 40.333 3.33301 55 10s26.5 15.667 35.5 27s15.333 24.333 19 39s5.5 29.667 5.5 45v339h91v-344
c0 -60.667 -17.167 -107.667 -51.5 -141s-80.833 -50 -139.5 -50c-25.333 0 -46.833 2.33301 -64.5 7s-33 10.834 -46 18.501s-23.833 15.834 -32.5 24.501s-16.334 17 -23.001 25l-7 -66h-84z" />
    <glyph glyph-name="uni0E22" unicode="&#xe22;" horiz-adv-x="563" 
d="M66 178c0 25.333 7.49902 46.833 22.499 64.5s35.167 29.834 60.5 36.501c-26.667 5.33301 -47.834 19.333 -63.501 42s-23.5 48.334 -23.5 77.001c0 20.667 3.83301 39 11.5 55s18.334 29.5 32.001 40.5s29.334 19.167 47.001 24.5s36.5 8 56.5 8h59v-67h-48
c-25.333 0 -44.5 -4.83301 -57.5 -14.5s-19.5 -25.167 -19.5 -46.5c0 -50.667 27.667 -76 83 -76h59v-72h-55c-24 0 -42.833 -5.66699 -56.5 -17s-20.5 -28.333 -20.5 -51v-20c0 -29.333 9.83301 -52.333 29.5 -69s52.5 -25 98.5 -25c40 0 71 8.16699 93 24.5
s33 42.166 33 77.499v356h91v-362c0 -24 -4.5 -46.333 -13.5 -67s-22.667 -38.834 -41 -54.501s-41 -28 -68 -37s-58.5 -13.5 -94.5 -13.5c-71.333 0 -125 15.667 -161 47s-54 72 -54 122v17z" />
    <glyph glyph-name="uni0E23" unicode="&#xe23;" horiz-adv-x="511" 
d="M251 459c-35.333 0 -60.835 -7.50391 -76.502 -22.5039s-23.5 -33.167 -23.5 -54.5c0 -19.333 7.5 -33.666 22.5 -42.999s33.5 -17 55.5 -23s46.167 -11.5 72.5 -16.5s50.5 -12.5 72.5 -22.5s40.5 -24.167 55.5 -42.5s22.5 -43.166 22.5 -74.499
c0 -21.333 -3.33301 -41.666 -10 -60.999s-18 -36.333 -34 -51s-37.167 -26.334 -63.5 -35.001s-58.833 -13 -97.5 -13c-59.333 0 -105.666 14.667 -138.999 44s-50 68 -50 116h89c0 -25.333 7.5 -46 22.5 -62s40.833 -24 77.5 -24c42 0 71.5 6.33301 88.5 19
s25.5 32.667 25.5 60c0 20.667 -7.5 36.167 -22.5 46.5s-33.5 18.5 -55.5 24.5s-46.167 11.5 -72.5 16.5s-50.5 12.333 -72.5 22s-40.5 23.334 -55.5 41.001s-22.5 42.5 -22.5 74.5c0 22 4.66699 42.333 14 61s22.333 35 39 49s36.834 25 60.501 33s49.5 12 77.5 12
c63.333 0 112.5 -14.667 147.5 -44s52.5 -72.333 52.5 -129h-88c0 32.667 -8.66699 57.334 -26 74.001s-46 25 -86 25z" />
    <glyph glyph-name="uni0E24" unicode="&#xe24;" horiz-adv-x="559" 
d="M174 104c0 -11.333 2.66797 -20.667 8.00098 -28s13.666 -11 24.999 -11h54v-65h-67c-37.333 0 -64.666 8.66699 -81.999 26s-26 43 -26 77v149c0 19.333 5 35.666 15 48.999s22.667 24 38 32l-79 39v45c7.33301 9.33301 18 20.666 32 33.999s30.5 26 49.5 38
s40.667 22.333 65 31s50.833 13 79.5 13c32 0 61.167 -4 87.5 -12s48.833 -20.167 67.5 -36.5s33.167 -37.5 43.5 -63.5s15.5 -57 15.5 -93v-523h-91v523c0 42 -10.833 74.167 -32.5 96.5s-51.834 33.5 -90.501 33.5c-15.333 0 -29.833 -2 -43.5 -6s-26.334 -9 -38.001 -15
s-21.5 -12.333 -29.5 -19s-14 -12.667 -18 -18l68 -36v-53c-5.33301 -1.33301 -10.833 -3.33301 -16.5 -6s-11.167 -6.16699 -16.5 -10.5s-9.66602 -9.66602 -12.999 -15.999s-5 -14.166 -5 -23.499v-151v0z" />
    <glyph glyph-name="uni0E25" unicode="&#xe25;" horiz-adv-x="567" 
d="M159 151c0 -25.333 7.16504 -46 21.498 -62s36.166 -24 65.499 -24c16.667 0 30 1 40 3c6 0.666992 11.333 1.66699 16 3v-71l-23 -4c-14 -2 -31.333 -3 -52 -3c-24 0 -45.833 4.16699 -65.5 12.5s-36.334 19.5 -50.001 33.5s-24.167 30.5 -31.5 49.5
s-11 39.167 -11 60.5v10c0 24.667 4.66699 47.5 14 68.5s22.833 39 40.5 54s39.334 26.667 65.001 35s54.834 12.5 87.501 12.5c32 0 60.833 -5.66699 86.5 -17s43.834 -24 54.501 -38v74c0 36.667 -10.5 64.334 -31.5 83.001s-51.167 28 -90.5 28
c-40.667 0 -72.5 -8.33301 -95.5 -25s-34.5 -41.334 -34.5 -74.001h-88c0 28 6.33301 52.833 19 74.5s29.334 39.667 50.001 54s44 25.333 70 33s52.333 11.5 79 11.5c30.667 0 59.167 -4 85.5 -12s48.833 -19.833 67.5 -35.5s33.334 -35 44.001 -58s16 -49.5 16 -79.5v-348
h-91v143c0 17.333 -4 32.833 -12 46.5s-18.5 25.167 -31.5 34.5s-28 16.5 -45 21.5s-34.5 7.5 -52.5 7.5c-38.667 0 -67.834 -7.83301 -87.501 -23.5s-29.5 -38.167 -29.5 -67.5v-11z" />
    <glyph glyph-name="uni0E26" unicode="&#xe26;" horiz-adv-x="588" 
d="M127 257c0 17.333 5.5 33.0029 16.5 47.0029s23.833 23.667 38.5 29l-79 39v45c7.33301 9.33301 17.666 20.666 30.999 33.999s29.5 26 48.5 38s40.333 22.333 64 31s49.834 13 78.501 13c32 0 61.333 -4 88 -12s49.5 -20.167 68.5 -36.5s33.833 -37.5 44.5 -63.5
s16 -57 16 -93v-523h-91v523c0 42 -11.333 74.167 -34 96.5s-53.334 33.5 -92.001 33.5c-15.333 0 -29.666 -2 -42.999 -6s-25.5 -9 -36.5 -15s-20.5 -12.333 -28.5 -19s-13.667 -12.667 -17 -18l68 -36v-53c-5.33301 -1.33301 -11 -3.33301 -17 -6
s-11.5 -6.33398 -16.5 -11.001s-9.33301 -10.334 -13 -17.001s-5.5 -14.667 -5.5 -24v-153c0 -66.667 -37.667 -100 -113 -100h-48v65h39c22 0 33 10.667 33 32v160z" />
    <glyph glyph-name="uni0E27" unicode="&#xe27;" horiz-adv-x="539" 
d="M399 291c0 32 -3.33105 58.6689 -9.99805 80.002s-16 38.5 -28 51.5s-26.167 22.333 -42.5 28s-34.166 8.5 -53.499 8.5c-34.667 0 -63.5 -8.33301 -86.5 -25s-34.5 -41.334 -34.5 -74.001h-88c0 28 5.5 52.833 16.5 74.5s26 39.667 45 54s41.167 25.333 66.5 33
s52.333 11.5 81 11.5c77.333 0 133.666 -22.667 168.999 -68s53 -108.333 53 -189v-21c0 -40 -4.5 -76.333 -13.5 -109s-22.833 -60.334 -41.5 -83.001s-42.167 -40.167 -70.5 -52.5s-61.833 -18.5 -100.5 -18.5c-30.667 0 -58.334 3.83301 -83.001 11.5
s-45.834 18.5 -63.501 32.5s-31.167 30.833 -40.5 50.5s-14 41.5 -14 65.5h84c0 -26.667 9.5 -47.667 28.5 -63s48.5 -23 88.5 -23c19.333 0 37.5 3 54.5 9s31.667 15.833 44 29.5s22 31.5 29 53.5s10.5 49 10.5 81v52z" />
    <glyph glyph-name="uni0E28" unicode="&#xe28;" horiz-adv-x="559" 
d="M507 0l-90.9971 -0.00292969v313c0 53.333 -10.333 91 -31 113s-54 33 -100 33c-42 0 -74.833 -10.5 -98.5 -31.5s-35.5 -56.5 -35.5 -106.5v-108c9.33301 30 24.5 51.833 45.5 65.5s46.167 20.5 75.5 20.5h71v-78h-71c-14.667 0 -29 -3.5 -43 -10.5s-26.667 -18 -38 -33
s-20.5 -34 -27.5 -57s-10.5 -50.5 -10.5 -82.5v-38h-91v321c0 34.667 5.5 65.334 16.5 92.001s26.167 49 45.5 67s42.666 31.5 69.999 40.5s57.666 13.5 90.999 13.5c22.667 0 42.167 -1.83301 58.5 -5.5s32.166 -5.5 47.499 -5.5c32 0 48 17.333 48 52h91
c0 -29.333 -7.16699 -52.166 -21.5 -68.499s-34.5 -28.166 -60.5 -35.499c7.33301 -6 14.5 -13.167 21.5 -21.5s13.333 -18.833 19 -31.5s10.167 -27.5 13.5 -44.5s5 -37.167 5 -60.5v-313z" />
    <glyph glyph-name="uni0E29" unicode="&#xe29;" horiz-adv-x="632" 
d="M559 211c0 -78 -18.333 -134.333 -55 -169s-92.334 -52 -167.001 -52c-75.333 0 -131.333 17.333 -168 52s-55 91 -55 169v315h91v-317c0 -52 10.333 -89 31 -111s54.334 -33 101.001 -33c46 0 79.333 11 100 33s31 59 31 111v26h-133v78h133v213h91v-213h52v-71l-52 -7
v-24z" />
    <glyph glyph-name="uni0E2A" unicode="&#xe2a;" horiz-adv-x="567" 
d="M393 523c32 0 48.001 17.3301 48.001 51.9971h91c0 -29.333 -7.16699 -52.166 -21.5 -68.499s-34.5 -28.166 -60.5 -35.499c16 -10.667 29.333 -26.167 40 -46.5s16 -45.833 16 -76.5v-348h-91v143c0 17.333 -4.16699 32.833 -12.5 46.5s-19.333 25.167 -33 34.5
s-29.334 16.5 -47.001 21.5s-35.5 7.5 -53.5 7.5c-38.667 0 -67.167 -7.83301 -85.5 -23.5s-27.5 -38.167 -27.5 -67.5v-11c0 -25.333 7.33301 -46 22 -62s36.334 -24 65.001 -24c16.667 0 30 1 40 3c6 0.666992 11.333 1.66699 16 3v-71l-23 -4c-14 -2 -31 -3 -51 -3
c-24.667 0 -46.834 4.16699 -66.501 12.5s-36.334 19.5 -50.001 33.5s-24.167 30.5 -31.5 49.5s-11 39.167 -11 60.5v10c0 50 17.5 90.833 52.5 122.5s85.167 47.5 150.5 47.5c16 0 31.667 -1.5 47 -4.5s29.5 -7.16699 42.5 -12.5s24.333 -11.333 34 -18
s17.167 -13.334 22.5 -20.001v74c0 18 -3.5 34 -10.5 48s-16.333 25.667 -28 35s-25 16.333 -40 21s-30.833 7 -47.5 7c-15.333 0 -30.833 -2.16699 -46.5 -6.5s-29.667 -10.666 -42 -18.999s-22.333 -18.666 -30 -30.999s-11.5 -26.5 -11.5 -42.5h-89
c0 28 6.33301 52.833 19 74.5s29.334 39.667 50.001 54s44.167 25.333 70.5 33s52.833 11.5 79.5 11.5c22.667 0 41.667 -1.66699 57 -5s31 -5 47 -5z" />
    <glyph glyph-name="uni0E2B" unicode="&#xe2b;" horiz-adv-x="585" 
d="M318 352c18.667 2.66699 34.334 6.33301 47.001 11s22.667 11 30 19s12.666 17.833 15.999 29.5s5 26.167 5 43.5v71h91v-78c0 -40.667 -8.33301 -70.5 -25 -89.5s-39.667 -32.5 -69 -40.5c32 2 57.833 -8.5 77.5 -31.5s29.5 -53.5 29.5 -91.5v-195h-91v183
c0 38 -8 63.5 -24 76.5s-36.333 19.5 -61 19.5c-2.66699 0 -7 -0.333008 -13 -1s-15.667 -2 -29 -4l-55 -8.5l-91 -14.5v-251h-91v526h91v-200z" />
    <glyph glyph-name="uni0E2C" unicode="&#xe2c;" horiz-adv-x="630" 
d="M555 0l-76.9961 0.00195312l-9 31c-0.666992 2.66699 -3.33398 7.16699 -8.00098 13.5s-10.834 14 -18.501 23l-25.5 29.5l-29 32l-77 84l-80 -83l-29.5 -32c-9.66699 -10.667 -18.334 -20.667 -26.001 -30s-14 -17.333 -19 -24s-7.83301 -11.334 -8.5 -14.001l-9 -30
h-74v526h88v-369l141 154h36l134 -142v153c0 19.333 -5 35.666 -15 48.999s-26.333 20 -49 20v60c25.333 3.33301 45.166 13.333 59.499 30s21.5 44.667 21.5 84h91c0 -78.667 -28.333 -124.334 -85 -137.001c22.667 -5.33301 39.667 -15.666 51 -30.999s17 -39 17 -71v-326
z" />
    <glyph glyph-name="uni0E2D" unicode="&#xe2d;" horiz-adv-x="542" 
d="M136 179c0 -33.333 10.5 -60.167 31.5 -80.5s53.5 -30.5 97.5 -30.5c42.667 0 74.667 11 96 33s32 59.333 32 112v98c0 54 -11.5 92.167 -34.5 114.5s-54.167 33.5 -93.5 33.5c-36.667 0 -67.334 -8.33301 -92.001 -25s-37 -41.334 -37 -74.001h-88
c0 28 6.33301 52.833 19 74.5s29.167 39.667 49.5 54s43.5 25.333 69.5 33s52.333 11.5 79 11.5c30 0 58.333 -4.33301 85 -13s49.834 -22.167 69.501 -40.5s35.334 -41.5 47.001 -69.5s17.5 -61 17.5 -99v-91c0 -73.333 -18.833 -129.666 -56.5 -168.999
s-91.834 -59 -162.501 -59c-71.333 0 -125.333 16.833 -162 50.5s-55 80.5 -55 140.5v26c0 28 7 49.167 21 63.5s37.667 21.5 71 21.5h98v-78h-79c-9.33301 0 -15.5 -1.5 -18.5 -4.5s-4.5 -8.5 -4.5 -16.5v-16z" />
    <glyph glyph-name="uni0E2E" unicode="&#xe2e;" horiz-adv-x="542" 
d="M484 220c0 -73.333 -18.8311 -129.666 -56.498 -168.999s-91.834 -59 -162.501 -59c-71.333 0 -125.333 16.833 -162 50.5s-55 80.5 -55 140.5v26c0 28 7 49.167 21 63.5s37.667 21.5 71 21.5h98v-78h-79c-9.33301 0 -15.5 -1.5 -18.5 -4.5s-4.5 -8.5 -4.5 -16.5v-16
c0 -33.333 10.5 -60.166 31.5 -80.499s53.5 -30.5 97.5 -30.5c42.667 0 74.667 11 96 33s32 59.333 32 112v98c0 54 -11.5 92.167 -34.5 114.5s-54.167 33.5 -93.5 33.5c-36.667 0 -67.334 -8.33301 -92.001 -25s-37 -41.334 -37 -74.001h-88c0 28 6.33301 52.833 19 74.5
s29.167 39.667 49.5 54s43.5 25.333 69.5 33s52.333 11.5 79 11.5c23.333 0 42.833 -1.66699 58.5 -5s31.167 -5 46.5 -5c32.667 0 49 17.333 49 52h91c0 -29.333 -7.83301 -51.833 -23.5 -67.5s-36.5 -27.167 -62.5 -34.5c18 -15.333 32.5 -35.333 43.5 -60
s16.5 -59.334 16.5 -104.001v-89z" />
    <glyph glyph-name="uni0E2F" unicode="&#xe2f;" horiz-adv-x="409" 
d="M104 0l0.000976562 75h58c41.333 0 72.166 11.667 92.499 35s30.5 62.333 30.5 117v167c-11.333 -14.667 -27.5 -27 -48.5 -37s-46.833 -15 -77.5 -15c-42 0 -75.167 10.5 -99.5 31.5s-36.5 51.5 -36.5 91.5v55h81v-55c0 -18.667 4.16699 -32 12.5 -40
s24.166 -12 47.499 -12c34.667 0 63.334 9 86.001 27s36.667 44.667 42 80h80v-293c0 -34 -3.16699 -65 -9.5 -93s-17.5 -51.833 -33.5 -71.5s-37.5 -35 -64.5 -46s-61.167 -16.5 -102.5 -16.5h-58z" />
    <glyph glyph-name="uni0E30" unicode="&#xe30;" horiz-adv-x="390" 
d="M135 174l0.000976562 -36c0 -11.333 2.16699 -18.333 6.5 -21s11.166 -4 20.499 -4h168v-71h-194c-28 0 -48.5 8.66699 -61.5 26s-19.5 39 -19.5 65v41h80zM135.001 474l0.000976562 -36c0 -11.333 2.16699 -18.333 6.5 -21s11.166 -4 20.499 -4h168v-71h-194
c-28 0 -48.5 8.66699 -61.5 26s-19.5 39 -19.5 65v41h80z" />
    <glyph glyph-name="uni0E31" unicode="&#xe31;" 
d="M-239 753l0.000976562 -43c0 -11.333 2.16699 -18.333 6.5 -21s11.166 -4 20.499 -4h312v-71h-338c-28 0 -48.667 8 -62 24s-20 37 -20 63v52h81z" />
    <glyph glyph-name="uni0E32" unicode="&#xe32;" horiz-adv-x="445" 
d="M298 0l-0.000976562 348c0 36.667 -7.66699 64.334 -23 83.001s-40.666 28 -75.999 28c-30.667 0 -55.5 -8.33301 -74.5 -25s-28.5 -41.334 -28.5 -74.001h-86c0 28 4.83301 52.833 14.5 74.5s23 39.667 40 54s37 25.333 60 33s47.833 11.5 74.5 11.5
c66 0 113.667 -15.833 143 -47.5s44 -77.5 44 -137.5v-348h-88z" />
    <glyph glyph-name="uni0E33" unicode="&#xe33;" horiz-adv-x="445" 
d="M298 0l-0.000976562 348c0 36.667 -7.66699 64.334 -23 83.001s-40.666 28 -75.999 28c-30.667 0 -55.5 -8.33301 -74.5 -25s-28.5 -41.334 -28.5 -74.001h-86c0 28 4.83301 52.833 14.5 74.5s23 39.667 40 54s37 25.333 60 33s47.833 11.5 74.5 11.5
c66 0 113.667 -15.833 143 -47.5s44 -77.5 44 -137.5v-348h-88zM-9.00098 684c0 -28 -9 -50.833 -27 -68.5s-42.333 -26.5 -73 -26.5s-55 8.83301 -73 26.5s-27 40.5 -27 68.5s9 50.833 27 68.5s42.333 26.5 73 26.5s55 -8.83301 73 -26.5s27 -40.5 27 -68.5zM-150.001 684
c0 -12 3.16699 -21.833 9.5 -29.5s16.833 -11.5 31.5 -11.5c14 0 24.167 3.83301 30.5 11.5s9.5 17.5 9.5 29.5c0 11.333 -3.16699 20.833 -9.5 28.5s-16.5 11.5 -30.5 11.5c-14.667 0 -25.167 -3.83301 -31.5 -11.5s-9.5 -17.167 -9.5 -28.5z" />
    <glyph glyph-name="uni0E34" unicode="&#xe34;" 
d="M-64 685v-71h-426v71h426z" />
    <glyph glyph-name="uni0E35" unicode="&#xe35;" 
d="M-64 759v-145h-426v71h344v74h82z" />
    <glyph glyph-name="uni0E36" unicode="&#xe36;" 
d="M-142 659c10.667 0 18.334 3 23.001 9s7 13.333 7 22c0 8 -2.33301 15 -7 21s-12.334 9 -23.001 9c-11.333 0 -19.333 -3 -24 -9s-7 -13 -7 -21c0 -8.66699 2.33301 -16 7 -22s12.667 -9 24 -9zM-228 685c0 28 8.16699 49.5 24.5 64.5s36.833 22.5 61.5 22.5
c23.333 0 43 -7.83301 59 -23.5s24 -35.167 24 -58.5c0 -22.667 -6.83301 -41 -20.5 -55s-34.5 -21 -62.5 -21h-348v71h262z" />
    <glyph glyph-name="uni0E37" unicode="&#xe37;" 
d="M-263 685v74h77v-74h40v74h82v-145h-426v71h227z" />
    <glyph glyph-name="uni0E38" unicode="&#xe38;" 
d="M-152 -173c0 22 -11.333 33 -34 33h-49v65h61c37.333 0 63.333 -8.33301 78 -25s22 -42 22 -76v-123h-78v126z" />
    <glyph glyph-name="uni0E39" unicode="&#xe39;" 
d="M-322 -160c0 6 -1.16699 10.835 -3.5 14.502s-8.16602 5.5 -17.499 5.5h-28v65h49c18.667 0 33.334 -1.16699 44.001 -3.5s18.667 -6.33301 24 -12s8.66602 -13.334 9.99902 -23.001s2 -21.834 2 -36.501v-59c0 -9.33301 3.16699 -17.333 9.5 -24s17.166 -10 32.499 -10
s26.333 3.33301 33 10s10 14.667 10 24v124h80v-126c0 -12 -2.66699 -23.833 -8 -35.5s-13.333 -21.834 -24 -30.501s-23.5 -15.667 -38.5 -21s-32.5 -8 -52.5 -8c-23.333 0 -42.833 2.66699 -58.5 8s-28.167 12.333 -37.5 21s-16 18.834 -20 30.501s-6 23.5 -6 35.5v51z
" />
    <glyph glyph-name="uni0E3A" unicode="&#xe3a;" 
d="M-47 -112c0 -17.333 -5.33301 -31 -16 -41s-25.334 -15 -44.001 -15c-18 0 -32.167 5 -42.5 15s-15.5 23.667 -15.5 41s5.16699 31 15.5 41s24.5 15 42.5 15c18.667 0 33.334 -5 44.001 -15s16 -23.667 16 -41z" />
    <glyph glyph-name="uni0E3F" unicode="&#xe3f;" horiz-adv-x="555" 
d="M226 734h70v-841h-70v841zM161 558l0.000976562 -203.001h103c33.333 0 60.666 8.5 81.999 25.5s32 43.167 32 78.5c0 30.667 -8.33301 54.834 -25 72.501s-45.667 26.5 -87 26.5h-105zM161.001 284.999v-210.999h121c41.333 0 72.333 7.5 93 22.5s31 41.833 31 80.5
c0 39.333 -11 67.166 -33 83.499s-57.667 24.5 -107 24.5h-105zM469.001 459c0 -32 -8.99902 -59.667 -26.999 -83s-40.667 -40 -68 -50c18.667 -4 35.667 -9.5 51 -16.5s28.5 -16.5 39.5 -28.5s19.5 -26.667 25.5 -44s9 -38.333 9 -63c0 -29.333 -5.5 -54.833 -16.5 -76.5
s-26.167 -39.834 -45.5 -54.501s-42.333 -25.5 -69 -32.5s-55.334 -10.5 -86.001 -10.5h-212v632h196c36.667 0 67.834 -4.16699 93.501 -12.5s46.667 -20.166 63 -35.499s28.166 -33.5 35.499 -54.5s11 -44.5 11 -70.5z" />
    <glyph glyph-name="uni0E40" unicode="&#xe40;" horiz-adv-x="289" 
d="M169 107c0 -12 3.16699 -21.999 9.5 -29.999s16.166 -12 29.499 -12h35v-65h-51c-39.333 0 -68.166 9.66699 -86.499 29s-27.5 44.666 -27.5 75.999v421h91v-419z" />
    <glyph glyph-name="uni0E41" unicode="&#xe41;" horiz-adv-x="559" 
d="M169 107c0 -12 3.16699 -21.999 9.5 -29.999s16.166 -12 29.499 -12h35v-65h-51c-39.333 0 -68.166 9.66699 -86.499 29s-27.5 44.666 -27.5 75.999v421h91v-419zM426 107.001c0 -12 3.16797 -21.999 9.50098 -29.999s16.166 -12 29.499 -12h35v-65h-50
c-39.333 0 -68.333 9.66699 -87 29s-28 44.666 -28 75.999v421h91v-419z" />
    <glyph glyph-name="uni0E42" unicode="&#xe42;" horiz-adv-x="294" 
d="M169 107c0 -12 3.16602 -21.998 9.49902 -29.998s16.166 -12 29.499 -12h35v-65h-51c-39.333 0 -68.166 9.66699 -86.499 29s-27.5 44.666 -27.5 75.999v503c0 30 -2.66699 55 -8 75s-12.666 36.333 -21.999 49s-20.333 22.167 -33 28.5s-26.667 11.166 -42 14.499v70
h310v-72h-199c27.333 -8 48.333 -23.833 63 -47.5s22 -60.167 22 -109.5v-509z" />
    <glyph glyph-name="uni0E43" unicode="&#xe43;" horiz-adv-x="294" 
d="M78 516c0 28 5.66504 51.501 16.998 70.501s24 36.167 38 51.5s26.667 30.333 38 45s17 31.334 17 50.001c0 14.667 -5.66699 27.167 -17 37.5s-29 15.5 -53 15.5c-25.333 0 -43.166 -5.5 -53.499 -16.5s-15.5 -23.167 -15.5 -36.5v-36h-88v39c0 38 14.167 68 42.5 90
s66.5 33 114.5 33c22.667 0 43.667 -2.66699 63 -8s36.166 -13.333 50.499 -24s25.5 -24 33.5 -40s12 -34.667 12 -56c0 -22 -5.66699 -41.833 -17 -59.5s-23.666 -34.5 -36.999 -50.5s-25.666 -32.333 -36.999 -49s-17 -35.334 -17 -56.001v-409c0 -12 3.16699 -22 9.5 -30
s16.166 -12 29.499 -12h35v-65h-51c-39.333 0 -68.166 9.66699 -86.499 29s-27.5 44.666 -27.5 75.999v411z" />
    <glyph glyph-name="uni0E44" unicode="&#xe44;" horiz-adv-x="292" 
d="M169 107c0 -12 3.16895 -22 9.50195 -30s16.166 -12 29.499 -12h35v-65h-51c-39.333 0 -68.166 9.66699 -86.499 29s-27.5 44.666 -27.5 75.999v507c0 25.333 2.33301 47 7 65s11 33.167 19 45.5s17.667 22.5 29 30.5s23.666 14.667 36.999 20h-205v72h309v-70
c-13.333 -4 -26.333 -9.66699 -39 -17s-23.834 -17.666 -33.501 -30.999s-17.5 -30 -23.5 -50s-9 -44.333 -9 -73v-497z" />
    <glyph glyph-name="uni0E45" unicode="&#xe45;" horiz-adv-x="445" 
d="M298 -195l-0.00195312 543c0 36.667 -8 64.334 -24 83.001s-39 28 -69 28c-30.667 0 -56.5 -8.33301 -77.5 -25s-31.5 -41.334 -31.5 -74.001h-86c0 28 5.16699 52.833 15.5 74.5s24.333 39.667 42 54s38.334 25.333 62.001 33s48.834 11.5 75.501 11.5
c58.667 0 103.5 -15.833 134.5 -47.5s46.5 -77.5 46.5 -137.5v-543h-88z" />
    <glyph glyph-name="uni0E46" unicode="&#xe46;" horiz-adv-x="497" 
d="M334 394c0 16 -3.16699 28.834 -9.5 38.501s-14.833 14.5 -25.5 14.5l-52 -43h-17c-15.333 15.333 -27.833 26.333 -37.5 33s-20.167 10 -31.5 10c-13.333 0 -24 -4.16699 -32 -12.5s-12 -21.166 -12 -38.499c0 -20.667 5.5 -35 16.5 -43s23.167 -12 36.5 -12h47v-76h-68
c-15.333 0 -30 3.16699 -44 9.5s-26.5 15.166 -37.5 26.499s-19.667 25.166 -26 41.499s-9.5 34.166 -9.5 53.499c0 22 3.5 41.333 10.5 58s16 30.5 27 41.5s23.667 19.167 38 24.5s28.833 8 43.5 8c19.333 0 35.333 -4 48 -12s24.667 -19.667 36 -35l52 45h16
c40 0 70.333 -11.667 91 -35s31 -55.666 31 -96.999v-589h-91v589z" />
    <glyph glyph-name="uni0E47" unicode="&#xe47;" 
d="M-95 601h-92.001l-61 40l-67 -40h-35c-13.333 0 -25.666 2.83301 -36.999 8.5s-21.333 13 -30 22s-15.5 19.333 -20.5 31s-7.5 23.5 -7.5 35.5v21c0 30.667 12 56.667 36 78s58 32 102 32h212v-65h-209c-24 0 -40.833 -4 -50.5 -12s-14.5 -19 -14.5 -33v-13
c0 -12.667 3.5 -21.667 10.5 -27s13.833 -8 20.5 -8h23l58 31h22l70 -31h70v-70z" />
    <glyph glyph-name="uni0E48" unicode="&#xe48;" 
d="M-142 811v154h73v-154h-73z" />
    <glyph glyph-name="uni0E49" unicode="&#xe49;" 
d="M-68 872h168v-62h-246v66c0 8 -1.33301 13.333 -4 16s-7.66699 4 -15 4h-69v62h108c21.333 0 36.333 -4.5 45 -13.5s13 -23.167 13 -42.5v-30z" />
    <glyph glyph-name="uni0E4A" unicode="&#xe4a;" 
d="M-98 936c4 3.33301 9.5 6.33301 16.5 9s14.167 4 21.5 4c26 0 46.333 -6.5 61 -19.5s22 -29.833 22 -50.5v-5h93v-63h-93h-65v50c0 18.667 -9 28 -27 28h-10l-30 -27h-16l-32 27h-12c-18 0 -27 -13.667 -27 -41v-37h-72v44c0 30.667 8 54 24 70s38.333 24 67 24
c9.33301 0 17 -1.16699 23 -3.5s11.667 -5.5 17 -9.5l19 -21z" />
    <glyph glyph-name="uni0E4B" unicode="&#xe4b;" 
d="M-72 871v-60h-70v60h-70v61h70v62h70v-62h69v-61h-69z" />
    <glyph glyph-name="uni0E4C" unicode="&#xe4c;" 
d="M-196 760l-78.001 0.000976562v38c0 35.333 8.5 61.666 25.5 78.999s44.5 26 82.5 26h140v-71h-137c-11.333 0 -19.666 -2.33301 -24.999 -7s-8 -12.667 -8 -24v-41z" />
    <glyph glyph-name="uni0E4D" unicode="&#xe4d;" 
d="M-9 684c0 -28 -9 -50.833 -27 -68.5s-42.333 -26.5 -73 -26.5s-55 8.83301 -73 26.5s-27 40.5 -27 68.5s9 50.833 27 68.5s42.333 26.5 73 26.5s55 -8.83301 73 -26.5s27 -40.5 27 -68.5zM-150 684c0 -12 3.16699 -21.833 9.5 -29.5s16.833 -11.5 31.5 -11.5
c14 0 24.167 3.83301 30.5 11.5s9.5 17.5 9.5 29.5c0 11.333 -3.16699 20.833 -9.5 28.5s-16.5 11.5 -30.5 11.5c-14.667 0 -25.167 -3.83301 -31.5 -11.5s-9.5 -17.167 -9.5 -28.5z" />
    <glyph glyph-name="uni0E4E" unicode="&#xe4e;" 
d="M-178 538c-26.667 0 -49.001 6.00098 -67.001 18.001s-27 32.333 -27 61c0 23.333 7 42.5 21 57.5s33.667 22.5 59 22.5c-5.33301 2.66699 -10.666 7.66699 -15.999 15s-8 16.666 -8 27.999c0 21.333 6.66699 37.166 20 47.499s35 15.5 65 15.5h75v-65h-51
c-15.333 0 -24.333 -2.16699 -27 -6.5s-4 -9.5 -4 -15.5c0 -7.33301 2.66699 -12.5 8 -15.5s11 -5.5 17 -7.5l-11 -50h-42c-17.333 0 -28.5 -1.5 -33.5 -4.5s-7.5 -7.83301 -7.5 -14.5c0 -9.33301 4 -15.166 12 -17.499s15.667 -3.5 23 -3.5h34v-65h-40z" />
    <glyph glyph-name="uni0E4F" unicode="&#xe4f;" horiz-adv-x="619" 
d="M554 272c0 -34.667 -6.83301 -66.5 -20.5 -95.5s-31.667 -54 -54 -75s-48.166 -37.333 -77.499 -49s-59.666 -17.5 -90.999 -17.5c-32.667 0 -63.834 5.83301 -93.501 17.5s-55.834 28 -78.501 49s-40.667 46 -54 75s-20 60.833 -20 95.5c0 36 6.66699 68.667 20 98
s31.333 54.5 54 75.5s48.834 37.333 78.501 49s60.834 17.5 93.501 17.5c31.333 0 61.666 -5.83301 90.999 -17.5s55.166 -28 77.499 -49s40.333 -46.167 54 -75.5s20.5 -62 20.5 -98zM434 276c0 -17.333 -3.16699 -33.333 -9.5 -48s-15 -27.5 -26 -38.5
s-24 -19.5 -39 -25.5s-30.833 -9 -47.5 -9c-17.333 0 -33.5 3 -48.5 9s-28 14.5 -39 25.5s-19.833 23.833 -26.5 38.5s-10 30.667 -10 48c0 16.667 3.33301 32.167 10 46.5s15.5 26.833 26.5 37.5s24 19.167 39 25.5s31.167 9.5 48.5 9.5c16.667 0 32.5 -3.16699 47.5 -9.5
s28 -14.833 39 -25.5s19.667 -23.167 26 -37.5s9.5 -29.833 9.5 -46.5zM485 273c0 24 -4.5 46.667 -13.5 68s-21.5 40 -37.5 56s-34.667 28.5 -56 37.5s-44.333 13.5 -69 13.5c-24 0 -46.667 -4.5 -68 -13.5s-40 -21.5 -56 -37.5s-28.5 -34.667 -37.5 -56
s-13.5 -44 -13.5 -68c0 -24.667 4.5 -47.667 13.5 -69s21.5 -40 37.5 -56s34.667 -28.5 56 -37.5s44 -13.5 68 -13.5c24.667 0 47.667 4.5 69 13.5s40 21.5 56 37.5s28.5 34.667 37.5 56s13.5 44.333 13.5 69zM359 274c0 14 -4.66699 25.5 -14 34.5
s-20.666 13.5 -33.999 13.5c-14 0 -25.5 -4.5 -34.5 -13.5s-13.5 -20.5 -13.5 -34.5c0 -13.333 4.5 -24.666 13.5 -33.999s20.5 -14 34.5 -14c13.333 0 24.666 4.66699 33.999 14s14 20.666 14 33.999z" />
    <glyph glyph-name="uni0E50" unicode="&#xe50;" horiz-adv-x="549" 
d="M491 211c0 -70.667 -19.667 -125.167 -59 -163.5s-94.666 -57.5 -165.999 -57.5c-70.667 0 -125.667 19.167 -165 57.5s-59 92.833 -59 163.5s19.667 125.167 59 163.5s94.333 57.5 165 57.5c71.333 0 126.666 -19.167 165.999 -57.5s59 -92.833 59 -163.5zM266 61
c42.667 0 75.665 11 98.998 33s35 61 35 117c0 28 -3 51.667 -9 71s-14.667 34.666 -26 45.999s-25.333 19.5 -42 24.5s-35.667 7.5 -57 7.5s-40.166 -2.5 -56.499 -7.5s-30.166 -13.167 -41.499 -24.5s-20 -26.666 -26 -45.999s-9 -43 -9 -71c0 -56 11.667 -95 35 -117
s56 -33 98 -33z" />
    <glyph glyph-name="uni0E51" unicode="&#xe51;" horiz-adv-x="549" 
d="M305 251l0.00195312 -75.9971c0 -32 -10.5 -56.333 -31.5 -73s-48.5 -25 -82.5 -25c-44 0 -79.833 14 -107.5 42s-41.5 67.333 -41.5 118c0 28 5.16699 53.667 15.5 77s25 43.5 44 60.5s42.333 30.333 70 40s58.5 14.5 92.5 14.5c72 0 127.833 -18.667 167.5 -56
s59.5 -90.333 59.5 -159c0 -40 -5.83301 -76.167 -17.5 -108.5s-29.334 -60.166 -53.001 -83.499s-53.667 -41.333 -90 -54s-78.833 -19 -127.5 -19l-15 72c37.333 0 69.333 3.5 96 10.5s48.667 18.167 66 33.5s30 35.166 38 59.499s12 54.166 12 89.499
c0 26 -3.16699 48 -9.5 66s-15.5 32.667 -27.5 44s-26.333 19.666 -43 24.999s-35.334 8 -56.001 8c-41.333 0 -73.5 -10.167 -96.5 -30.5s-34.5 -50.833 -34.5 -91.5c0 -30 5.83301 -50.833 17.5 -62.5s26.5 -17.5 44.5 -17.5c8 0 15.333 2.16699 22 6.5
s10 14.166 10 29.499v60h78z" />
    <glyph glyph-name="uni0E52" unicode="&#xe52;" horiz-adv-x="607" 
d="M283 259l-79.9951 0.00292969v70c0 28.667 8.33301 51.667 25 69s39.334 26 68.001 26c15.333 0 27.666 -2.33301 36.999 -7s16.666 -9.66699 21.999 -15c6 -6.66699 10.333 -14 13 -22c4 9.33301 12.167 19 24.5 29s30.833 15 55.5 15c34 0 60.167 -9.33301 78.5 -28
s27.5 -46.334 27.5 -83.001v-109c0 -72.667 -22.333 -126.834 -67 -162.501s-106.334 -53.5 -185.001 -53.5c-78 0 -138.333 19.167 -181 57.5s-64 93.833 -64 166.5v262h94v-260c0 -52.667 12.167 -90.834 36.5 -114.501s62.5 -35.5 114.5 -35.5
c54 0 94.333 10.833 121 32.5s40 57.5 40 107.5v109c0 12.667 -3.33301 21.667 -10 27s-14.334 8 -23.001 8c-5.33301 0 -9.83301 -0.5 -13.5 -1.5s-7.33398 -3 -11.001 -6s-7.83398 -7.5 -12.501 -13.5l-17 -23h-15c-12 16.667 -21.167 28.167 -27.5 34.5
s-14.5 9.5 -24.5 9.5s-16.833 -2.5 -20.5 -7.5s-5.5 -13.167 -5.5 -24.5v-57z" />
    <glyph glyph-name="uni0E53" unicode="&#xe53;" horiz-adv-x="572" 
d="M140 104c0 -11.333 2.66797 -20.666 8.00098 -27.999s13.666 -11 24.999 -11h36v-65h-49c-37.333 0 -64.666 8.66699 -81.999 26s-26 43 -26 77v186c0 42 12 74.667 36 98s56.667 35 98 35c26.667 0 47.667 -5.83301 63 -17.5s26.666 -23.5 33.999 -35.5
c3.33301 5.33301 8 11.166 14 17.499s13.5 12.166 22.5 17.499s19.667 9.66602 32 12.999s26.166 5 41.499 5c42 0 73.667 -11.167 95 -33.5s32 -55.166 32 -98.499v-290h-91v289c0 22.667 -4 38.167 -12 46.5s-18.667 12.5 -32 12.5c-15.333 0 -27.833 -4.5 -37.5 -13.5
s-14.5 -27.5 -14.5 -55.5v-136h-89v136c0 28.667 -4.5 47.334 -13.5 56.001s-21.167 13 -36.5 13c-16 0 -28.667 -4.5 -38 -13.5s-14.666 -24.167 -15.999 -45.5v-185z" />
    <glyph glyph-name="uni0E54" unicode="&#xe54;" horiz-adv-x="549" 
d="M330 188c-11.333 0 -16.9922 -5.32812 -16.9922 -15.9951c0 -12.667 2 -25 6 -37s10.667 -22.833 20 -32.5s22.166 -17.334 38.499 -23.001s36.5 -8.5 60.5 -8.5h44v-71h-50c-27.333 0 -50.166 2.83301 -68.499 8.5s-33.5 12.5 -45.5 20.5
c-11.333 -7.33301 -25.333 -14 -42 -20s-36.667 -9 -60 -9c-26.667 0 -51.334 3.83301 -74.001 11.5s-42.334 19.667 -59.001 36s-29.834 37.666 -39.501 63.999s-14.5 58.166 -14.5 95.499c0 42 6.83301 76.833 20.5 104.5s32.167 49.5 55.5 65.5
s50.666 27.167 81.999 33.5s64.666 9.5 99.999 9.5h51c28.667 0 48 4 58 12s15 22 15 42h97c0 -18.667 -3.16699 -36 -9.5 -52s-16 -30 -29 -42s-29.167 -21.333 -48.5 -28s-42.333 -10 -69 -10h-61c-56.667 0 -99.334 -9.66699 -128.001 -29s-43 -54 -43 -104
c0 -44.667 9 -77.834 27 -99.501s42.333 -32.5 73 -32.5c9.33301 0 18.666 0.5 27.999 1.5s16 2.83301 20 5.5c-12.667 10 -22.334 23.167 -29.001 39.5s-10 33.166 -10 50.499c0 28 7.83301 48.167 23.5 60.5s34.167 18.5 55.5 18.5h88v-65h-66z" />
    <glyph glyph-name="uni0E55" unicode="&#xe55;" horiz-adv-x="549" 
d="M325 439c0 10 -3.16699 18.167 -9.5 24.5s-14.5 9.5 -24.5 9.5c-9.33301 0 -17.333 -3.16699 -24 -9.5s-10 -14.5 -10 -24.5c0 -9.33301 3.33301 -17.166 10 -23.499s14.667 -9.5 24 -9.5c10 0 18.167 3.16699 24.5 9.5s9.5 14.166 9.5 23.499zM216 0
c-26 0 -50.3311 3.66797 -72.998 11.001s-42.5 18.833 -59.5 34.5s-30.333 35.834 -40 60.501s-14.5 54 -14.5 88c0 38 4.33301 70.5 13 97.5s20.667 49.333 36 67s33.333 31.167 54 40.5s42.667 15.333 66 18c-1.33301 3.33301 -2.16602 7 -2.49902 11
s-0.5 7.33301 -0.5 10c0 26.667 9.16699 47.834 27.5 63.501s40.5 23.5 66.5 23.5c26.667 0 49 -7.83301 67 -23.5s27 -36.834 27 -63.501c0 -1.33301 -0.166992 -2.83301 -0.5 -4.5s-0.5 -3.16699 -0.5 -4.5v-5c19.333 0 33 3.5 41 10.5s12 20.167 12 39.5h98
c0 -18 -3.16699 -35 -9.5 -51s-16.833 -30 -31.5 -42s-33.5 -21.5 -56.5 -28.5s-50.833 -10.5 -83.5 -10.5h-91c-44.667 0 -79.334 -10.5 -104.001 -31.5s-37 -59.167 -37 -114.5c0 -39.333 9 -69 27 -89s42.333 -30 73 -30c9.33301 0 18.666 0.5 27.999 1.5
s16 2.83301 20 5.5c-12.667 10 -22.334 23.167 -29.001 39.5s-10 33.166 -10 50.499c0 28 7.83301 48.167 23.5 60.5s34.167 18.5 55.5 18.5h88v-65h-66c-11.333 0 -17 -5.33301 -17 -16c0 -12.667 2 -25 6 -37s10.667 -22.833 20 -32.5s22.166 -17.334 38.499 -23.001
s36.5 -8.5 60.5 -8.5h44v-71h-50c-27.333 -0 -50.166 2.83301 -68.499 8.5s-33.5 12.5 -45.5 20.5c-11.333 -7.33301 -25.333 -14 -42 -20s-36.667 -9 -60 -9z" />
    <glyph glyph-name="uni0E56" unicode="&#xe56;" horiz-adv-x="530" 
d="M91 175l83.998 -0.00292969v-84c12 -8 25.5 -14.333 40.5 -19s34.167 -7 57.5 -7c37.333 0 66.333 11.5 87 34.5s31 60.833 31 113.5c0 26 -2.83301 47.833 -8.5 65.5s-13.667 32 -24 43s-22.5 18.833 -36.5 23.5s-29.333 7 -46 7c-30 0 -53.667 -7.16699 -71 -21.5
s-29.666 -30.166 -36.999 -47.499h-78c-1.33301 12.667 -3.83301 25.5 -7.5 38.5s-8.16699 27 -13.5 42s-11.666 31.333 -18.999 49s-15.333 38.167 -24 61.5h97c10 -26 17.5 -47.167 22.5 -63.5s8.16699 -30.166 9.5 -41.499c8.66699 14.667 23.167 27.5 43.5 38.5
s46.166 16.5 77.499 16.5c32.667 0 61.834 -5.16699 87.501 -15.5s47.167 -24.666 64.5 -42.999s30.666 -40.5 39.999 -66.5s14 -54.667 14 -86c0 -71.333 -18.667 -125.833 -56 -163.5s-89.666 -56.5 -156.999 -56.5c-44 0 -80.667 6 -110 18s-52 25.333 -68 40v124z" />
    <glyph glyph-name="uni0E57" unicode="&#xe57;" horiz-adv-x="645" 
d="M146 143c0 -29.333 4.66602 -49.6689 13.999 -61.002s28.333 -17 57 -17h36v-65h-49c-48.667 0 -85.334 12.333 -110.001 37s-37 59.667 -37 105v143c0 20 2.83301 38.333 8.5 55s13.834 31 24.501 43s23.5 21.5 38.5 28.5s31.5 10.5 49.5 10.5
c21.333 0 38.333 -4.66699 51 -14s21.667 -20.666 27 -33.999c6 14 17.167 25.5 33.5 34.5s34.5 13.5 54.5 13.5c18.667 0 34.834 -3.83301 48.501 -11.5s24.834 -17.667 33.501 -30s15 -26.833 19 -43.5s6 -34 6 -52v-206c15.333 2.66699 27.666 9.33398 36.999 20.001
s14 27 14 49v326h91v-318c0 -29.333 -4.16699 -54 -12.5 -74s-19.833 -36 -34.5 -48s-31.667 -20.667 -51 -26s-40 -8 -62 -8h-73v283c0 43.333 -10.667 65 -32 65c-16.667 0 -28.667 -4.83301 -36 -14.5s-12.666 -22.167 -15.999 -37.5h-46
c-4.66699 16.667 -9.83398 29.5 -15.501 38.5s-16.167 13.5 -31.5 13.5c-4.66699 0 -9.16699 -0.666992 -13.5 -2s-8.33301 -4 -12 -8s-6.5 -10.167 -8.5 -18.5s-3 -19.5 -3 -33.5v-143z" />
    <glyph glyph-name="uni0E58" unicode="&#xe58;" horiz-adv-x="549" 
d="M421 149c0 16 -4.00098 28.334 -12.001 37.001s-21 13 -39 13h-45v65h62c34.667 0 63.167 -9.33301 85.5 -28s33.5 -46.667 33.5 -84v-17c0 -44 -11.833 -77.667 -35.5 -101s-56.5 -35 -98.5 -35c-18 0 -33.833 2.83301 -47.5 8.5s-26 12 -37 19l-31 19.5
c-9.66699 6 -20.167 9 -31.5 9c-12.667 0 -21.667 -4.66699 -27 -14s-10.333 -23 -15 -41h-70c-27.333 24 -47 53.833 -59 89.5s-18 71.834 -18 108.501c0 43.333 6.66699 79.333 20 108s30.833 51.5 52.5 68.5s46.5 28.833 74.5 35.5s56.667 10 86 10h79
c27.333 0 45.333 3.66699 54 11s13 21.666 13 42.999h97c0 -44.667 -13 -77.834 -39 -99.501s-67 -32.5 -123 -32.5h-76c-48 0 -84.5 -10.333 -109.5 -31s-37.5 -58 -37.5 -112c0 -26 2.16699 -48 6.5 -66s9.16602 -31 14.499 -39c6.66699 11.333 16.334 21.5 29.001 30.5
s28.334 13.5 47.001 13.5c16.667 0 31.667 -3.33301 45 -10s25.833 -14 37.5 -22l33.5 -22c10.667 -6.66699 21.334 -10 32.001 -10c12 0 21.167 1.5 27.5 4.5s11.166 7.33301 14.499 13s5.33301 12.167 6 19.5s1 15.333 1 24v14z" />
    <glyph glyph-name="uni0E59" unicode="&#xe59;" horiz-adv-x="539" 
d="M39 244c0 58.667 13.335 102.833 40.002 132.5s64 44.5 112 44.5c37.333 0 66.333 -7.33301 87 -22s37.667 -37.334 51 -68.001l13 -27l15 76c3.33301 18 8.83301 33 16.5 45s16.5 21.667 26.5 29s20.833 12.5 32.5 15.5s23.167 4.5 34.5 4.5h46v-71h-19
c-31.333 0 -51 -18.333 -59 -55l-37 -163l80 -185h-95l-131 292c-8.66699 17.333 -16.834 31 -24.501 41s-19.834 15 -36.501 15c-23.333 -0.666992 -39.833 -9.16699 -49.5 -25.5s-14.5 -41.833 -14.5 -76.5v-77c0 -39.333 6.16699 -66.5 18.5 -81.5
s30.166 -22.5 53.499 -22.5h49v-65h-62c-49.333 0 -86.166 13.333 -110.499 40s-36.5 69.334 -36.5 128.001v76z" />
    <glyph glyph-name="uni0E5B" unicode="&#xe5b;" 
 />
    <glyph glyph-name="zerowidthnonjoiner" unicode="&#x200c;" 
d="M-26 -330v698h52v-698h-52z" />
    <glyph glyph-name="zerowidthjoiner" unicode="&#x200d;" 
d="M-26 -330v577l-33 -26l-24 38l54 37l-50 43l32 33l47 -44l47 44l32 -33l-50 -43l54 -37l-26 -38l-31 26v-577h-52z" />
    <glyph glyph-name="lefttorightmark" unicode="&#x200e;" 
d="M-26 -330v652h179l-30 37l34 21l61 -84l-61 -83l-34 22l30 37h-127v-602h-52z" />
    <glyph glyph-name="righttoleftmark" unicode="&#x200f;" 
d="M-26 -330v602h-127l29 -37l-33 -22l-61 83l61 84l33 -21l-29 -37h179v-652h-52z" />
    <glyph glyph-name="endash" unicode="&#x2013;" horiz-adv-x="508" 
d="M-8 226v63h514v-63h-514z" />
    <glyph glyph-name="emdash" unicode="&#x2014;" horiz-adv-x="1017" 
d="M998 226h-1001v63h1001v-63z" />
    <glyph glyph-name="quoteleft" unicode="&#x2018;" horiz-adv-x="225" 
d="M47 467l-0.00195312 70.001c0 22.667 3.33301 44.5 10 65.5s14.334 39.833 23.001 56.5c10 19.333 21.333 37.666 34 54.999l51 -8c-9.33301 -15.333 -17.666 -31 -24.999 -47c-6 -13.333 -11.5 -27.833 -16.5 -43.5s-7.5 -30.167 -7.5 -43.5h43v-105h-112z" />
    <glyph glyph-name="quoteright" unicode="&#x2019;" horiz-adv-x="225" 
d="M173 705l0.000976562 -69.001c0 -22.667 -3.5 -44.667 -10.5 -66s-14.5 -40.333 -22.5 -57c-10 -19.333 -21 -37.666 -33 -54.999l-52 7c9.33301 16 17.666 32 24.999 48c6 13.333 11.667 28 17 44s8 30.667 8 44h-41v104h109z" />
    <glyph glyph-name="quotesinglbase" unicode="&#x201a;" horiz-adv-x="225" 
d="M173 105l0.000976562 -70.001c0 -22.667 -3.5 -44.5 -10.5 -65.5s-14.5 -39.833 -22.5 -56.5c-10 -19.333 -21 -37.666 -33 -54.999l-52 7c9.33301 16 17.666 32 24.999 48c6 13.333 11.667 27.833 17 43.5s8 30.167 8 43.5h-41v105h109z" />
    <glyph glyph-name="quotedblleft" unicode="&#x201c;" horiz-adv-x="451" 
d="M87 467v70.001c0 22.667 3.5 44.5 10.5 65.5s14.833 39.833 23.5 56.5c10 19.333 21.667 37.666 35 54.999l49 -8c-8.66699 -15.333 -16.667 -31 -24 -47c-6 -13.333 -11.5 -27.833 -16.5 -43.5s-7.5 -30.167 -7.5 -43.5h39v-105h-109zM248 467.001l-0.000976562 70.001
c0 22.667 3.5 44.5 10.5 65.5s14.833 39.833 23.5 56.5c10 19.333 21.667 37.666 35 54.999l50 -8c-9.33301 -15.333 -17.666 -31 -24.999 -47c-6 -13.333 -11.5 -27.833 -16.5 -43.5s-7.5 -30.167 -7.5 -43.5h39v-105h-109z" />
    <glyph glyph-name="quotedblright" unicode="&#x201d;" horiz-adv-x="451" 
d="M354 705l0.000976562 -69.001c0 -22.667 -3.5 -44.667 -10.5 -66s-14.833 -40.333 -23.5 -57c-10 -19.333 -21.333 -37.666 -34 -54.999l-51 7c9.33301 16 17.666 32 24.999 48c6.66699 13.333 12.667 28 18 44s8 30.667 8 44h-42v104h110zM192.001 704.999
l0.000976562 -69.001c0 -22.667 -3.5 -44.667 -10.5 -66s-14.5 -40.333 -22.5 -57c-10 -19.333 -21 -37.666 -33 -54.999l-52 7c9.33301 16 17.666 32 24.999 48c6.66699 13.333 12.667 28 18 44s8 30.667 8 44h-42v104h109z" />
    <glyph glyph-name="quotedblbase" unicode="&#x201e;" horiz-adv-x="451" 
d="M354 105l0.000976562 -70.001c0 -22.667 -3.5 -44.5 -10.5 -65.5s-14.833 -39.833 -23.5 -56.5c-10 -19.333 -21.333 -37.666 -34 -54.999l-51 7c9.33301 16 17.666 32 24.999 48c6.66699 13.333 12.667 27.833 18 43.5s8 30.167 8 43.5h-42v105h110zM192.001 104.999
l0.000976562 -70.001c0 -22.667 -3.5 -44.5 -10.5 -65.5s-14.5 -39.833 -22.5 -56.5c-10 -19.333 -21 -37.666 -33 -54.999l-52 7c9.33301 16 17.666 32 24.999 48c6.66699 13.333 12.667 27.833 18 43.5s8 30.167 8 43.5h-42v105h109z" />
    <glyph glyph-name="dagger" unicode="&#x2020;" horiz-adv-x="508" 
d="M222 -77l-18 395l16 156c-24 -2.66699 -48.833 -5.66699 -74.5 -9l-71.5 -9v82l147 -17l-13 194h84l-15 -194l148 17v-82l-147 18l17 -156l-21 -395h-52z" />
    <glyph glyph-name="daggerdbl" unicode="&#x2021;" horiz-adv-x="508" 
d="M425 456l-147 17.999l17 -154l-17 -155l147 16v-80l-148 15l14 -193h-83l13 191c-23.333 -2.66699 -48.333 -4.66699 -75 -6s-50.667 -3.66602 -72 -6.99902v80l146 -16l-16 155l16 154c-24 -2.66699 -48.833 -5.66699 -74.5 -9l-71.5 -9v82l147 -17l-13 194h84l-15 -194
l148 17v-82z" />
    <glyph glyph-name="bullet" unicode="&#x2022;" horiz-adv-x="428" 
d="M70 278c0 18.667 3.66699 36 11 52s17.166 30 29.499 42s27.166 21.5 44.499 28.5s36 10.5 56 10.5c18.667 0 36.5 -3.5 53.5 -10.5s31.833 -16.5 44.5 -28.5s22.667 -26 30 -42s11 -33.333 11 -52s-3.66699 -36.167 -11 -52.5s-17.333 -30.666 -30 -42.999
s-27.5 -22 -44.5 -29s-34.833 -10.5 -53.5 -10.5c-20 0 -38.667 3.5 -56 10.5s-32.166 16.667 -44.499 29s-22.166 26.666 -29.499 42.999s-11 33.833 -11 52.5z" />
    <glyph glyph-name="ellipsis" unicode="&#x2026;" horiz-adv-x="1017" 
d="M117 0v105h112v-105h-112zM445 0v105h107v-105h-107zM768 0v105h111v-105h-111z" />
    <glyph glyph-name="perthousand" unicode="&#x2030;" horiz-adv-x="1097" 
d="M212 627c45.333 0 80.666 -13.667 105.999 -41s38 -63.333 38 -108s-12.667 -80.5 -38 -107.5s-60.666 -40.5 -105.999 -40.5c-44.667 0 -80.167 13.5 -106.5 40.5s-39.5 62.833 -39.5 107.5s13.167 80.667 39.5 108s61.833 41 106.5 41zM212 563
c-24 0 -41.667 -7.33301 -53 -22s-17 -35.667 -17 -63c0 -26.667 5.66699 -47.5 17 -62.5s29 -22.5 53 -22.5s42.167 7.5 54.5 22.5s18.5 35.833 18.5 62.5c0 27.333 -6.16699 48.333 -18.5 63s-30.5 22 -54.5 22zM238 -9h-81l368 645h83zM545 296
c46 0 82 -13.833 108 -41.5s39 -63.5 39 -107.5c0 -45.333 -13 -81.166 -39 -107.499s-62 -39.5 -108 -39.5c-44.667 0 -79.667 13.167 -105 39.5s-38 62.166 -38 107.499c0 44 12.667 79.833 38 107.5s60.333 41.5 105 41.5zM545 233c-23.333 0 -40.5 -7.5 -51.5 -22.5
s-16.5 -36.167 -16.5 -63.5c0 -26 5.5 -46.667 16.5 -62s28.167 -23 51.5 -23c24.667 0 42.667 7.66699 54 23s17 36 17 62c0 27.333 -5.66699 48.5 -17 63.5s-29.333 22.5 -54 22.5zM854 296c45.333 0 80.666 -13.833 105.999 -41.5s38 -63.5 38 -107.5
c0 -45.333 -12.667 -81.166 -38 -107.499s-60.666 -39.5 -105.999 -39.5c-44 0 -79.333 13.167 -106 39.5s-40 62.166 -40 107.499c0 44 13.333 79.833 40 107.5s62 41.5 106 41.5zM854 233c-24 0 -41.667 -7.5 -53 -22.5s-17 -36.167 -17 -63.5
c0 -26 5.66699 -46.667 17 -62s29 -23 53 -23s42 7.66699 54 23s18 36 18 62c0 27.333 -6 48.5 -18 63.5s-30 22.5 -54 22.5z" />
    <glyph glyph-name="minute" unicode="&#x2032;" horiz-adv-x="214" 
d="M71 456v210h72v-210h-72z" />
    <glyph glyph-name="second" unicode="&#x2033;" horiz-adv-x="357" 
d="M65 456v210h71v-210h-71zM221 456v210h71v-210h-71z" />
    <glyph glyph-name="guilsinglleft" unicode="&#x2039;" horiz-adv-x="339" 
d="M143 260l129 -159h-95l-128 159l128 152h96z" />
    <glyph glyph-name="guilsinglright" unicode="&#x203a;" horiz-adv-x="339" 
d="M190 255l-129 157h95l125 -157l-125 -154h-96z" />
    <glyph glyph-name="fraction" unicode="&#x2044;" horiz-adv-x="217" 
d="M18 0h-78l255 614h78z" />
    <glyph glyph-name="Euro" unicode="&#x20ac;" horiz-adv-x="569" 
d="M420 289v-73h-402v73h402zM18 383v73h402v-73h-402zM543 170c-6.66699 -56.667 -28.167 -100.501 -64.5 -131.501s-87.5 -46.5 -153.5 -46.5c-42 0 -78.5 8.33301 -109.5 25s-56.667 40 -77 70s-35.5 66 -45.5 108s-15 88.333 -15 139c0 54 4.83301 102.833 14.5 146.5
s24.667 80.834 45 111.501s46 54.334 77 71.001s67.833 25 110.5 25c67.333 0 118.5 -15.333 153.5 -46s55.167 -73.667 60.5 -129h-91c-4.66699 28 -16.667 51.333 -36 70s-48.333 28 -87 28c-29.333 0 -53.833 -5.5 -73.5 -16.5s-35.334 -27.667 -47.001 -50
s-20 -51 -25 -86s-7.5 -76.5 -7.5 -124.5c0 -44 2.5 -82.333 7.5 -115s13.333 -60 25 -82s27.334 -38.5 47.001 -49.5s44.167 -16.5 73.5 -16.5c39.333 0 69 9.16699 89 27.5s32.333 42.166 37 71.499h92z" />
    <glyph glyph-name="uni2113" unicode="&#x2113;" horiz-adv-x="381" 
d="M303 19c-22 -11.333 -41.833 -17.998 -59.5 -19.998s-31.834 -3 -42.501 -3c-34 0 -59.833 9.33301 -77.5 28s-26.5 47 -26.5 85v92l-53 -35l-30 68l83 56v272c0 24.667 3.33301 45.5 10 62.5s15.334 30.833 26.001 41.5s22.667 18.167 36 22.5s26.333 6.5 39 6.5
c16.667 0 32.834 -3.5 48.501 -10.5s29.167 -17.5 40.5 -31.5s20.5 -31.833 27.5 -53.5s10.5 -46.834 10.5 -75.501c0 -36.667 -4.5 -69.5 -13.5 -98.5s-20.667 -54.667 -35 -77s-30.666 -41.833 -48.999 -58.5s-36.833 -31.334 -55.5 -44.001v-137
c0 -17.333 2.66699 -29.166 8 -35.499s15.666 -9.5 30.999 -9.5c9.33301 0 22.166 2.16699 38.499 6.5s30.833 10.166 43.5 17.499v-69zM250 520.002c0 36 -4.66797 62.501 -14.001 79.501s-18.666 25.5 -27.999 25.5c-7.33301 0 -13.5 -3.16699 -18.5 -9.5
s-7.5 -21.833 -7.5 -46.5v-231c10 8.66699 19.167 18.167 27.5 28.5s15.5 22.666 21.5 36.999s10.667 30.833 14 49.5s5 41 5 67z" />
    <glyph glyph-name="trademark" unicode="&#x2122;" horiz-adv-x="780" 
d="M157 339v286h-105v59h269v-59h-101v-286h-63zM641 339v238l-85 -135h-45l-86 135v-238h-61v345h65l105 -173l104 173h64v-345h-61z" />
    <glyph glyph-name="Ohm" unicode="&#x2126;" horiz-adv-x="637" 
d="M318 621c-28 0 -53.835 -5 -77.502 -15s-44.334 -24.833 -62.001 -44.5s-31.5 -44.167 -41.5 -73.5s-15 -63.333 -15 -102c0 -40.667 4.83301 -77.167 14.5 -109.5s22.334 -61.333 38.001 -87s32.834 -48.667 51.501 -69s37 -38.833 55 -55.5v-65h-230v73h126v5
c-18 16.667 -35.333 34.667 -52 54s-31.334 41.333 -44.001 66s-22.834 52 -30.501 82s-11.5 64 -11.5 102c0 50 7.66699 94.333 23 133s35.833 71.167 61.5 97.5s55.334 46.333 89.001 60s68.834 20.5 105.501 20.5s71.834 -6.66699 105.501 -20s63.5 -33 89.5 -59
s46.667 -58.5 62 -97.5s23 -83.833 23 -134.5c0 -38 -3.83301 -72 -11.5 -102s-17.834 -57.333 -30.501 -82s-27.334 -46.667 -44.001 -66s-34 -37.333 -52 -54v-5h126v-73h-230v65c18 16.667 36.333 35.167 55 55.5s35.834 43.333 51.501 69s28.334 54.667 38.001 87
s14.5 68.833 14.5 109.5c0 38 -5 71.5 -15 100.5s-23.833 53.5 -41.5 73.5s-38.5 35.167 -62.5 45.5s-50 15.5 -78 15.5z" />
    <glyph glyph-name="estimated" unicode="&#x212e;" horiz-adv-x="780" 
d="M156 321v-155c24 -39.333 56 -70.5 96 -93.5s86 -34.5 138 -34.5c48.667 0 93.167 10.667 133.5 32s73.833 50 100.5 86l43 -30c-32 -41.333 -72 -74.333 -120 -99s-100.333 -37 -157 -37c-48.667 0 -93.667 9.16699 -135 27.5s-77 43.5 -107 75.5
s-53.5 69.333 -70.5 112s-25.5 88 -25.5 136s8.5 93.333 25.5 136s40.5 79.834 70.5 111.501s65.667 56.834 107 75.501s86.333 28 135 28s93.667 -9.33301 135 -28s77 -43.834 107 -75.501s53.5 -68.834 70.5 -111.501s25.5 -88 25.5 -136v-20h-572zM390 645
c-52 0 -98 -11.668 -138 -35.001s-72 -54.666 -96 -93.999v-149h468v145c-24 40.667 -56 73 -96 97s-86 36 -138 36z" />
    <glyph glyph-name="partialdiff" unicode="&#x2202;" horiz-adv-x="536" 
d="M79 654c19.333 9.33301 40.998 16.667 64.998 22s53 8 87 8c35.333 0 68 -6.5 98 -19.5s55.833 -33.5 77.5 -61.5s38.667 -64.167 51 -108.5s18.5 -97.833 18.5 -160.5c0 -53.333 -4 -101 -12 -143s-20.833 -77.667 -38.5 -107s-40.667 -51.833 -69 -67.5
s-63.166 -23.5 -104.499 -23.5c-30.667 0 -59 5.16699 -85 15.5s-48.5 25 -67.5 44s-33.833 42 -44.5 69s-16 57.167 -16 90.5c0 34 4.33301 65 13 93s21.834 52 39.501 72s39.667 35.667 66 47s57.166 17 92.499 17c18 0 34.167 -2.33301 48.5 -7s27.166 -11 38.499 -19
s21 -16.833 29 -26.5s15 -19.5 21 -29.5c0 44 -4.33301 81.833 -13 113.5s-20 57.667 -34 78s-30.167 35.5 -48.5 45.5s-37.166 15 -56.499 15c-30 0 -57.167 -2.5 -81.5 -7.5s-49.166 -12.833 -74.499 -23.5v74zM251.998 68.001c20 0 37.666 3.83301 52.999 11.5
s28 18 38 31s17.5 28.167 22.5 45.5s7.5 36 7.5 56c0 48 -11.167 86.167 -33.5 114.5s-52.166 42.5 -89.499 42.5c-42 0 -73 -13.167 -93 -39.5s-30 -65.5 -30 -117.5c0 -20 2.66699 -38.667 8 -56s13.166 -32.5 23.499 -45.5s23.333 -23.333 39 -31
s33.834 -11.5 54.501 -11.5z" />
    <glyph glyph-name="Delta" unicode="&#x2206;" horiz-adv-x="520" 
d="M521 0h-538l285 530zM390 52l-74.5 152.5l-75.5 154.5l-82.5 -153l-82.5 -154h315z" />
    <glyph glyph-name="product" unicode="&#x220f;" horiz-adv-x="585" 
d="M528 -247h-89v853h-293v-853h-89v931h471v-931z" />
    <glyph glyph-name="summation" unicode="&#x2211;" horiz-adv-x="585" 
d="M546 -222h-514v71l257 391l-251 375v69h488v-78h-379l233 -355v-13l-249 -382h415v-78z" />
    <glyph glyph-name="minus" unicode="&#x2212;" horiz-adv-x="441" 
d="M399 205h-368v61h368v-61z" />
    <glyph glyph-name="radical" unicode="&#x221a;" horiz-adv-x="460" 
d="M238 13h-59l-89 268h-68v61h122l70 -220l87.5 225.5l85.5 225.5h72z" />
    <glyph glyph-name="infinity" unicode="&#x221e;" horiz-adv-x="827" 
d="M224 190c14 0 27.665 3 40.998 9s26 13.5 38 22.5s22.833 19.167 32.5 30.5s17.834 22.333 24.501 33c-22 24.667 -44.667 45 -68 61s-46.666 24 -69.999 24c-16 0 -30 -2.5 -42 -7.5s-21.667 -11.667 -29 -20s-12.833 -17.5 -16.5 -27.5s-5.5 -20 -5.5 -30
c0 -27.333 7.83301 -50 23.5 -68s39.5 -27 71.5 -27zM364.998 291l-5 -6l8 -6zM745.998 272c0 -17.333 -3 -34.166 -9 -50.499s-15.333 -31 -28 -44s-29 -23.5 -49 -31.5s-44 -12 -72 -12c-20 0 -39.333 3.66699 -58 11s-36 16.166 -52 26.499s-30.5 21.5 -43.5 33.5
s-23.833 23 -32.5 33c-51.333 -69.333 -111.333 -104 -180 -104c-23.333 0 -44.833 3.5 -64.5 10.5s-36.5 17 -50.5 30s-25 29 -33 48s-12 40.5 -12 64.5c0 17.333 3 34.166 9 50.499s15.5 31 28.5 44s29.667 23.5 50 31.5s44.5 12 72.5 12c19.333 0 38.333 -3.66699 57 -11
s36 -16.166 52 -26.499s30.5 -21.5 43.5 -33.5l33.5 -32c26 34 54 59.667 84 77s61.333 26 94 26c23.333 0 44.833 -3.5 64.5 -10.5s36.5 -17 50.5 -30s25 -29 33 -48s12 -40.5 12 -64.5zM679.998 274c0 28 -8 50.834 -24 68.501s-39.667 26.5 -71 26.5
c-14 0 -27.667 -3 -41 -9s-26 -13.5 -38 -22.5s-23 -19.333 -33 -31s-18.333 -22.834 -25 -33.501c23.333 -24.667 46.5 -45 69.5 -61s45.833 -24 68.5 -24c16.667 0 31 2.66699 43 8s21.833 12 29.5 20s13.167 17.167 16.5 27.5s5 20.5 5 30.5z" />
    <glyph glyph-name="integral" unicode="&#x222b;" horiz-adv-x="324" 
d="M152 538c0 52 12.666 91.666 37.999 118.999s61.666 41 108.999 41c19.333 0 35.833 -1.66699 49.5 -5s26.167 -7.33301 37.5 -12l-17 -61c-10.667 3.33301 -21.667 5.83301 -33 7.5s-21.666 2.5 -30.999 2.5c-20.667 0 -37 -6.33301 -49 -19s-18 -36.667 -18 -72v-586
c0 -41.333 -12.167 -73.166 -36.5 -95.499s-56.833 -33.5 -97.5 -33.5c-17.333 0 -34.333 1.83301 -51 5.5s-29.667 8.16699 -39 13.5l15 65c9.33301 -3.33301 20 -6.33301 32 -9s26.333 -4 43 -4c14.667 0 26.334 4.5 35.001 13.5s13 22.5 13 40.5v589z" />
    <glyph glyph-name="approxequal" unicode="&#x2248;" horiz-adv-x="526" 
d="M485 199c-5.33301 -10 -11.8359 -19.8301 -19.5029 -29.4971s-16.667 -18.334 -27 -26.001s-22.5 -13.834 -36.5 -18.501s-30 -7 -48 -7c-18.667 0 -36.167 3 -52.5 9s-33.166 12.667 -50.499 20c-15.333 6.66699 -30.666 12.667 -45.999 18s-31.333 8 -48 8
c-15.333 0 -29.833 -6.83301 -43.5 -20.5s-26.5 -28.5 -38.5 -44.5l-46 53c5.33301 10 11.833 19.667 19.5 29s16.667 17.666 27 24.999s22.333 13.333 36 18s29.5 7 47.5 7c18.667 0 36.334 -2.83301 53.001 -8.5s33.667 -12.167 51 -19.5
c14.667 -6.66699 29.834 -12.667 45.501 -18s31.5 -8 47.5 -8c15.333 0 29.666 6.83301 42.999 20.5s26 29.167 38 46.5zM485.997 357.003c-5.33301 -10 -11.666 -19.832 -18.999 -29.499s-16.333 -18.167 -27 -25.5s-23 -13.333 -37 -18s-30 -7 -48 -7
c-18.667 0 -36.167 2.83301 -52.5 8.5s-33.166 12.167 -50.499 19.5c-15.333 6.66699 -30.666 12.667 -45.999 18s-31 8 -47 8s-30.833 -6.66699 -44.5 -20s-26.167 -28.333 -37.5 -45l-47 54c5.33301 10 11.833 19.667 19.5 29s16.667 17.666 27 24.999
s22.5 13.333 36.5 18s29.667 7 47 7c19.333 0 37.166 -3 53.499 -9s33.166 -12.667 50.499 -20c15.333 -6.66699 30.666 -12.667 45.999 -18s31 -8 47 -8c15.333 0 29.5 7 42.5 21s25.833 29.667 38.5 47z" />
    <glyph glyph-name="notequal" unicode="&#x2260;" horiz-adv-x="516" 
d="M153 147h-120.999v74h159l27 52c7.33301 14.667 16.666 32 27.999 52h-214v73h254l82 152h73l-81 -152h113v-73h-152l-27.5 -52l-27.5 -52h207v-74h-247c-11.333 -23.333 -24 -47.833 -38 -73.5l-39 -73.5h-74z" />
    <glyph glyph-name="lessequal" unicode="&#x2264;" horiz-adv-x="459" 
d="M22 95h403v-64h-403v64zM22 352l403 159v-74l-320 -121l320 -121v-73l-403 159v71z" />
    <glyph glyph-name="greaterequal" unicode="&#x2265;" horiz-adv-x="459" 
d="M428 31h-403v64h403v-64zM428 281l-403 -159v73l319 121l-319 121v74l403 -159v-71z" />
    <glyph glyph-name="lozenge" unicode="&#x25ca;" horiz-adv-x="516" 
d="M421 317l-169 250l-82.5 -124.5l-83.5 -125.5l166 -252zM497 317l-211 -317h-65l-212 317l212 315h65z" />
    <glyph glyph-name="dottedcircle" unicode="&#x25cc;" horiz-adv-x="520" 
d="M283 478c0 -7.33301 -2.16699 -13.166 -6.5 -17.499s-10.166 -6.5 -17.499 -6.5s-13.333 2.16699 -18 6.5s-7 10.166 -7 17.499c0 16.667 8.33301 25 25 25c7.33301 0 13.166 -2.33301 17.499 -7s6.5 -10.667 6.5 -18zM283 53c0 -7.33301 -2.16699 -13.166 -6.5 -17.499
s-10.166 -6.5 -17.499 -6.5s-13.333 2.16699 -18 6.5s-7 10.166 -7 17.499c0 16.667 8.33301 25 25 25c7.33301 0 13.166 -2.33301 17.499 -7s6.5 -10.667 6.5 -18zM70 266c0 -15.333 -8.33301 -23 -25 -23c-15.333 0 -23 7.66699 -23 23c0 16.667 7.66699 25 23 25
c16.667 0 25 -8.33301 25 -25zM497 266c0 -7.33301 -2.33301 -13 -7 -17s-10.667 -6 -18 -6s-13.166 2 -17.499 6s-6.5 9.66699 -6.5 17s2.16699 13.333 6.5 18s10.166 7 17.499 7s13.333 -2.33301 18 -7s7 -10.667 7 -18zM87 346c0 -16 -8.33301 -24 -25 -24
c-15.333 0 -23 8 -23 24c0 7.33301 2 13.166 6 17.499s9.66699 6.5 17 6.5s13.333 -2.16699 18 -6.5s7 -10.166 7 -17.499zM133 417c0 -7.33301 -2.33301 -13 -7 -17s-10.667 -6 -18 -6s-13.166 2 -17.499 6s-6.5 9.66699 -6.5 17s2.16699 13.333 6.5 18s10.166 7 17.499 7
s13.333 -2.33301 18 -7s7 -10.667 7 -18zM201 463c0 -7.33301 -2.16602 -13.167 -6.49902 -17.5s-10.166 -6.5 -17.499 -6.5c-16 0 -24 8 -24 24c0 7.33301 2.16699 13.166 6.5 17.499s10.166 6.5 17.499 6.5s13.166 -2.16699 17.499 -6.5s6.5 -10.166 6.5 -17.499z
M478.001 345.999c0 -16 -7.66699 -23.999 -23 -23.999c-7.33301 0 -13.333 2.16699 -18 6.5s-7 10.166 -7 17.499s2.33301 13.166 7 17.499s10.667 6.5 18 6.5s13 -2.16699 17 -6.5s6 -10.166 6 -17.499zM433.001 417c0 -15.333 -8 -23 -24 -23
c-7.33301 0 -13.166 2 -17.499 6s-6.5 9.66699 -6.5 17s2.16699 13.333 6.5 18s10.166 7 17.499 7c16 0 24 -8.33301 24 -25zM364.001 463c0 -16 -7.66699 -24 -23 -24c-16.667 0 -25 8 -25 24c0 7.33301 2.33301 13.166 7 17.499s10.667 6.5 18 6.5s13 -2.16699 17 -6.5
s6 -10.166 6 -17.499zM87.001 186c0 -7.33301 -2.33301 -13.333 -7 -18s-10.667 -7 -18 -7s-13 2.33301 -17 7s-6 10.667 -6 18c0 15.333 7.66699 23 23 23c16.667 0 25 -7.66699 25 -23zM133.001 114c0 -7.33301 -2.33301 -13.166 -7 -17.499s-10.667 -6.5 -18 -6.5
s-13.166 2.16699 -17.499 6.5s-6.5 10.166 -6.5 17.499s2.16699 13.166 6.5 17.499s10.166 6.5 17.499 6.5s13.333 -2.16699 18 -6.5s7 -10.166 7 -17.499zM201.001 69c0 -7.33301 -2.16797 -13.333 -6.50098 -18s-10.166 -7 -17.499 -7s-13.166 2.33301 -17.499 7
s-6.5 10.667 -6.5 18c0 15.333 8 23 24 23c7.33301 0 13.166 -2 17.499 -6s6.5 -9.66699 6.5 -17zM456 161c-7.33301 0 -13.167 2.33301 -17.5 7s-6.5 10.667 -6.5 18s2.16699 13 6.5 17s10.166 6 17.499 6c16 0 24 -7.66699 24 -23c0 -7.33301 -2.16699 -13.333 -6.5 -18
s-10.166 -7 -17.499 -7zM410.999 90c-7.33301 0 -13.333 2.16699 -18 6.5s-7 10.166 -7 17.499c0 16 8.33301 24 25 24c15.333 0 23 -8 23 -24c0 -7.33301 -2 -13.166 -6 -17.499s-9.66699 -6.5 -17 -6.5zM341.999 44c-7.33301 0 -13.333 2.33301 -18 7s-7 10.667 -7 18
s2.33301 13 7 17s10.667 6 18 6c15.333 0 23 -7.66699 23 -23c0 -7.33301 -2 -13.333 -6 -18s-9.66699 -7 -17 -7z" />
    <glyph glyph-name="uni0E10.alt1" unicode="&#xf700;" horiz-adv-x="532" 
d="M478 235c0 -46 -5.49805 -84 -16.498 -114s-25.667 -54 -44 -72s-39.5 -30.667 -63.5 -38s-49 -11 -75 -11h-71l-46 160c-3.33301 15.333 -8.33301 24.333 -15 27s-16.334 4 -29.001 4h-35v78h38c18.667 0 35.167 -0.666992 49.5 -2s26.5 -5 36.5 -11s18.333 -15 25 -27
s12 -28.667 16 -50l29 -104c16 0 31 2.33301 45 7s26 12.834 36 24.501s17.833 27 23.5 46s8.5 42.833 8.5 71.5v88c0 48 -11.167 84.5 -33.5 109.5s-57.166 37.5 -104.499 37.5c-40 0 -72.333 -8.33301 -97 -25s-37 -41.334 -37 -74.001h-88c0 28 6.66699 52.833 20 74.5
s30.5 39.667 51.5 54s44.667 25.333 71 33s52.833 11.5 79.5 11.5c23.333 0 43.166 -1.66699 59.499 -5s32.166 -5 47.499 -5c16 0 28 5.33301 36 16s12 24.667 12 42h91c0 -28.667 -7.16699 -52.334 -21.5 -71.001s-34.5 -31.667 -60.5 -39
c19.333 -14.667 34.5 -36.667 45.5 -66s16.5 -64.666 16.5 -105.999v-64z" />
    <glyph glyph-name="uni0E34.alt1" unicode="&#xf701;" 
d="M-209 685v-71h-401v71h401z" />
    <glyph glyph-name="uni0E35.alt1" unicode="&#xf702;" 
d="M-207 759v-145h-400v71h318v74h82z" />
    <glyph glyph-name="uni0E36.alt1" unicode="&#xf703;" 
d="M-285 659c10.667 0 18.334 3 23.001 9s7 13.333 7 22c0 8 -2.33301 15 -7 21s-12.334 9 -23.001 9c-11.333 0 -19.333 -3 -24 -9s-7 -13 -7 -21c0 -8.66699 2.33301 -16 7 -22s12.667 -9 24 -9zM-371 685c0 28 8.16699 49.5 24.5 64.5s36.833 22.5 61.5 22.5
c23.333 0 43 -7.83301 59 -23.5s24 -35.167 24 -58.5c0 -22.667 -6.83301 -41 -20.5 -55s-34.5 -21 -62.5 -21h-322v71h236z" />
    <glyph glyph-name="uni0E37.alt1" unicode="&#xf704;" 
d="M-406 685v74h77v-74h40v74h82v-145h-400v71h201z" />
    <glyph glyph-name="uni0E48.alt1" unicode="&#xf705;" 
d="M-318 606v184h85v-184h-85z" />
    <glyph glyph-name="uni0E49.alt1" unicode="&#xf706;" 
d="M-314 667h180.999v-65h-259v69c0 7.33301 -0.666992 12.333 -2 15s-5.66602 4 -12.999 4h-73v65h101c43.333 0 65 -18.667 65 -56v-32z" />
    <glyph glyph-name="uni0E4A.alt1" unicode="&#xf707;" 
d="M-369 737c4.66699 3.33301 10.3311 6.33301 16.998 9s14.334 4 23.001 4c26.667 0 47.667 -6.83301 63 -20.5s23 -31.167 23 -52.5v-5h96v-65h-96h-68v51c0 20 -9.33301 30 -28 30h-11l-38 -29h-16l-41 29h-11c-9.33301 0 -16.5 -3.33301 -21.5 -10
s-7.5 -17.667 -7.5 -33v-38h-75v46c0 32 8.5 56.167 25.5 72.5s40.5 24.5 70.5 24.5c16.667 0 30.334 -4.33301 41.001 -13l26 -22z" />
    <glyph glyph-name="uni0E4B.alt1" unicode="&#xf708;" 
d="M-363 818h78v-72h84v-69h-84v-71h-78v71h-85v69h85v72z" />
    <glyph glyph-name="uni0E4C.alt1" unicode="&#xf709;" 
d="M-342 624l-78.001 0.000976562v38c0 35.333 8.5 61.666 25.5 78.999s44.5 26 82.5 26h133v-72h-130c-11.333 0 -19.666 -2.16699 -24.999 -6.5s-8 -12.5 -8 -24.5v-40z" />
    <glyph glyph-name="uni0E48.alt2" unicode="&#xf70a;" 
d="M-150 606v184h85v-184h-85z" />
    <glyph glyph-name="uni0E49.alt2" unicode="&#xf70b;" 
d="M-198 667h180.999v-65h-259v69c0 7.33301 -0.666992 12.333 -2 15s-5.66602 4 -12.999 4h-73v65h101c43.333 0 65 -18.667 65 -56v-32z" />
    <glyph glyph-name="uni0E4A.alt2" unicode="&#xf70c;" 
d="M-248 737c4.66699 3.33301 10.3311 6.33301 16.998 9s14.334 4 23.001 4c26.667 0 47.667 -6.83301 63 -20.5s23 -31.167 23 -52.5v-5h96v-65h-96h-68v51c0 20 -9.33301 30 -28 30h-11l-38 -29h-16l-41 29h-11c-9.33301 0 -16.5 -3.33301 -21.5 -10
s-7.5 -17.667 -7.5 -33v-38h-75v46c0 32 8.5 56.167 25.5 72.5s40.5 24.5 70.5 24.5c16.667 0 30.334 -4.33301 41.001 -13l26 -22z" />
    <glyph glyph-name="uni0E4B.alt2" unicode="&#xf70d;" 
d="M-156 818h78v-72h84v-69h-84v-71h-78v71h-85v69h85v72z" />
    <glyph glyph-name="uni0E4C.alt2" unicode="&#xf70e;" 
d="M-222 624l-78.001 0.000976562v38c0 35.333 8.5 61.666 25.5 78.999s44.5 26 82.5 26h133v-72h-130c-11.333 0 -19.666 -2.16699 -24.999 -6.5s-8 -12.5 -8 -24.5v-40z" />
    <glyph glyph-name="uni0E0D.alt1" unicode="&#xf70f;" horiz-adv-x="868" 
d="M719 217c-9.33301 -17.333 -24.999 -32.665 -46.999 -45.998s-49.667 -20 -83 -20c-61.333 0 -105.666 14.667 -132.999 44s-41 69.333 -41 120v20c0 38.667 -10.333 68.834 -31 90.501s-50.334 32.5 -89.001 32.5c-15.333 0 -30 -2 -44 -6s-27 -9 -39 -15
s-22.333 -12.333 -31 -19s-15 -12.667 -19 -18l68 -36v-53c-4.66699 -1.33301 -10 -3.33301 -16 -6s-11.5 -6.16699 -16.5 -10.5s-9.33301 -9.66602 -13 -15.999s-5.5 -14.166 -5.5 -23.499v-151c0 -11.333 2.66699 -20.666 8 -27.999s13.666 -11 24.999 -11h54v-65h-67
c-37.333 0 -64.666 8.66699 -81.999 26s-26 43 -26 77v149c0 19.333 5 35.666 15 48.999s22.667 24 38 32l-79 39v45c7.33301 9.33301 18.166 20.666 32.499 33.999s31.333 26 51 38s41.834 22.333 66.501 31s51.334 13 80.001 13c64.667 0 115.5 -15.833 152.5 -47.5
s55.5 -81.834 55.5 -150.501v-19c0 -18 2.66699 -32.833 8 -44.5s12.5 -20.834 21.5 -27.501s19.5 -11.334 31.5 -14.001s24.667 -4 38 -4c15.333 0 30 2.33301 44 7s26.5 11.667 37.5 21s19.667 21 26 35s9.5 30.333 9.5 49v188h91v-353
c0 -60.667 -20 -106.834 -60 -138.501s-99.333 -47.5 -178 -47.5c-21.333 0 -40.833 1.66699 -58.5 5s-33.167 7.33301 -46.5 12c-15.333 5.33301 -29 11.333 -41 18v75c13.333 -8 28 -15 44 -21c13.333 -5.33301 29.333 -10 48 -14s38.667 -6 60 -6s40.666 2 57.999 6
s32.166 10.5 44.499 19.5s21.833 21 28.5 36s10 33.833 10 56.5v43z" />
    <glyph glyph-name="uni0E31.alt1" unicode="&#xf710;" 
d="M-355 753l0.000976562 -43c0 -11.333 2.16699 -18.333 6.5 -21s11.166 -4 20.499 -4h312v-71h-338c-28 0 -48.667 8 -62 24s-20 37 -20 63v52h81z" />
    <glyph glyph-name="uni0E4D.alt1" unicode="&#xf711;" 
d="M-205 684c0 -28 -9 -50.833 -27 -68.5s-42.667 -26.5 -74 -26.5c-30.667 0 -55 8.83301 -73 26.5s-27 40.5 -27 68.5s9 50.833 27 68.5s42.333 26.5 73 26.5c31.333 0 56 -8.83301 74 -26.5s27 -40.5 27 -68.5zM-346 684c0 -12 3.16699 -21.833 9.5 -29.5
s16.5 -11.5 30.5 -11.5c14.667 0 25.167 3.83301 31.5 11.5s9.5 17.5 9.5 29.5c0 11.333 -3.16699 20.833 -9.5 28.5s-16.833 11.5 -31.5 11.5c-14 0 -24.167 -3.83301 -30.5 -11.5s-9.5 -17.167 -9.5 -28.5z" />
    <glyph glyph-name="uni0E47.alt1" unicode="&#xf712;" 
d="M-188 601h-92.001l-61 40l-67 -40h-35c-13.333 0 -25.666 2.83301 -36.999 8.5s-21.333 13 -30 22s-15.5 19.333 -20.5 31s-7.5 23.5 -7.5 35.5v21c0 30.667 12 56.667 36 78s58 32 102 32h212v-65h-209c-24 0 -40.833 -4 -50.5 -12s-14.5 -19 -14.5 -33v-13
c0 -12.667 3.5 -21.667 10.5 -27s13.833 -8 20.5 -8h23l58 31h22l70 -31h70v-70z" />
    <glyph glyph-name="uni0E48.alt3" unicode="&#xf713;" 
d="M-279 811v154h73v-154h-73z" />
    <glyph glyph-name="uni0E49.alt3" unicode="&#xf714;" 
d="M-211 885h181v-62h-259v82c0 7.33301 -1.33301 12.333 -4 15s-7.66699 4 -15 4h-69v65h108c21.333 0 36.333 -4.5 45 -13.5s13 -23.167 13 -42.5v-48z" />
    <glyph glyph-name="uni0E4A.alt3" unicode="&#xf715;" 
d="M-226 936c4 3.33301 9.5 6.33301 16.5 9s14.167 4 21.5 4c26 0 46.333 -6.5 61 -19.5s22 -29.833 22 -50.5v-5h93v-63h-93h-65v50c0 18.667 -9 28 -27 28h-10l-30 -27h-16l-32 27h-12c-18 0 -27 -13.667 -27 -41v-37h-72v44c0 30.667 8 54 24 70s38.333 24 67 24
c9.33301 0 17 -1.16699 23 -3.5s11.667 -5.5 17 -9.5l19 -21z" />
    <glyph glyph-name="uni0E4B.alt3" unicode="&#xf716;" 
d="M-210 871v-60h-70v60h-70v61h70v62h70v-62h69v-61h-69z" />
    <glyph glyph-name="uni0E4C.alt3" unicode="&#xf717;" 
d="M-334 760l-78.001 0.000976562v38c0 35.333 8.5 61.666 25.5 78.999s44.5 26 82.5 26h140v-71h-137c-11.333 0 -19.666 -2.33301 -24.999 -7s-8 -12.667 -8 -24v-41z" />
    <glyph glyph-name="uni0E38.alt1" unicode="&#xf718;" 
d="M-152 -385c0 12 -2.83301 20.5 -8.5 25.5s-14.167 7.5 -25.5 7.5h-49v65h61c37.333 0 63.333 -8.33301 78 -25s22 -41.667 22 -75v-124h-78v126z" />
    <glyph glyph-name="uni0E39.alt1" unicode="&#xf719;" 
d="M-322 -373c0 6 -1.16699 10.667 -3.5 14s-8.16602 5 -17.499 5h-28v65h49c18.667 0 33.334 -1.16699 44.001 -3.5s18.667 -6.16602 24 -11.499s8.66602 -12.833 9.99902 -22.5s2 -21.834 2 -36.501v-60c0 -9.33301 3.16699 -17.166 9.5 -23.499s17.166 -9.5 32.499 -9.5
s26.333 3.16699 33 9.5s10 14.166 10 23.499v125h80v-126c0 -12 -2.66699 -23.833 -8 -35.5s-13.333 -21.834 -24 -30.501s-23.5 -15.667 -38.5 -21s-32.5 -8 -52.5 -8c-23.333 0 -42.833 2.66699 -58.5 8s-28.167 12.333 -37.5 21s-16 18.834 -20 30.501s-6 23.5 -6 35.5
v51z" />
    <glyph glyph-name="uni0E3A.alt1" unicode="&#xf71a;" 
d="M-47 -346c0 -17.333 -5.33301 -31 -16 -41s-25.334 -15 -44.001 -15c-18 0 -32.167 5 -42.5 15s-15.5 23.667 -15.5 41s5.16699 31 15.5 41s24.5 15 42.5 15c18.667 0 33.334 -5 44.001 -15s16 -23.667 16 -41z" />
    <glyph glyph-name="uni0E0E.alt1" unicode="&#xf71b;" horiz-adv-x="594" 
d="M443 328c0 42 -11.166 74.1699 -33.499 96.5029s-52.833 33.5 -91.5 33.5c-14.667 0 -28.667 -2 -42 -6s-25.5 -9 -36.5 -15s-20.5 -12.333 -28.5 -19s-13.667 -12.667 -17 -18l67 -36v-53c-4.66699 -1.33301 -10 -3.33301 -16 -6s-11.667 -6.33398 -17 -11.001
s-9.83301 -10.334 -13.5 -17.001s-5.5 -14.667 -5.5 -24v-153c0 -66.667 -37.667 -100 -113 -100h-48v65h34c22.667 0 34 10.667 34 32v160c0 17.333 6.33301 33 19 47s26 23.667 40 29l-79 39v45c7.33301 9.33301 17.666 20.666 30.999 33.999s29.5 26 48.5 38
s40.333 22.333 64 31s49.834 13 78.501 13c32 0 61.5 -4 88.5 -12s50 -20.167 69 -36.5s33.833 -37.5 44.5 -63.5s16 -57 16 -93v-405c0 -41.333 -11.167 -73 -33.5 -95s-53.833 -33 -94.5 -33h-43l-79 55c-8 -10 -19.5 -20.833 -34.5 -32.5s-31.833 -17.5 -50.5 -17.5h-85
v70h74c8.66699 0 17.167 1.83301 25.5 5.5s16.166 8.16699 23.499 13.5s14 11.333 20 18s11 13 15 19h20l74 -51h32c12.667 0 23 3.66699 31 11s12 20.333 12 39v403z" />
    <glyph glyph-name="uni0E0F.alt1" unicode="&#xf71c;" horiz-adv-x="594" 
d="M359 -81l56.001 -36.9971c6.66699 0 13.334 2 20.001 6s10 10.667 10 20v420c0 42 -11.5 74.167 -34.5 96.5s-53.833 33.5 -92.5 33.5c-14.667 0 -28.667 -2 -42 -6s-25.5 -9 -36.5 -15s-20.5 -12.333 -28.5 -19s-13.667 -12.667 -17 -18l67 -36v-53
c-4.66699 -1.33301 -10 -3.33301 -16 -6s-11.667 -6.33398 -17 -11.001s-9.83301 -10.334 -13.5 -17.001s-5.5 -14.667 -5.5 -24v-153c0 -66.667 -37.667 -100 -113 -100h-48v65h34c22.667 0 34 10.667 34 32v160c0 17.333 6.33301 33 19 47s26 23.667 40 29l-79 39v45
c7.33301 9.33301 17.666 20.666 30.999 33.999s29.5 26 48.5 38s40.333 22.333 64 31s49.834 13 78.501 13c32 0 61.5 -4 88.5 -12s50 -20.167 69 -36.5s33.833 -37.5 44.5 -63.5s16 -57 16 -93v-427c0 -32.667 -11.333 -58 -34 -76s-51.667 -27 -87 -27l-65 47l-61 -50
l-59 49c-7.33301 -11.333 -18 -22 -32 -32s-31 -15 -51 -15h-50v70h38c21.333 0 38.666 5.33301 51.999 16s23.666 22.667 30.999 36h20l53 -46l46 46h22z" />
    <glyph glyph-name="uni0E2C.alt1" unicode="&#xf71d;" horiz-adv-x="630" 
d="M555 0l-76.9961 0.00195312l-9 31c-0.666992 2.66699 -3.33398 7.16699 -8.00098 13.5s-10.834 14 -18.501 23l-25.5 29.5l-29 32l-77 84l-80 -83l-29.5 -32c-9.66699 -10.667 -18.334 -20.667 -26.001 -30s-14 -17.333 -19 -24s-7.83301 -11.334 -8.5 -14.001l-9 -30
h-74v526h88v-369l141 154h36l134 -142v127c0 19.333 -5 35.666 -15 48.999s-26.333 20 -49 20v60c25.333 3.33301 45.166 13.333 59.499 30s21.5 44.667 21.5 84h91c0 -78.667 -28.333 -124.334 -85 -137.001c22.667 -5.33301 39.667 -15.666 51 -30.999s17 -39 17 -71v-300
z" />
    <glyph glyph-name="apple" unicode="&#xf8ff;" horiz-adv-x="772" 
d="M772 103c0 -6.66699 -2.66895 -11.001 -8.00195 -13.001l-278 -154c-2 -0.666992 -4.16699 -1.16699 -6.5 -1.5s-6.16602 -0.5 -11.499 -0.5h-166c-4 0 -7 0.166992 -9 0.5s-4 0.833008 -6 1.5l-275 152c-8 3.33301 -12 10 -12 20v402
c0 4.66699 0.833008 7.83398 2.5 9.50098l5.5 5.5l408 202c4 1.33301 7 2 9 2c3.33301 0 6.33301 -0.666992 9 -2l298 -151c8.66699 -4.66699 14.334 -9 17.001 -13l22 -44c0.666992 -2 1 -5 1 -9v-407zM424.998 698.999l-380 -189.001l255 -138h173l39 20l20 11
c4.66699 2.66699 7.66699 4.33398 9 5.00098v51c0 9.33301 3.66699 14 11 14h107l79 44l-17 34zM743.998 486.998l-254.001 -139.999v-156l125 68v87c0 7.33301 4.66699 11 14 11c10.667 0 16 -3.66699 16 -11v-95c0 -2.66699 -0.5 -5.33398 -1.5 -8.00098
s-3.16699 -4.66699 -6.5 -6l-147 -77v-72l33.5 18l45.5 24l55 30c2.66699 0.666992 5.33398 1 8.00098 1c3.33301 0 6.33301 -1 9 -3s4 -5.66699 4 -11c0 -2 -0.666992 -4.33301 -2 -7s-3.33301 -4.33398 -6 -5.00098l-146 -77c-2.66699 -1.33301 -5.16699 -2.5 -7.5 -3.5
s-4.83301 -1.5 -7.5 -1.5c-4.66699 0 -8 1.5 -10 4.5s-3 6.5 -3 10.5v274h-160c-7.33301 0 -13.333 1.66699 -18 5l-255 140v-189l122 -69c4.66699 -4.66699 7 -9.66699 7 -15v-96c0 -9.33301 -4.33301 -14 -13 -14c-10.667 0 -16 4.66699 -16 14v90l-100 56v-154l253 -137
v257c-2 0.666992 -5.83301 2.83398 -11.5 6.50098s-12.667 7.83398 -21 12.501l-27.5 16l-30 18l-81 46c-3.33301 1.33301 -5.5 3.16602 -6.5 5.49902s-1.5 4.5 -1.5 6.5c0 3.33301 1 6.66602 3 9.99902s5.33301 5 10 5c2 0 3.66699 -0.166992 5 -0.5s3 -0.833008 5 -1.5
l176 -102c5.33301 -3.33301 8 -7.66602 8 -12.999v-277h162l271 148v377zM317.997 519.999c3.33301 0 9.16699 -1.82812 17.5 -5.49512s17 -8 26 -13s16.833 -10.333 23.5 -16s10 -10.167 10 -13.5c0 -2 -1.33301 -4.33301 -4 -7s-5.83398 -5.33398 -9.50098 -8.00098
s-7.16699 -4.83398 -10.5 -6.50098s-6 -2.5 -8 -2.5c-3.33301 0 -9.33301 2.16699 -18 6.5s-17.5 9.16602 -26.5 14.499s-17.167 10.666 -24.5 15.999s-11 8.66602 -11 9.99902c0 2.66699 1.33301 5.5 4 8.5s5.83398 5.66699 9.50098 8s7.5 4.33301 11.5 6
s7.33301 2.5 10 2.5zM471.998 598.004c2.66699 0 8.33203 -1.82812 16.999 -5.49512s17.334 -8 26.001 -13s16.5 -10.333 23.5 -16s10.5 -10.167 10.5 -13.5c0 -2 -1.33301 -4.33301 -4 -7s-6 -5.33398 -10 -8.00098s-7.83301 -4.83398 -11.5 -6.50098s-6.5 -2.5 -8.5 -2.5
c-2.66699 0 -8.33398 2.16699 -17.001 6.5s-17.667 9.16602 -27 14.499s-17.666 10.666 -24.999 15.999s-11 8.66602 -11 9.99902c0 5.33301 4.5 10.833 13.5 16.5s16.833 8.5 23.5 8.5z" />
    <glyph glyph-name="uni0E33.alt1" horiz-adv-x="435" 
d="M285 0v348.001c0 74 -28.667 111 -86 111c-30.667 0 -55.5 -8.33301 -74.5 -25s-28.5 -41.334 -28.5 -74.001h-86c0 28 4.83301 52.833 14.5 74.5s23 39.667 40 54s37 25.333 60 33s47.833 11.5 74.5 11.5c62 0 106.5 -15.833 133.5 -47.5s40.5 -77.5 40.5 -137.5v-348
h-88zM-205 684.001c0 -28 -9.33301 -50.833 -28 -68.5s-42.334 -26.5 -71.001 -26.5s-52.334 8.83301 -71.001 26.5s-28 40.5 -28 68.5s9.33301 50.833 28 68.5s42.334 26.5 71.001 26.5s52.334 -8.83301 71.001 -26.5s28 -40.5 28 -68.5zM-345 684.001
c0 -12 3.16699 -21.833 9.5 -29.5s16.833 -11.5 31.5 -11.5c14 0 24.167 3.83301 30.5 11.5s9.5 17.5 9.5 29.5c0 11.333 -3.16699 20.833 -9.5 28.5s-16.5 11.5 -30.5 11.5c-14.667 0 -25.167 -3.83301 -31.5 -11.5s-9.5 -17.167 -9.5 -28.5z" />
    <glyph glyph-name="uni0E4E.alt1" 
d="M-268 526c-26.667 0 -49.001 6.00098 -67.001 18.001s-27 32.333 -27 61c0 23.333 7 42.5 21 57.5s33.667 22.5 59 22.5c-5.33301 2.66699 -10.666 7.66699 -15.999 15s-8 16.666 -8 27.999c0 21.333 6.66699 37.166 20 47.499s35 15.5 65 15.5h75v-65h-51
c-15.333 0 -24.333 -2.16699 -27 -6.5s-4 -9.5 -4 -15.5c0 -7.33301 2.66699 -12.5 8 -15.5s11 -5.5 17 -7.5l-11 -50h-42c-17.333 0 -28.5 -1.5 -33.5 -4.5s-7.5 -7.83301 -7.5 -14.5c0 -9.33301 4 -15.166 12 -17.499s15.667 -3.5 23 -3.5h34v-65h-40z" />
    </font>
</defs>
</svg>
